<?xml version="1.0" encoding="utf-8"?>
<!-- Generator: Adobe Illustrator 27.5.0, SVG Export Plug-In . SVG Version: 6.00 Build 0)  -->
<svg version="1.1" id="Layer_1" xmlns="http://www.w3.org/2000/svg" xmlns:xlink="http://www.w3.org/1999/xlink" x="0px" y="0px"
	 viewBox="0 0 337.086 212.885" style="enable-background:new 0 0 337.086 212.885;" xml:space="preserve">
<g>
	<g>
		<path style="fill:#FFFFFF;" d="M331.98,55.325c0.229-1.807-0.358-3.601-1.63-4.941L290.408,8.696
			c-0.023-0.025-0.048-0.05-0.073-0.073c-0.095-0.096-0.192-0.187-0.296-0.274c-0.149-0.135-0.34-0.294-0.583-0.46
			c-0.029-0.019-0.06-0.04-0.09-0.06c-0.137-0.09-0.292-0.179-0.447-0.26c-0.071-0.038-0.145-0.074-0.22-0.11
			c-0.095-0.049-0.195-0.096-0.281-0.133c-0.077-0.034-0.156-0.065-0.235-0.095c-0.154-0.058-0.31-0.108-0.438-0.144
			c-0.044-0.012-0.089-0.025-0.132-0.036c-0.182-0.049-0.355-0.089-0.54-0.121c-0.032-0.005-0.065-0.01-0.098-0.016
			c-0.127-0.02-0.253-0.034-0.381-0.046c-0.182-0.021-0.364-0.031-0.544-0.031H122.44c-0.195,0-0.394,0.013-0.592,0.037
			c-0.545,0.052-1.072,0.174-1.569,0.365c-0.049,0.017-0.1,0.037-0.148,0.058l-75.16,30.075c-0.207,0.084-0.412,0.182-0.606,0.294
			c-0.222,0.119-0.429,0.247-0.601,0.37c-0.182,0.126-0.35,0.257-0.479,0.37c-0.084,0.069-0.166,0.141-0.239,0.211
			c-0.076,0.07-0.147,0.143-0.219,0.219c-0.139,0.148-0.269,0.306-0.391,0.472c-0.077,0.102-0.151,0.203-0.222,0.307
			c-0.117,0.168-0.226,0.343-0.317,0.515L9.941,99.962c-1.002,1.848-0.958,4.122,0.116,5.941c1.07,1.807,3.039,2.941,5.137,2.959
			l25.991,0.232v94.562c0,0.7,0.129,1.404,0.366,2.045c0.05,0.14,0.13,0.34,0.191,0.474c0.277,0.602,0.645,1.148,1.094,1.622
			c0.107,0.114,0.218,0.222,0.332,0.323c0.151,0.141,0.367,0.328,0.653,0.524c0.323,0.221,0.62,0.366,0.809,0.451
			c0.164,0.079,0.322,0.148,0.457,0.197c0.697,0.264,1.415,0.397,2.132,0.397h163.613c0.752,0,1.488-0.139,2.203-0.418
			c0.02-0.008,0.04-0.015,0.061-0.023l75.194-30.094c0.127-0.05,0.252-0.107,0.374-0.168c0.117-0.059,0.232-0.121,0.346-0.189
			c0.401-0.225,0.767-0.487,1.071-0.766c0.204-0.185,0.385-0.376,0.565-0.59c0.284-0.336,0.534-0.707,0.738-1.098
			c0.126-0.237,0.233-0.472,0.301-0.658c0.264-0.696,0.398-1.413,0.398-2.133V82.376l37.055-22.668
			C330.712,58.746,331.747,57.149,331.98,55.325z"/>
		<path style="fill:#F1F1F1;" d="M331.602,54.993c0.229-1.807-0.358-3.602-1.63-4.94L290.029,8.364
			c-0.023-0.024-0.048-0.049-0.073-0.073c-0.096-0.095-0.192-0.187-0.296-0.273c-0.149-0.136-0.339-0.298-0.582-0.46
			c-0.03-0.021-0.06-0.04-0.091-0.061c-0.137-0.09-0.292-0.178-0.447-0.259c-0.071-0.038-0.145-0.074-0.22-0.111
			c-0.096-0.047-0.195-0.096-0.281-0.133c-0.076-0.033-0.156-0.066-0.235-0.095c-0.153-0.057-0.31-0.106-0.439-0.143
			c-0.044-0.013-0.089-0.025-0.131-0.037c-0.183-0.048-0.357-0.085-0.541-0.12c-0.032-0.006-0.064-0.011-0.098-0.017
			c-0.127-0.02-0.253-0.032-0.381-0.045c-0.182-0.019-0.364-0.031-0.544-0.031H122.062c-0.195,0-0.394,0.015-0.592,0.037
			c-0.544,0.059-1.07,0.177-1.569,0.364c-0.049,0.019-0.1,0.038-0.148,0.059l-75.16,30.076c-0.207,0.083-0.41,0.185-0.606,0.293
			c-0.22,0.123-0.428,0.25-0.601,0.371c-0.181,0.127-0.349,0.259-0.479,0.369c-0.083,0.071-0.165,0.143-0.239,0.211
			c-0.075,0.071-0.147,0.145-0.219,0.219c-0.14,0.148-0.267,0.307-0.391,0.472c-0.076,0.103-0.15,0.204-0.222,0.308
			c-0.115,0.168-0.225,0.343-0.317,0.514L9.562,99.631c-1.002,1.846-0.958,4.121,0.116,5.94c1.07,1.807,3.039,2.94,5.137,2.96
			l25.991,0.231v94.563c0,0.699,0.133,1.401,0.366,2.045c0.051,0.138,0.13,0.339,0.191,0.474c0.277,0.602,0.646,1.146,1.094,1.621
			c0.106,0.115,0.219,0.22,0.332,0.323c0.153,0.14,0.367,0.329,0.653,0.525c0.323,0.221,0.621,0.363,0.809,0.45
			c0.165,0.077,0.322,0.147,0.457,0.197c0.699,0.26,1.415,0.398,2.132,0.398h163.613c0.752,0,1.489-0.135,2.204-0.417
			c0.02-0.008,0.039-0.016,0.06-0.024l75.194-30.094c0.127-0.05,0.252-0.106,0.374-0.167c0.117-0.059,0.232-0.123,0.346-0.189
			c0.398-0.232,0.766-0.489,1.071-0.767c0.203-0.185,0.385-0.376,0.565-0.589c0.284-0.338,0.533-0.709,0.738-1.099
			c0.125-0.236,0.232-0.473,0.302-0.658c0.259-0.697,0.397-1.413,0.397-2.132V82.045l37.055-22.669
			C330.333,58.415,331.368,56.816,331.602,54.993z"/>
		<path style="fill:#E2E2E2;" d="M331.223,54.663c0.23-1.808-0.357-3.603-1.629-4.942L289.651,8.033
			c-0.023-0.025-0.049-0.049-0.073-0.072c-0.098-0.094-0.193-0.188-0.296-0.275c-0.15-0.134-0.34-0.294-0.583-0.46
			c-0.029-0.019-0.059-0.04-0.09-0.06c-0.137-0.09-0.292-0.179-0.447-0.26c-0.072-0.038-0.145-0.074-0.22-0.11
			c-0.096-0.048-0.195-0.096-0.281-0.133c-0.077-0.034-0.156-0.065-0.235-0.095c-0.154-0.057-0.311-0.105-0.439-0.143
			c-0.044-0.013-0.089-0.026-0.132-0.037c-0.182-0.048-0.355-0.088-0.54-0.121c-0.032-0.005-0.065-0.01-0.098-0.016
			c-0.127-0.02-0.254-0.032-0.381-0.046c-0.182-0.019-0.364-0.03-0.544-0.03H121.684c-0.195,0-0.394,0.015-0.592,0.036
			c-0.544,0.06-1.072,0.174-1.569,0.365c-0.049,0.018-0.1,0.037-0.148,0.059l-75.16,30.075c-0.208,0.084-0.41,0.186-0.606,0.295
			c-0.22,0.122-0.427,0.248-0.601,0.37c-0.18,0.127-0.349,0.258-0.478,0.369c-0.083,0.07-0.165,0.143-0.239,0.212
			c-0.075,0.071-0.149,0.142-0.219,0.218c-0.14,0.148-0.268,0.307-0.392,0.473c-0.075,0.102-0.149,0.202-0.221,0.306
			c-0.115,0.169-0.226,0.343-0.317,0.515L9.184,99.299c-1.002,1.848-0.957,4.122,0.117,5.942c1.069,1.806,3.039,2.94,5.137,2.959
			l25.991,0.231v94.563c0,0.699,0.133,1.402,0.366,2.045c0.051,0.139,0.13,0.339,0.191,0.473c0.276,0.602,0.645,1.146,1.094,1.622
			c0.106,0.114,0.219,0.22,0.332,0.323c0.153,0.139,0.367,0.328,0.653,0.525c0.322,0.22,0.621,0.364,0.809,0.451
			c0.165,0.076,0.322,0.145,0.457,0.196c0.699,0.26,1.415,0.397,2.132,0.397h163.613c0.752,0,1.481-0.156,2.203-0.418
			c0.021-0.008,0.04-0.015,0.061-0.022l75.194-30.095c0.127-0.05,0.253-0.106,0.374-0.167c0.118-0.059,0.232-0.124,0.346-0.19
			c0.397-0.23,0.766-0.487,1.071-0.766c0.203-0.186,0.385-0.376,0.565-0.589c0.285-0.336,0.533-0.708,0.739-1.099
			c0.125-0.237,0.232-0.472,0.301-0.658c0.259-0.698,0.398-1.413,0.398-2.133V81.713l37.055-22.668
			C329.955,58.083,330.99,56.486,331.223,54.663z"/>
		<path style="fill:#D4D4D4;" d="M330.844,54.33c0.23-1.807-0.358-3.601-1.629-4.94L289.272,7.702
			c-0.023-0.025-0.048-0.05-0.073-0.074c-0.096-0.095-0.193-0.187-0.297-0.273c-0.15-0.136-0.339-0.296-0.582-0.46
			c-0.029-0.02-0.06-0.04-0.09-0.06c-0.137-0.09-0.292-0.178-0.447-0.259c-0.072-0.038-0.145-0.074-0.22-0.111
			c-0.096-0.047-0.195-0.096-0.281-0.133c-0.077-0.034-0.156-0.065-0.235-0.095c-0.154-0.057-0.311-0.106-0.439-0.142
			c-0.044-0.013-0.089-0.025-0.132-0.037c-0.182-0.047-0.355-0.088-0.54-0.12c-0.032-0.006-0.065-0.011-0.098-0.017
			c-0.127-0.02-0.253-0.032-0.381-0.045c-0.182-0.019-0.364-0.031-0.544-0.031H121.305c-0.195,0-0.394,0.015-0.592,0.037
			c-0.544,0.06-1.071,0.176-1.57,0.364c-0.048,0.019-0.099,0.038-0.147,0.059L43.835,36.38c-0.207,0.083-0.41,0.185-0.606,0.293
			c-0.22,0.123-0.428,0.25-0.601,0.371c-0.181,0.128-0.349,0.259-0.479,0.369c-0.083,0.071-0.165,0.143-0.239,0.211
			c-0.075,0.071-0.148,0.145-0.219,0.219c-0.14,0.148-0.267,0.309-0.391,0.472c-0.077,0.103-0.15,0.204-0.222,0.308
			c-0.116,0.169-0.226,0.343-0.317,0.514L8.805,98.968c-1.001,1.847-0.957,4.121,0.116,5.94c1.071,1.807,3.04,2.941,5.138,2.96
			L40.05,108.1v94.563c0,0.699,0.134,1.402,0.366,2.045c0.051,0.139,0.13,0.339,0.191,0.474c0.277,0.602,0.645,1.146,1.093,1.621
			c0.107,0.115,0.22,0.22,0.333,0.323c0.153,0.14,0.367,0.33,0.653,0.526c0.323,0.221,0.621,0.362,0.808,0.449
			c0.166,0.078,0.323,0.148,0.458,0.198c0.698,0.262,1.415,0.396,2.132,0.396h163.613c0.752,0,1.489-0.135,2.203-0.417
			c0.02-0.008,0.04-0.016,0.061-0.023l75.194-30.095c0.127-0.05,0.252-0.106,0.374-0.167c0.117-0.058,0.231-0.122,0.346-0.189
			c0.397-0.232,0.766-0.489,1.071-0.767c0.203-0.185,0.385-0.375,0.564-0.589c0.284-0.338,0.535-0.708,0.739-1.098
			c0.126-0.237,0.232-0.474,0.301-0.659c0.258-0.697,0.397-1.413,0.397-2.132V81.382l37.055-22.669
			C329.576,57.753,330.611,56.154,330.844,54.33z"/>
		<path style="fill:#C5C5C5;" d="M330.465,54c0.231-1.807-0.358-3.602-1.629-4.941L288.894,7.371
			c-0.022-0.025-0.048-0.05-0.073-0.073c-0.096-0.095-0.193-0.187-0.295-0.275c-0.15-0.134-0.342-0.292-0.584-0.459
			c-0.028-0.019-0.059-0.04-0.09-0.06c-0.138-0.087-0.292-0.179-0.446-0.26c-0.072-0.038-0.147-0.075-0.221-0.11
			c-0.095-0.047-0.195-0.096-0.281-0.133c-0.077-0.034-0.156-0.065-0.235-0.095c-0.154-0.057-0.311-0.108-0.439-0.144
			c-0.044-0.012-0.088-0.025-0.132-0.036c-0.182-0.048-0.355-0.089-0.539-0.121c-0.032-0.005-0.066-0.01-0.099-0.016
			c-0.127-0.021-0.252-0.033-0.381-0.047c-0.182-0.019-0.364-0.03-0.543-0.03h-163.61c-0.194,0-0.393,0.016-0.591,0.037
			c-0.545,0.06-1.069,0.184-1.569,0.365c-0.05,0.017-0.101,0.037-0.149,0.059L43.457,36.049c-0.207,0.084-0.41,0.185-0.607,0.294
			c-0.22,0.122-0.428,0.248-0.601,0.369c-0.181,0.128-0.349,0.26-0.479,0.37c-0.083,0.071-0.166,0.142-0.239,0.212
			c-0.075,0.071-0.148,0.143-0.219,0.218c-0.14,0.147-0.268,0.308-0.39,0.472c-0.076,0.104-0.151,0.204-0.223,0.308
			c-0.115,0.169-0.226,0.342-0.317,0.515L8.426,98.637c-1,1.848-0.957,4.121,0.118,5.941c1.07,1.806,3.039,2.94,5.137,2.959
			l25.99,0.232v94.563c0,0.7,0.135,1.402,0.366,2.044c0.051,0.141,0.13,0.341,0.191,0.475c0.275,0.602,0.648,1.145,1.095,1.622
			c0.106,0.113,0.219,0.22,0.331,0.323c0.152,0.139,0.366,0.328,0.653,0.524c0.323,0.221,0.621,0.363,0.81,0.451
			c0.164,0.076,0.321,0.146,0.456,0.197c0.699,0.258,1.416,0.397,2.132,0.397h163.613c0.753,0,1.49-0.133,2.203-0.418
			c0.021-0.009,0.04-0.016,0.061-0.023l75.193-30.095c0.127-0.049,0.252-0.105,0.375-0.167c0.116-0.058,0.23-0.123,0.345-0.189
			c0.398-0.23,0.768-0.488,1.072-0.766c0.203-0.184,0.384-0.376,0.564-0.591c0.284-0.335,0.535-0.706,0.739-1.097
			c0.125-0.237,0.231-0.473,0.3-0.658c0.256-0.699,0.397-1.413,0.397-2.133V81.05l37.055-22.667
			C329.197,57.421,330.232,55.824,330.465,54z"/>
		<path style="fill:#B7B7B7;" d="M330.087,53.668c0.23-1.807-0.357-3.602-1.629-4.94L288.516,7.04
			c-0.023-0.025-0.048-0.05-0.073-0.074c-0.096-0.094-0.192-0.185-0.296-0.273c-0.15-0.136-0.341-0.296-0.583-0.46
			c-0.029-0.02-0.06-0.04-0.09-0.061c-0.137-0.089-0.292-0.178-0.447-0.259c-0.072-0.038-0.145-0.074-0.22-0.111
			c-0.096-0.047-0.195-0.095-0.281-0.133c-0.077-0.033-0.156-0.066-0.235-0.095c-0.154-0.057-0.311-0.106-0.438-0.142
			c-0.044-0.013-0.089-0.025-0.132-0.036c-0.183-0.047-0.354-0.089-0.54-0.121c-0.032-0.006-0.064-0.011-0.097-0.016
			c-0.128-0.018-0.254-0.033-0.382-0.046c-0.181-0.02-0.364-0.031-0.544-0.031H120.548c-0.195,0-0.394,0.015-0.592,0.037
			c-0.544,0.059-1.072,0.173-1.569,0.364c-0.049,0.019-0.1,0.038-0.148,0.059l-75.16,30.076c-0.207,0.083-0.41,0.185-0.606,0.293
			c-0.22,0.123-0.428,0.25-0.601,0.372c-0.181,0.127-0.349,0.257-0.479,0.368c-0.083,0.072-0.165,0.142-0.239,0.211
			c-0.075,0.071-0.147,0.145-0.219,0.219c-0.14,0.148-0.267,0.309-0.391,0.473c-0.076,0.102-0.15,0.203-0.222,0.307
			c-0.115,0.168-0.227,0.343-0.317,0.514L8.048,98.306c-1.001,1.847-0.957,4.121,0.117,5.94c1.07,1.807,3.039,2.94,5.137,2.96
			l25.991,0.231v94.564c0,0.699,0.134,1.401,0.366,2.045c0.051,0.139,0.13,0.339,0.191,0.475c0.275,0.602,0.647,1.144,1.094,1.62
			c0.107,0.115,0.22,0.221,0.332,0.323c0.153,0.14,0.367,0.329,0.653,0.525c0.323,0.221,0.621,0.363,0.809,0.45
			c0.165,0.077,0.322,0.147,0.457,0.197c0.699,0.26,1.415,0.397,2.132,0.397H208.94c0.752,0,1.487-0.141,2.203-0.417
			c0.02-0.008,0.041-0.015,0.061-0.024l75.194-30.093c0.127-0.051,0.252-0.107,0.374-0.168c0.117-0.059,0.231-0.123,0.346-0.189
			c0.398-0.231,0.766-0.488,1.071-0.767c0.203-0.185,0.385-0.375,0.564-0.589c0.284-0.338,0.534-0.709,0.739-1.099
			c0.125-0.236,0.232-0.473,0.301-0.657c0.259-0.699,0.397-1.414,0.397-2.133V80.72l37.055-22.669
			C328.819,57.09,329.854,55.492,330.087,53.668z"/>
		<path style="fill:#A8A8A8;" d="M329.708,53.337c0.23-1.807-0.357-3.601-1.629-4.941L288.137,6.708
			c-0.023-0.025-0.048-0.049-0.072-0.073c-0.094-0.097-0.194-0.187-0.297-0.274c-0.15-0.135-0.34-0.294-0.583-0.46
			c-0.029-0.02-0.06-0.04-0.09-0.06c-0.137-0.09-0.292-0.178-0.447-0.26c-0.072-0.038-0.145-0.073-0.22-0.109
			c-0.096-0.048-0.195-0.097-0.28-0.134c-0.078-0.033-0.157-0.065-0.236-0.095c-0.154-0.057-0.311-0.107-0.438-0.144
			c-0.043-0.012-0.089-0.024-0.132-0.036c-0.182-0.05-0.355-0.089-0.54-0.121c-0.032-0.005-0.065-0.011-0.098-0.016
			c-0.127-0.02-0.253-0.032-0.38-0.046c-0.183-0.019-0.364-0.031-0.545-0.031H120.169c-0.195,0-0.394,0.017-0.592,0.038
			c-0.544,0.061-1.07,0.177-1.569,0.364c-0.049,0.017-0.1,0.037-0.148,0.059l-75.16,30.075c-0.207,0.084-0.41,0.185-0.606,0.294
			c-0.219,0.122-0.428,0.249-0.601,0.37c-0.181,0.128-0.349,0.259-0.479,0.369c-0.083,0.071-0.165,0.143-0.239,0.212
			c-0.075,0.071-0.147,0.143-0.219,0.219c-0.14,0.147-0.267,0.307-0.391,0.472c-0.076,0.103-0.15,0.203-0.222,0.307
			c-0.115,0.169-0.227,0.344-0.317,0.515L7.669,97.974c-1.001,1.848-0.957,4.122,0.117,5.941c1.07,1.808,3.039,2.94,5.137,2.959
			l25.991,0.233v94.562c0,0.7,0.134,1.402,0.366,2.045c0.051,0.14,0.13,0.34,0.191,0.474c0.277,0.602,0.646,1.145,1.094,1.622
			c0.106,0.114,0.22,0.22,0.332,0.323c0.153,0.14,0.367,0.328,0.653,0.524c0.324,0.221,0.622,0.364,0.809,0.451
			c0.165,0.076,0.322,0.146,0.457,0.197c0.699,0.259,1.415,0.397,2.132,0.397h163.613c0.752,0,1.487-0.142,2.203-0.418
			c0.021-0.008,0.04-0.015,0.061-0.023l75.195-30.094c0.127-0.05,0.252-0.107,0.373-0.168c0.118-0.059,0.232-0.123,0.347-0.189
			c0.397-0.23,0.766-0.487,1.07-0.765c0.204-0.186,0.384-0.377,0.564-0.591c0.284-0.337,0.533-0.708,0.739-1.098
			c0.126-0.238,0.231-0.473,0.301-0.658c0.258-0.698,0.398-1.413,0.398-2.133V80.388l37.055-22.668
			C328.441,56.758,329.476,55.161,329.708,53.337z"/>
		<path style="fill:#9A9A9A;" d="M329.33,53.005c0.23-1.807-0.357-3.602-1.629-4.94L287.759,6.377
			c-0.023-0.025-0.048-0.05-0.073-0.074c-0.097-0.094-0.193-0.187-0.297-0.273c-0.15-0.136-0.341-0.295-0.582-0.46
			c-0.03-0.021-0.061-0.04-0.09-0.061c-0.137-0.09-0.292-0.178-0.448-0.259c-0.072-0.038-0.144-0.074-0.219-0.111
			c-0.096-0.047-0.195-0.095-0.281-0.132c-0.078-0.034-0.156-0.065-0.236-0.095c-0.154-0.057-0.31-0.109-0.438-0.143
			c-0.044-0.013-0.09-0.024-0.132-0.036c-0.183-0.047-0.356-0.089-0.541-0.121c-0.032-0.006-0.065-0.012-0.097-0.017
			c-0.127-0.02-0.254-0.032-0.382-0.045c-0.181-0.019-0.363-0.031-0.543-0.031H119.791c-0.195,0-0.394,0.015-0.592,0.037
			c-0.544,0.06-1.071,0.176-1.57,0.364c-0.048,0.018-0.099,0.038-0.147,0.059l-75.16,30.076c-0.208,0.083-0.411,0.185-0.606,0.293
			c-0.221,0.124-0.428,0.25-0.602,0.371c-0.18,0.127-0.347,0.258-0.478,0.37c-0.084,0.072-0.165,0.141-0.239,0.21
			c-0.075,0.071-0.147,0.145-0.219,0.219c-0.14,0.148-0.268,0.308-0.392,0.472c-0.076,0.103-0.149,0.204-0.222,0.309
			c-0.115,0.167-0.226,0.342-0.316,0.513L7.29,97.643c-1.001,1.847-0.956,4.121,0.117,5.94c1.07,1.807,3.039,2.94,5.138,2.96
			l25.991,0.231v94.564c0,0.699,0.134,1.401,0.366,2.045c0.051,0.139,0.13,0.339,0.191,0.475c0.276,0.601,0.644,1.145,1.093,1.621
			c0.107,0.114,0.22,0.219,0.333,0.322c0.153,0.14,0.366,0.329,0.653,0.525c0.322,0.221,0.621,0.363,0.808,0.45
			c0.166,0.078,0.323,0.147,0.458,0.197c0.698,0.26,1.415,0.397,2.132,0.397h163.613c0.752,0,1.496-0.12,2.203-0.416
			c0.02-0.008,0.04-0.017,0.06-0.025l75.195-30.094c0.127-0.05,0.252-0.106,0.373-0.167c0.117-0.059,0.232-0.123,0.346-0.189
			c0.398-0.232,0.766-0.489,1.071-0.767c0.204-0.185,0.385-0.376,0.564-0.589c0.285-0.338,0.534-0.709,0.739-1.099
			c0.125-0.236,0.232-0.472,0.302-0.657c0.26-0.698,0.397-1.414,0.397-2.133v-91.18l37.055-22.668
			C328.061,56.427,329.098,54.829,329.33,53.005z"/>
		<path style="fill:#8B8B8B;" d="M328.951,52.674c0.23-1.807-0.357-3.602-1.629-4.941L287.38,6.046
			c-0.023-0.026-0.048-0.051-0.073-0.074c-0.096-0.094-0.193-0.186-0.296-0.273c-0.15-0.136-0.342-0.292-0.583-0.46
			c-0.029-0.02-0.06-0.04-0.09-0.06c-0.136-0.091-0.293-0.177-0.447-0.259c-0.072-0.038-0.145-0.074-0.22-0.111
			c-0.095-0.048-0.195-0.094-0.281-0.132c-0.078-0.034-0.156-0.066-0.236-0.096c-0.153-0.057-0.309-0.109-0.438-0.144
			c-0.044-0.012-0.089-0.024-0.132-0.035c-0.183-0.047-0.356-0.093-0.54-0.122c-0.032-0.005-0.066-0.01-0.098-0.015
			c-0.127-0.02-0.253-0.032-0.381-0.046c-0.182-0.019-0.364-0.032-0.544-0.032H119.412c-0.195,0-0.394,0.016-0.592,0.037
			c-0.544,0.058-1.072,0.175-1.569,0.365c-0.049,0.018-0.1,0.038-0.148,0.06l-75.16,30.074c-0.207,0.084-0.411,0.185-0.606,0.294
			c-0.22,0.123-0.428,0.25-0.6,0.371c-0.181,0.128-0.349,0.257-0.479,0.368c-0.083,0.072-0.165,0.143-0.239,0.212
			c-0.075,0.071-0.147,0.144-0.219,0.22c-0.139,0.147-0.267,0.308-0.391,0.472c-0.076,0.102-0.15,0.202-0.222,0.306
			c-0.115,0.169-0.227,0.344-0.317,0.515L6.912,97.311c-1.001,1.849-0.957,4.122,0.117,5.941c1.07,1.808,3.038,2.94,5.137,2.959
			l25.991,0.232v94.563c0,0.7,0.134,1.402,0.366,2.046c0.051,0.14,0.13,0.339,0.192,0.474c0.276,0.602,0.646,1.145,1.094,1.621
			c0.106,0.114,0.22,0.221,0.332,0.323c0.154,0.139,0.366,0.328,0.653,0.525c0.324,0.221,0.622,0.364,0.809,0.451
			c0.166,0.076,0.322,0.146,0.457,0.197c0.699,0.26,1.415,0.398,2.132,0.398h163.613c0.752,0,1.481-0.156,2.203-0.418
			c0.021-0.008,0.04-0.014,0.06-0.023l75.195-30.093c0.127-0.051,0.252-0.108,0.374-0.169c0.117-0.059,0.232-0.123,0.346-0.189
			c0.398-0.23,0.766-0.487,1.071-0.766c0.203-0.186,0.385-0.376,0.564-0.589c0.285-0.337,0.534-0.709,0.739-1.099
			c0.125-0.237,0.232-0.472,0.301-0.657c0.258-0.699,0.397-1.413,0.397-2.134V79.726l37.055-22.669
			C327.684,56.095,328.719,54.499,328.951,52.674z"/>
		<path style="fill:#7D7D7D;" d="M328.572,52.343c0.23-1.808-0.357-3.602-1.629-4.94L287.001,5.715
			c-0.023-0.026-0.048-0.051-0.073-0.074c-0.096-0.095-0.193-0.187-0.295-0.273c-0.151-0.136-0.344-0.291-0.584-0.461
			c-0.028-0.02-0.06-0.039-0.09-0.06c-0.137-0.09-0.292-0.18-0.447-0.26c-0.072-0.037-0.145-0.073-0.22-0.11
			c-0.096-0.047-0.195-0.096-0.281-0.133c-0.078-0.034-0.156-0.064-0.236-0.095c-0.153-0.058-0.31-0.107-0.438-0.142
			c-0.044-0.013-0.088-0.025-0.132-0.037c-0.182-0.047-0.355-0.092-0.539-0.121c-0.033-0.006-0.066-0.011-0.099-0.016
			c-0.127-0.019-0.253-0.032-0.381-0.045c-0.182-0.02-0.364-0.031-0.544-0.031H119.033c-0.195,0-0.394,0.015-0.592,0.037
			c-0.544,0.059-1.07,0.177-1.569,0.364c-0.049,0.018-0.1,0.037-0.149,0.058l-75.16,30.077c-0.207,0.083-0.41,0.184-0.606,0.292
			c-0.221,0.123-0.428,0.25-0.601,0.372c-0.181,0.128-0.348,0.257-0.479,0.369c-0.083,0.071-0.165,0.142-0.239,0.211
			c-0.075,0.07-0.147,0.145-0.219,0.219c-0.14,0.148-0.267,0.308-0.391,0.472c-0.076,0.102-0.15,0.204-0.222,0.308
			c-0.115,0.168-0.226,0.343-0.317,0.514L6.533,96.98c-1.001,1.847-0.957,4.121,0.117,5.94c1.07,1.807,3.038,2.939,5.137,2.96
			l25.991,0.231v94.563c0,0.699,0.134,1.401,0.366,2.046c0.051,0.139,0.13,0.339,0.191,0.474c0.276,0.601,0.647,1.144,1.095,1.621
			c0.106,0.114,0.218,0.22,0.331,0.323c0.153,0.14,0.366,0.328,0.653,0.524c0.324,0.221,0.622,0.363,0.809,0.45
			c0.166,0.077,0.322,0.148,0.457,0.198c0.698,0.262,1.415,0.398,2.132,0.398h163.613c0.752,0,1.485-0.146,2.203-0.417
			c0.021-0.008,0.04-0.016,0.06-0.025l75.195-30.093c0.127-0.05,0.252-0.106,0.374-0.167c0.117-0.059,0.231-0.123,0.346-0.189
			c0.399-0.232,0.767-0.488,1.071-0.767c0.204-0.185,0.385-0.375,0.564-0.589c0.285-0.338,0.535-0.708,0.74-1.099
			c0.125-0.237,0.23-0.473,0.3-0.658c0.258-0.698,0.397-1.413,0.397-2.132v-91.18l37.055-22.669
			C327.305,55.765,328.34,54.167,328.572,52.343z"/>
		<path style="fill:#6E6E6E;" d="M328.194,52.012c0.23-1.807-0.357-3.602-1.629-4.941L286.622,5.383
			c-0.022-0.025-0.048-0.049-0.073-0.073c-0.096-0.094-0.192-0.187-0.295-0.274c-0.151-0.135-0.341-0.296-0.583-0.461
			c-0.029-0.02-0.06-0.039-0.091-0.059c-0.137-0.089-0.292-0.178-0.447-0.26c-0.072-0.038-0.146-0.074-0.22-0.11
			c-0.095-0.048-0.194-0.096-0.281-0.134c-0.077-0.033-0.156-0.065-0.235-0.095c-0.153-0.058-0.31-0.105-0.438-0.143
			c-0.045-0.013-0.089-0.025-0.132-0.036c-0.183-0.049-0.355-0.092-0.54-0.122c-0.032-0.005-0.065-0.009-0.098-0.015
			c-0.128-0.021-0.254-0.032-0.381-0.046c-0.182-0.019-0.365-0.031-0.544-0.031H118.655c-0.195,0-0.394,0.016-0.592,0.037
			c-0.544,0.06-1.071,0.177-1.57,0.365c-0.048,0.018-0.1,0.037-0.147,0.059l-75.16,30.075c-0.207,0.084-0.411,0.184-0.607,0.293
			c-0.22,0.122-0.427,0.25-0.6,0.371c-0.181,0.128-0.349,0.257-0.479,0.368c-0.083,0.072-0.165,0.144-0.239,0.213
			c-0.075,0.07-0.147,0.143-0.219,0.219c-0.139,0.149-0.268,0.307-0.392,0.472c-0.076,0.103-0.149,0.202-0.221,0.306
			c-0.115,0.169-0.228,0.344-0.317,0.516L6.155,96.648c-1.001,1.848-0.957,4.121,0.116,5.941c1.071,1.807,3.039,2.94,5.137,2.959
			l25.992,0.233v94.562c0,0.701,0.134,1.403,0.366,2.046c0.051,0.14,0.129,0.339,0.191,0.474c0.277,0.601,0.647,1.145,1.094,1.622
			c0.106,0.113,0.219,0.22,0.332,0.323c0.153,0.139,0.366,0.328,0.652,0.524c0.323,0.221,0.623,0.363,0.809,0.45
			c0.167,0.077,0.323,0.146,0.458,0.197c0.698,0.262,1.414,0.397,2.131,0.397h163.613c0.753,0,1.481-0.156,2.204-0.418
			c0.02-0.008,0.04-0.014,0.06-0.023l75.195-30.094c0.126-0.05,0.251-0.107,0.374-0.168c0.116-0.058,0.23-0.122,0.346-0.189
			c0.398-0.229,0.767-0.487,1.071-0.766c0.203-0.184,0.385-0.376,0.564-0.59c0.284-0.337,0.534-0.707,0.739-1.098
			c0.126-0.238,0.231-0.472,0.3-0.658c0.26-0.698,0.398-1.414,0.398-2.134V79.063l37.054-22.668
			C326.927,55.433,327.962,53.836,328.194,52.012z"/>
		<path style="fill:#606060;" d="M327.815,51.68c0.23-1.807-0.357-3.602-1.629-4.94L286.244,5.052
			c-0.023-0.025-0.049-0.051-0.073-0.074c-0.095-0.096-0.193-0.187-0.296-0.273c-0.15-0.136-0.341-0.295-0.583-0.461
			c-0.029-0.019-0.06-0.039-0.09-0.06c-0.137-0.09-0.292-0.179-0.447-0.259c-0.072-0.038-0.145-0.075-0.22-0.111
			c-0.095-0.048-0.195-0.096-0.281-0.133c-0.078-0.034-0.156-0.065-0.236-0.095c-0.153-0.058-0.31-0.106-0.438-0.143
			c-0.044-0.013-0.089-0.025-0.132-0.037c-0.182-0.048-0.355-0.088-0.54-0.12c-0.032-0.006-0.065-0.011-0.098-0.017
			c-0.127-0.019-0.253-0.034-0.381-0.045c-0.182-0.022-0.364-0.031-0.544-0.031H118.276c-0.195,0-0.394,0.012-0.592,0.037
			c-0.545,0.051-1.072,0.173-1.569,0.364c-0.049,0.018-0.1,0.038-0.148,0.059l-75.16,30.076c-0.207,0.083-0.412,0.182-0.606,0.293
			c-0.222,0.12-0.429,0.248-0.601,0.371c-0.182,0.126-0.35,0.257-0.478,0.369c-0.084,0.07-0.166,0.141-0.239,0.211
			c-0.076,0.07-0.147,0.144-0.219,0.219c-0.139,0.149-0.269,0.307-0.391,0.472c-0.077,0.101-0.151,0.203-0.222,0.308
			c-0.117,0.167-0.227,0.343-0.317,0.514L5.776,96.317c-1.001,1.847-0.957,4.121,0.117,5.94c1.07,1.807,3.038,2.941,5.137,2.96
			l25.991,0.231v94.563c0,0.7,0.129,1.404,0.366,2.046c0.05,0.139,0.13,0.339,0.191,0.474c0.276,0.602,0.644,1.146,1.094,1.621
			c0.106,0.115,0.218,0.222,0.332,0.323c0.151,0.142,0.366,0.329,0.653,0.525c0.323,0.221,0.62,0.366,0.809,0.45
			c0.164,0.08,0.322,0.148,0.457,0.197c0.697,0.265,1.414,0.397,2.132,0.397h163.613c0.752,0,1.488-0.138,2.203-0.417
			c0.02-0.008,0.04-0.016,0.059-0.024l75.195-30.094c0.127-0.05,0.252-0.107,0.374-0.167c0.116-0.059,0.232-0.121,0.346-0.189
			c0.401-0.226,0.767-0.488,1.071-0.767c0.204-0.184,0.385-0.375,0.564-0.589c0.285-0.337,0.534-0.708,0.739-1.099
			c0.126-0.236,0.233-0.472,0.3-0.658c0.265-0.696,0.398-1.413,0.398-2.132V78.73l37.055-22.668
			C326.548,55.102,327.583,53.504,327.815,51.68z"/>
	</g>
	<path style="fill:#FFFFFF;" d="M327.815,51.68c0.23-1.807-0.357-3.602-1.629-4.94L286.244,5.052
		c-0.023-0.025-0.049-0.051-0.073-0.074c-0.095-0.096-0.193-0.187-0.296-0.273c-0.15-0.136-0.341-0.295-0.583-0.461
		c-0.029-0.019-0.06-0.039-0.09-0.06c-0.137-0.09-0.292-0.179-0.447-0.259c-0.072-0.038-0.145-0.075-0.22-0.111
		c-0.095-0.048-0.195-0.096-0.281-0.133c-0.078-0.034-0.156-0.065-0.236-0.095c-0.153-0.058-0.31-0.106-0.438-0.143
		c-0.044-0.013-0.089-0.025-0.132-0.037c-0.182-0.048-0.355-0.088-0.54-0.12c-0.032-0.006-0.065-0.011-0.098-0.017
		c-0.127-0.019-0.253-0.034-0.381-0.045c-0.182-0.022-0.364-0.031-0.544-0.031H118.276c-0.195,0-0.394,0.012-0.592,0.037
		c-0.545,0.051-1.072,0.173-1.569,0.364c-0.049,0.018-0.1,0.038-0.148,0.059l-75.16,30.076c-0.207,0.083-0.412,0.182-0.606,0.293
		c-0.222,0.12-0.429,0.248-0.601,0.371c-0.182,0.126-0.35,0.257-0.478,0.369c-0.084,0.07-0.166,0.141-0.239,0.211
		c-0.076,0.07-0.147,0.144-0.219,0.219c-0.139,0.149-0.269,0.307-0.391,0.472c-0.077,0.101-0.151,0.203-0.222,0.308
		c-0.117,0.167-0.227,0.343-0.317,0.514L5.776,96.317c-1.001,1.847-0.957,4.121,0.117,5.94c1.07,1.807,3.038,2.941,5.137,2.96
		l25.991,0.231v94.563c0,0.7,0.129,1.404,0.366,2.046c0.05,0.139,0.13,0.339,0.191,0.474c0.276,0.602,0.644,1.146,1.094,1.621
		c0.106,0.115,0.218,0.222,0.332,0.323c0.151,0.142,0.366,0.329,0.653,0.525c0.323,0.221,0.62,0.366,0.809,0.45
		c0.164,0.08,0.322,0.148,0.457,0.197c0.697,0.265,1.414,0.397,2.132,0.397h163.613c0.752,0,1.488-0.138,2.203-0.417
		c0.02-0.008,0.04-0.016,0.059-0.024l75.195-30.094c0.127-0.05,0.252-0.107,0.374-0.167c0.116-0.059,0.232-0.121,0.346-0.189
		c0.401-0.226,0.767-0.488,1.071-0.767c0.204-0.184,0.385-0.375,0.564-0.589c0.285-0.337,0.534-0.708,0.739-1.099
		c0.126-0.236,0.233-0.472,0.3-0.658c0.265-0.696,0.398-1.413,0.398-2.132V78.73l37.055-22.668
		C326.548,55.102,327.583,53.504,327.815,51.68z"/>
	<g>
		<g>
			<g>
				<rect x="118.276" y="9.226" style="fill:#F9A467;" width="163.609" height="160.685"/>
				<path style="fill:#5E2C00;" d="M281.886,171.094H118.276c-0.65,0-1.183-0.528-1.183-1.184V9.226
					c0-0.652,0.532-1.183,1.183-1.183h163.609c0.657,0,1.184,0.53,1.184,1.183V169.91
					C283.069,170.565,282.543,171.094,281.886,171.094z M119.462,168.728h161.239V10.409H119.462V168.728z"/>
			</g>
			<g>
				<polygon style="fill:#FED095;" points="43.056,200.012 118.276,169.91 118.276,9.226 43.056,39.329 				"/>
				<path style="fill:#5E2C00;" d="M43.056,201.196c-0.235,0-0.468-0.07-0.665-0.203c-0.324-0.224-0.519-0.587-0.519-0.981V39.329
					c0-0.484,0.294-0.921,0.745-1.101l75.222-30.101c0.364-0.147,0.777-0.1,1.104,0.118c0.326,0.222,0.52,0.587,0.52,0.979V169.91
					c0,0.483-0.294,0.917-0.744,1.099l-75.223,30.102C43.351,201.168,43.203,201.196,43.056,201.196z M44.239,40.131v158.133
					l72.854-29.157V10.976L44.239,40.131z"/>
			</g>
			<g>
				<rect x="43.056" y="39.329" style="fill:#FED095;" width="163.613" height="160.683"/>
				<path style="fill:#5E2C00;" d="M206.669,201.196H43.056c-0.657,0-1.185-0.53-1.185-1.185V39.329
					c0-0.657,0.527-1.184,1.185-1.184h163.613c0.651,0,1.184,0.526,1.184,1.184v160.683
					C207.854,200.666,207.32,201.196,206.669,201.196z M44.239,198.828h161.246V40.514H44.239V198.828z"/>
			</g>
			<polygon style="fill:#FED095;" points="201.961,196.486 47.286,196.486 47.286,103.181 53.871,189.376 			"/>
			<polygon style="opacity:0.5;fill:#F9A467;" points="172.505,115.168 43.056,115.168 43.056,39.329 206.669,39.329 			"/>
			<g>
				<polygon style="fill:#F9A467;" points="206.669,200.012 281.886,169.91 281.886,9.226 206.669,39.329 				"/>
				<path style="fill:#5E2C00;" d="M206.669,201.196c-0.234,0-0.468-0.07-0.665-0.203c-0.324-0.224-0.519-0.587-0.519-0.981V39.329
					c0-0.484,0.293-0.921,0.744-1.101l75.219-30.101c0.359-0.147,0.776-0.1,1.104,0.118c0.324,0.222,0.517,0.587,0.517,0.979V169.91
					c0,0.483-0.293,0.917-0.744,1.099l-75.217,30.102C206.967,201.168,206.816,201.196,206.669,201.196z M207.854,40.131v158.133
					l72.848-29.157V10.976L207.854,40.131z"/>
			</g>
			<polygon style="opacity:0.5;fill:#F9A467;" points="245.844,104.619 281.886,83.826 281.886,9.226 206.669,39.329 			"/>
		</g>
		<rect x="118.276" y="20.452" style="opacity:0.5;fill:#F9A467;" width="163.609" height="18.877"/>
		<polygon style="opacity:0.5;fill:#F9A467;" points="118.276,49.977 118.276,20.452 44.497,49.977 		"/>
		<g>
			<polygon style="fill:#F9A467;" points="208.541,39.329 253.678,92.6 321.83,50.912 281.886,9.226 			"/>
			<path style="fill:#5E2C00;" d="M253.682,93.784c-0.341,0-0.674-0.145-0.903-0.415l-45.138-53.276
				c-0.246-0.288-0.337-0.676-0.248-1.044c0.091-0.369,0.349-0.673,0.701-0.814l73.345-30.103c0.447-0.188,0.967-0.075,1.304,0.275
				l39.942,41.687c0.246,0.26,0.365,0.616,0.32,0.973c-0.046,0.356-0.252,0.67-0.56,0.857L254.3,93.611
				C254.107,93.728,253.893,93.784,253.682,93.784z M210.498,39.805l43.43,51.259l66.03-40.394L281.59,10.627L210.498,39.805z"/>
		</g>
		<g>
			<polygon style="fill:#FED095;" points="43.056,39.329 11.083,99.184 168.82,100.593 206.669,39.329 			"/>
			<path style="fill:#5E2C00;" d="M168.82,101.777c-0.006,0-0.01,0-0.012,0l-157.734-1.41c-0.413-0.004-0.796-0.224-1.008-0.581
				c-0.211-0.356-0.222-0.796-0.025-1.16l31.971-59.855c0.204-0.385,0.604-0.625,1.044-0.625h163.613c0.427,0,0.824,0.23,1.03,0.604
				c0.213,0.375,0.201,0.835-0.024,1.201l-37.849,61.263C169.612,101.564,169.23,101.777,168.82,101.777z M13.05,98.019
				l155.115,1.385l36.382-58.89H43.764L13.05,98.019z"/>
		</g>
		<polygon style="fill:#FED095;" points="45.501,42.931 18.372,93.72 49.288,47.883 189.364,42.931 		"/>
	</g>
</g>
</svg>
