<?xml version="1.0" encoding="utf-8"?>
<!-- Generator: Adobe Illustrator 27.5.0, SVG Export Plug-In . SVG Version: 6.00 Build 0)  -->
<svg version="1.1" xmlns="http://www.w3.org/2000/svg" xmlns:xlink="http://www.w3.org/1999/xlink" x="0px" y="0px"
	 viewBox="0 0 750 500" style="enable-background:new 0 0 750 500;" xml:space="preserve">
<g id="BACKGROUND">
	<rect style="fill:#EAEBEC;" width="750" height="500"/>
</g>
<g id="OBJECTS">
	<g>
		<path style="fill:#7A7B7D;" d="M416.479,90.905l-1.889,2.285c-0.526,0.637-0.471,1.567,0.114,2.15
			c1.826,1.819,3.906,3.304,6.209,4.432c0.738,0.362,1.633,0.116,2.065-0.584l1.579-2.551c0.368-0.595,1.085-0.884,1.758-0.692
			c1.148,0.328,2.323,0.541,3.508,0.639c0.627,0.052,1.153,0.495,1.343,1.094l1.039,3.27c0.231,0.726,0.945,1.181,1.702,1.097
			c2.61-0.289,5.176-1.016,7.542-2.139c0.718-0.341,1.079-1.156,0.841-1.914l-0.947-3.023c-0.201-0.64,0.018-1.344,0.561-1.737
			c0.485-0.35,0.957-0.728,1.414-1.134c0.429-0.381,0.835-0.779,1.219-1.19c0.443-0.475,1.14-0.614,1.74-0.366l3.051,1.257
			c0.718,0.296,1.543,0.026,1.956-0.632c1.391-2.214,2.415-4.671,3.009-7.224c0.178-0.766-0.223-1.55-0.953-1.843l-3.002-1.208
			c-0.616-0.248-1.016-0.855-0.988-1.519c0.054-1.262-0.023-2.529-0.233-3.78c-0.119-0.707,0.256-1.403,0.91-1.697l2.675-1.201
			c0.759-0.341,1.121-1.21,0.843-1.994c-0.87-2.458-2.134-4.731-3.778-6.79c-0.467-0.584-1.265-0.787-1.94-0.466l-3.222,1.533
			c-0.548,0.26-1.206,0.196-1.67-0.194c-0.89-0.75-1.839-1.402-2.83-1.954c-0.615-0.342-0.92-1.055-0.756-1.74l0.696-2.905
			c0.191-0.797-0.257-1.609-1.033-1.875c-2.452-0.841-5.053-1.28-7.651-1.287c-0.768-0.002-1.433,0.537-1.577,1.292l-0.632,3.311
			c-0.12,0.626-0.601,1.131-1.227,1.25c-1.144,0.218-2.272,0.549-3.367,0.991c-0.632,0.255-1.355,0.058-1.788-0.467L420.794,59
			c-0.511-0.619-1.404-0.758-2.081-0.328c-1.077,0.683-2.102,1.455-3.059,2.306c-0.975,0.866-1.877,1.812-2.694,2.823
			c-0.507,0.628-0.468,1.537,0.096,2.114l2.152,2.204c0.481,0.493,0.591,1.242,0.262,1.847c-0.613,1.128-1.099,2.309-1.455,3.523
			c-0.196,0.666-0.808,1.122-1.502,1.126l-3.063,0.018c-0.81,0.005-1.485,0.619-1.572,1.424c-0.276,2.563-0.131,5.175,0.426,7.687
			c0.174,0.786,0.907,1.321,1.708,1.243l3.078-0.301c0.685-0.067,1.336,0.315,1.604,0.95c0.492,1.167,1.113,2.295,1.865,3.362
			C416.966,89.576,416.931,90.358,416.479,90.905z M419.271,77.647c3.103-15.134,22.818-13.976,24.13,1.418
			c0.014,0.165,0.004,0.339-0.03,0.501c-3.11,15.127-22.813,13.968-24.13-1.418C419.227,77.983,419.237,77.809,419.271,77.647z"/>
		<path style="fill:#D8D9DA;" d="M450.258,121.56l-1.522,1.841c-0.424,0.513-0.38,1.263,0.092,1.733
			c1.471,1.465,3.147,2.662,5.003,3.572c0.595,0.292,1.316,0.093,1.665-0.471l1.272-2.056c0.297-0.48,0.875-0.713,1.417-0.557
			c0.925,0.265,1.872,0.436,2.827,0.515c0.505,0.042,0.929,0.398,1.082,0.882l0.837,2.635c0.186,0.585,0.761,0.951,1.371,0.884
			c2.103-0.232,4.171-0.819,6.078-1.724c0.578-0.275,0.87-0.932,0.678-1.543l-0.764-2.436c-0.161-0.516,0.014-1.083,0.452-1.4
			c0.391-0.282,0.771-0.586,1.14-0.913c0.346-0.307,0.673-0.628,0.982-0.959c0.357-0.383,0.918-0.495,1.402-0.295l2.459,1.013
			c0.579,0.239,1.243,0.021,1.577-0.509c1.121-1.784,1.946-3.764,2.425-5.822c0.144-0.617-0.18-1.249-0.768-1.486l-2.419-0.973
			c-0.497-0.2-0.819-0.689-0.796-1.224c0.044-1.017-0.019-2.038-0.188-3.046c-0.095-0.57,0.206-1.131,0.733-1.368l2.156-0.968
			c0.612-0.274,0.903-0.975,0.679-1.607c-0.701-1.981-1.72-3.812-3.045-5.472c-0.376-0.471-1.019-0.635-1.563-0.376l-2.596,1.235
			c-0.442,0.21-0.972,0.158-1.346-0.157c-0.717-0.604-1.482-1.13-2.281-1.575c-0.495-0.276-0.742-0.851-0.609-1.402l0.561-2.341
			c0.154-0.642-0.207-1.297-0.832-1.511c-1.976-0.678-4.073-1.031-6.166-1.037c-0.619-0.002-1.155,0.433-1.271,1.041l-0.509,2.668
			c-0.096,0.505-0.484,0.911-0.989,1.007c-0.922,0.176-1.831,0.442-2.713,0.798c-0.509,0.205-1.092,0.047-1.441-0.376l-1.594-1.932
			c-0.412-0.499-1.131-0.611-1.677-0.265c-0.868,0.55-1.694,1.173-2.465,1.859c-0.785,0.698-1.513,1.46-2.171,2.274
			c-0.409,0.506-0.377,1.238,0.077,1.704l1.735,1.776c0.388,0.397,0.476,1.001,0.211,1.488c-0.494,0.909-0.885,1.861-1.173,2.839
			c-0.158,0.537-0.651,0.905-1.211,0.908l-2.468,0.014c-0.653,0.004-1.197,0.499-1.267,1.148c-0.222,2.065-0.105,4.171,0.343,6.194
			c0.141,0.633,0.731,1.065,1.376,1.002l2.48-0.243c0.552-0.054,1.077,0.254,1.293,0.765c0.397,0.941,0.897,1.85,1.503,2.709
			C450.65,120.49,450.623,121.119,450.258,121.56z M452.508,110.876c2.501-12.196,18.388-11.263,19.446,1.142
			c0.011,0.133,0.003,0.273-0.024,0.404c-2.506,12.19-18.385,11.257-19.446-1.142C452.473,111.146,452.481,111.006,452.508,110.876z
			"/>
		<path style="fill:#B9BABB;" d="M417.497,125.725l-1.058,1.28c-0.295,0.357-0.264,0.878,0.064,1.204
			c1.023,1.019,2.188,1.851,3.478,2.483c0.414,0.203,0.914,0.065,1.157-0.327l0.884-1.429c0.206-0.333,0.608-0.495,0.985-0.387
			c0.643,0.184,1.301,0.303,1.965,0.358c0.351,0.029,0.646,0.277,0.752,0.613l0.582,1.832c0.129,0.407,0.529,0.661,0.953,0.615
			c1.462-0.162,2.899-0.569,4.225-1.198c0.402-0.191,0.605-0.648,0.471-1.073l-0.531-1.693c-0.112-0.359,0.01-0.753,0.314-0.973
			c0.272-0.196,0.536-0.408,0.792-0.635c0.24-0.214,0.468-0.436,0.683-0.667c0.248-0.266,0.638-0.344,0.975-0.205l1.709,0.704
			c0.402,0.166,0.864,0.014,1.096-0.354c0.779-1.24,1.353-2.617,1.685-4.047c0.1-0.429-0.125-0.868-0.534-1.033l-1.681-0.677
			c-0.345-0.139-0.569-0.479-0.553-0.851c0.03-0.707-0.013-1.417-0.13-2.118c-0.066-0.396,0.143-0.786,0.51-0.951l1.499-0.673
			c0.425-0.191,0.628-0.678,0.472-1.117c-0.488-1.377-1.196-2.65-2.117-3.803c-0.261-0.327-0.708-0.441-1.087-0.261l-1.805,0.859
			c-0.307,0.146-0.676,0.11-0.935-0.109c-0.499-0.42-1.03-0.785-1.586-1.095c-0.344-0.192-0.516-0.591-0.423-0.975l0.39-1.628
			c0.107-0.446-0.144-0.901-0.578-1.05c-1.374-0.471-2.831-0.717-4.286-0.721c-0.43-0.001-0.803,0.301-0.883,0.723l-0.354,1.855
			c-0.067,0.351-0.336,0.633-0.688,0.7c-0.641,0.122-1.272,0.307-1.886,0.555c-0.354,0.143-0.759,0.033-1.002-0.262l-1.108-1.343
			c-0.286-0.347-0.786-0.425-1.166-0.184c-0.603,0.383-1.178,0.815-1.714,1.292c-0.546,0.485-1.051,1.015-1.509,1.581
			c-0.284,0.352-0.262,0.861,0.053,1.184l1.206,1.235c0.27,0.276,0.331,0.696,0.147,1.035c-0.343,0.632-0.615,1.293-0.815,1.973
			c-0.11,0.373-0.452,0.629-0.842,0.631l-1.716,0.01c-0.454,0.003-0.832,0.347-0.881,0.798c-0.154,1.436-0.073,2.899,0.239,4.306
			c0.098,0.44,0.508,0.74,0.957,0.696l1.724-0.169c0.384-0.037,0.749,0.176,0.898,0.532c0.276,0.654,0.623,1.286,1.045,1.883
			C417.77,124.981,417.75,125.419,417.497,125.725z M419.061,118.298c1.738-8.478,12.782-7.829,13.517,0.794
			c0.008,0.092,0.002,0.19-0.017,0.281c-1.742,8.474-12.78,7.825-13.517-0.794C419.036,118.486,419.042,118.389,419.061,118.298z"/>
		<path style="fill:#B9BABB;" d="M103.036,305.426l-1.058,1.28c-0.295,0.357-0.264,0.878,0.064,1.205
			c1.023,1.019,2.188,1.85,3.478,2.483c0.414,0.203,0.915,0.065,1.157-0.327l0.884-1.429c0.206-0.333,0.608-0.495,0.985-0.387
			c0.643,0.184,1.301,0.303,1.965,0.358c0.351,0.029,0.646,0.277,0.752,0.613l0.582,1.832c0.129,0.407,0.529,0.661,0.953,0.615
			c1.462-0.161,2.899-0.569,4.225-1.198c0.402-0.191,0.605-0.648,0.471-1.073l-0.531-1.693c-0.112-0.359,0.01-0.753,0.314-0.973
			c0.272-0.196,0.536-0.408,0.792-0.635c0.24-0.214,0.468-0.436,0.683-0.667c0.248-0.266,0.638-0.344,0.975-0.205l1.709,0.704
			c0.402,0.166,0.864,0.014,1.096-0.354c0.779-1.24,1.353-2.617,1.686-4.047c0.1-0.429-0.125-0.868-0.534-1.033l-1.681-0.677
			c-0.345-0.139-0.569-0.479-0.553-0.851c0.03-0.707-0.013-1.417-0.131-2.118c-0.066-0.396,0.144-0.786,0.51-0.951l1.499-0.673
			c0.425-0.191,0.628-0.678,0.472-1.117c-0.488-1.377-1.196-2.65-2.117-3.803c-0.261-0.327-0.708-0.441-1.087-0.261l-1.805,0.858
			c-0.307,0.146-0.675,0.11-0.935-0.109c-0.499-0.42-1.03-0.785-1.585-1.095c-0.344-0.192-0.516-0.591-0.424-0.974l0.39-1.628
			c0.107-0.447-0.144-0.901-0.578-1.05c-1.374-0.471-2.831-0.717-4.286-0.721c-0.43-0.001-0.803,0.301-0.883,0.723l-0.354,1.855
			c-0.067,0.351-0.337,0.633-0.688,0.7c-0.641,0.122-1.272,0.307-1.886,0.555c-0.354,0.143-0.759,0.033-1.002-0.262l-1.108-1.343
			c-0.286-0.347-0.786-0.425-1.166-0.184c-0.603,0.383-1.178,0.815-1.714,1.292c-0.546,0.485-1.051,1.015-1.509,1.581
			c-0.284,0.352-0.262,0.861,0.053,1.184l1.206,1.235c0.27,0.276,0.331,0.696,0.147,1.035c-0.343,0.632-0.615,1.293-0.815,1.973
			c-0.11,0.373-0.452,0.629-0.842,0.631l-1.716,0.01c-0.454,0.003-0.832,0.347-0.881,0.798c-0.154,1.435-0.073,2.899,0.239,4.306
			c0.098,0.44,0.508,0.74,0.957,0.696l1.724-0.169c0.384-0.038,0.749,0.176,0.899,0.532c0.276,0.654,0.623,1.286,1.045,1.883
			C103.309,304.682,103.289,305.12,103.036,305.426z M104.6,297.999c1.738-8.478,12.782-7.829,13.517,0.794
			c0.008,0.092,0.002,0.19-0.017,0.281c-1.742,8.474-12.78,7.825-13.517-0.794C104.575,298.187,104.581,298.09,104.6,297.999z"/>
		<path style="fill:#B9BABB;" d="M619.035,296.705l-1.058,1.28c-0.295,0.357-0.264,0.878,0.064,1.205
			c1.023,1.019,2.188,1.85,3.478,2.483c0.414,0.203,0.914,0.065,1.157-0.327l0.884-1.429c0.206-0.333,0.608-0.495,0.985-0.387
			c0.643,0.184,1.301,0.303,1.965,0.358c0.351,0.029,0.646,0.277,0.752,0.613l0.582,1.832c0.129,0.407,0.529,0.661,0.953,0.615
			c1.462-0.161,2.899-0.569,4.225-1.198c0.402-0.191,0.605-0.648,0.471-1.073l-0.531-1.693c-0.112-0.359,0.01-0.753,0.314-0.973
			c0.272-0.196,0.536-0.408,0.792-0.635c0.24-0.214,0.468-0.436,0.683-0.667c0.248-0.266,0.638-0.344,0.975-0.205l1.709,0.704
			c0.403,0.166,0.864,0.014,1.096-0.354c0.779-1.24,1.353-2.617,1.686-4.047c0.1-0.429-0.125-0.868-0.534-1.033l-1.681-0.677
			c-0.345-0.139-0.569-0.479-0.554-0.851c0.03-0.707-0.013-1.417-0.13-2.118c-0.066-0.396,0.143-0.786,0.51-0.951l1.499-0.673
			c0.425-0.191,0.628-0.678,0.472-1.117c-0.488-1.377-1.196-2.65-2.117-3.803c-0.261-0.327-0.708-0.441-1.087-0.261l-1.805,0.858
			c-0.307,0.146-0.676,0.11-0.935-0.109c-0.499-0.42-1.03-0.785-1.585-1.095c-0.344-0.192-0.516-0.591-0.424-0.974l0.39-1.628
			c0.107-0.446-0.144-0.901-0.578-1.05c-1.374-0.471-2.831-0.717-4.286-0.721c-0.43-0.001-0.803,0.301-0.883,0.723l-0.354,1.855
			c-0.067,0.351-0.336,0.633-0.688,0.7c-0.641,0.122-1.273,0.307-1.886,0.555c-0.354,0.143-0.759,0.033-1.002-0.262l-1.108-1.343
			c-0.286-0.347-0.786-0.425-1.166-0.184c-0.603,0.383-1.178,0.815-1.714,1.292c-0.546,0.485-1.051,1.015-1.509,1.581
			c-0.284,0.352-0.262,0.861,0.054,1.184l1.206,1.235c0.27,0.276,0.331,0.696,0.147,1.035c-0.343,0.632-0.615,1.293-0.815,1.973
			c-0.11,0.373-0.452,0.629-0.842,0.631l-1.716,0.01c-0.454,0.003-0.832,0.347-0.881,0.798c-0.154,1.435-0.073,2.899,0.239,4.306
			c0.098,0.44,0.508,0.74,0.957,0.696l1.724-0.169c0.384-0.038,0.749,0.176,0.898,0.532c0.276,0.654,0.624,1.286,1.045,1.883
			C619.307,295.961,619.288,296.399,619.035,296.705z M620.599,289.278c1.738-8.478,12.782-7.829,13.517,0.794
			c0.008,0.092,0.002,0.19-0.017,0.281c-1.742,8.474-12.78,7.825-13.517-0.794C620.574,289.466,620.58,289.369,620.599,289.278z"/>
		<path style="fill:#B9BABB;" d="M88.237,283.831l-0.737,2.211c-0.205,0.616,0.1,1.282,0.694,1.544
			c1.854,0.815,3.8,1.313,5.809,1.487c0.644,0.056,1.229-0.378,1.348-1.014l0.433-2.318c0.101-0.541,0.545-0.956,1.093-1.006
			c0.934-0.085,1.856-0.262,2.752-0.527c0.474-0.14,0.985,0.035,1.295,0.421l1.689,2.102c0.375,0.466,1.027,0.597,1.559,0.321
			c1.831-0.952,3.506-2.213,4.921-3.708c0.43-0.454,0.463-1.154,0.074-1.642l-1.552-1.947c-0.328-0.412-0.368-0.99-0.081-1.432
			c0.256-0.394,0.495-0.805,0.715-1.232c0.206-0.401,0.391-0.808,0.556-1.218c0.19-0.474,0.661-0.773,1.172-0.762l2.593,0.055
			c0.61,0.013,1.138-0.419,1.255-1.019c0.392-2.017,0.445-4.109,0.156-6.149c-0.087-0.612-0.604-1.073-1.221-1.081l-2.543-0.034
			c-0.522-0.007-0.987-0.338-1.155-0.833c-0.318-0.94-0.735-1.847-1.243-2.705c-0.287-0.485-0.21-1.102,0.186-1.502l1.62-1.639
			c0.46-0.465,0.478-1.205,0.052-1.701c-1.335-1.555-2.907-2.862-4.696-3.905c-0.508-0.296-1.15-0.218-1.554,0.208l-1.927,2.037
			c-0.328,0.347-0.828,0.486-1.279,0.332c-0.865-0.297-1.745-0.506-2.629-0.629c-0.548-0.076-0.974-0.512-1.048-1.061l-0.314-2.327
			c-0.086-0.638-0.645-1.106-1.289-1.081c-2.036,0.079-4.067,0.496-5.973,1.228c-0.564,0.216-0.898,0.8-0.789,1.394l0.477,2.606
			c0.09,0.493-0.12,0.999-0.545,1.264c-0.777,0.484-1.509,1.046-2.187,1.681c-0.39,0.366-0.977,0.427-1.443,0.165l-2.131-1.196
			c-0.55-0.309-1.244-0.158-1.619,0.35c-0.596,0.806-1.128,1.663-1.588,2.559c-0.468,0.911-0.862,1.861-1.174,2.833
			c-0.194,0.604,0.093,1.259,0.67,1.523l2.203,1.005c0.493,0.225,0.785,0.743,0.716,1.28c-0.129,1-0.15,2.004-0.067,2.995
			c0.046,0.544-0.274,1.052-0.782,1.252l-2.24,0.882c-0.592,0.233-0.913,0.875-0.748,1.49c0.525,1.957,1.373,3.831,2.493,5.513
			c0.351,0.527,1.04,0.711,1.605,0.427l2.17-1.094c0.483-0.243,1.069-0.148,1.445,0.241c0.692,0.716,1.467,1.367,2.321,1.935
			C88.216,282.72,88.413,283.302,88.237,283.831z M86.521,273.321c-2.019-11.973,12.76-16.719,18.089-5.807
			c0.057,0.117,0.099,0.247,0.121,0.376c2.012,11.97-12.759,16.712-18.089,5.807C86.584,273.58,86.543,273.449,86.521,273.321z"/>
		<path style="fill:#B9BABB;" d="M636.501,339.726l-0.737,2.211c-0.205,0.616,0.1,1.282,0.694,1.544
			c1.854,0.815,3.8,1.313,5.808,1.487c0.644,0.056,1.23-0.378,1.348-1.014l0.433-2.318c0.101-0.541,0.545-0.956,1.093-1.006
			c0.934-0.085,1.856-0.262,2.752-0.527c0.474-0.14,0.985,0.035,1.295,0.421l1.689,2.102c0.375,0.466,1.027,0.597,1.559,0.321
			c1.831-0.952,3.505-2.213,4.921-3.708c0.43-0.453,0.463-1.154,0.074-1.642l-1.552-1.947c-0.328-0.412-0.368-0.99-0.081-1.432
			c0.256-0.394,0.495-0.805,0.715-1.232c0.206-0.401,0.391-0.808,0.556-1.219c0.19-0.474,0.661-0.773,1.172-0.762l2.593,0.055
			c0.61,0.013,1.138-0.419,1.255-1.018c0.392-2.017,0.445-4.109,0.156-6.149c-0.087-0.612-0.603-1.073-1.221-1.081l-2.543-0.034
			c-0.522-0.007-0.987-0.338-1.155-0.833c-0.318-0.94-0.735-1.847-1.243-2.705c-0.287-0.485-0.211-1.101,0.186-1.502l1.62-1.639
			c0.46-0.465,0.478-1.205,0.052-1.701c-1.335-1.555-2.907-2.862-4.696-3.905c-0.508-0.296-1.15-0.219-1.554,0.208l-1.927,2.037
			c-0.328,0.347-0.828,0.486-1.279,0.332c-0.865-0.297-1.745-0.506-2.629-0.629c-0.548-0.076-0.974-0.512-1.048-1.061l-0.314-2.327
			c-0.086-0.638-0.645-1.106-1.289-1.081c-2.036,0.079-4.067,0.496-5.973,1.228c-0.564,0.216-0.898,0.8-0.789,1.394l0.477,2.606
			c0.09,0.493-0.12,0.999-0.545,1.264c-0.777,0.484-1.51,1.046-2.187,1.681c-0.391,0.366-0.977,0.427-1.443,0.165l-2.131-1.196
			c-0.55-0.309-1.244-0.158-1.619,0.35c-0.596,0.806-1.128,1.663-1.588,2.559c-0.469,0.911-0.862,1.861-1.173,2.833
			c-0.194,0.604,0.093,1.259,0.67,1.522l2.203,1.005c0.493,0.225,0.785,0.743,0.716,1.28c-0.129,1-0.15,2.004-0.067,2.995
			c0.046,0.544-0.273,1.052-0.782,1.252l-2.24,0.882c-0.592,0.233-0.913,0.875-0.748,1.49c0.525,1.956,1.373,3.83,2.493,5.513
			c0.351,0.527,1.04,0.711,1.605,0.427l2.17-1.094c0.483-0.243,1.069-0.148,1.445,0.241c0.692,0.716,1.467,1.367,2.321,1.935
			C636.48,338.614,636.677,339.197,636.501,339.726z M634.785,329.216c-2.019-11.973,12.76-16.719,18.089-5.808
			c0.057,0.117,0.099,0.247,0.121,0.376c2.012,11.97-12.759,16.712-18.089,5.807C634.849,329.474,634.807,329.344,634.785,329.216z"
			/>
	</g>
	<g>
		<g>
			<rect x="121.685" y="322.688" style="fill:#18293D;" width="77.846" height="148.035"/>
			<rect x="144.656" y="322.688" style="fill:#00AC1B;" width="77.846" height="148.035"/>
		</g>
		<g>
			<rect x="246.749" y="212.937" style="fill:#18293D;" width="77.846" height="257.785"/>
			<rect x="269.72" y="212.937" style="fill:#1BA1C5;" width="77.846" height="257.785"/>
		</g>
		<g>
			<rect x="365.432" y="154.234" style="fill:#18293D;" width="74.018" height="316.489"/>
			<rect x="388.403" y="154.234" style="fill:#EE3A6B;" width="77.846" height="316.489"/>
		</g>
		<g>
			<rect x="493.049" y="30.148" style="fill:#18293D;" width="74.018" height="440.574"/>
			<polyline style="fill:#FD851A;" points="516.02,30.148 593.866,30.148 593.866,470.723 516.02,470.723 			"/>
		</g>
		<g>
			<polyline style="fill:none;stroke:#EE3A6B;stroke-width:2.1855;stroke-miterlimit:10;" points="178.193,371.819 319.847,231.441 
				453.845,231.441 581.461,42.569 			"/>
			<polygon style="fill:#EE3A6B;" points="585.148,57.599 585.148,41.151 568.7,41.151 			"/>
			<circle style="fill:#EE3A6B;" cx="179.469" cy="367.991" r="6.381"/>
		</g>
		<line style="fill:none;stroke:#18293D;stroke-miterlimit:10;" x1="67.067" y1="471.013" x2="682.933" y2="471.013"/>
	</g>
	<g>
		<g>
			<path style="fill:#18293D;" d="M565.3,265.885c-0.244-1.961-19.38-57.656-4.363-68.482c4.401-3.173,11.329-1.302,16.228,1.8
				c7.927,5.02,41.485,64.876,39.008,70.8L565.3,265.885z"/>
			<path style="fill:none;stroke:#EE3A6B;stroke-width:0.9739;stroke-miterlimit:10;" d="M560.319,224.745
				c0.651-2.18-1.357-9.938-1.357-9.938s-5.885,5.402-6.536,7.582c-0.651,2.18,0.589,4.474,2.768,5.125
				C557.374,228.164,559.668,226.924,560.319,224.745z"/>
			<path style="fill:#FFA589;" d="M575.123,215.339c-0.008,0.261,0.199,0.477,0.461,0.476c1.093-0.005,3.614-0.238,3.97,2.62
				c0.36,2.889-2.393,4.515-4.049,4.605c-0.478,0.026-1.581,0.124-1.905,0.477c-0.996,1.084-1.464,3.452-2.231,6.403
				c-1.693,6.519,3.428,9.497,3.428,9.497s-17.076,8.396-16.918-0.02c0,0,1.35-15.482,1.27-15.562
				c-1.333-1.333-6.51-1.905-3.255-12.942c3.015-10.223,10.516-9.496,12.423-9.158C569.925,202.019,575.51,202.37,575.123,215.339z"
				/>
			<path style="fill:#FFA589;" d="M575.576,215.129c-0.008,0.261,0.199,0.477,0.461,0.476c1.093-0.005,3.614-0.238,3.97,2.62
				c0.36,2.889-2.393,4.515-4.049,4.605c-0.478,0.026-1.581,0.124-1.906,0.477c-0.996,1.084-1.464,3.452-2.231,6.403
				c-1.693,6.519,3.428,9.497,3.428,9.497s-17.076,8.396-16.917-0.02c0,0,1.35-15.482,1.27-15.562
				c-1.333-1.333-6.51-1.906-3.255-12.942c3.015-10.223,10.516-9.496,12.423-9.158C570.378,201.81,575.963,202.16,575.576,215.129z"
				/>
			<path style="fill:#18293D;" d="M560.026,198.966c0,0,0.561,7.717,4.557,9.245c4.427,1.693,10.756,2.878,11.224,7.449
				C575.807,215.66,584.115,188.419,560.026,198.966z"/>
			<g>
				<path style="fill:#FD855E;" d="M578.312,219.263c0,0-1.717-3.622-3.896,1.231"/>
				<path style="fill:#FF916C;" d="M565.63,215.352c-1.417-0.032-2.591,1.091-2.623,2.507c-0.032,1.417,1.091,2.591,2.507,2.623
					c1.417,0.032,2.591-1.091,2.623-2.507C568.169,216.558,567.047,215.383,565.63,215.352z"/>
				<path style="fill:#FF916C;" d="M554.94,216.309c1.174-0.213,2.077-1.227,2.105-2.467c0.021-0.956-0.482-1.801-1.247-2.26
					C555.798,211.583,554.702,214.421,554.94,216.309z"/>
				<polygon style="fill:#FD855E;" points="560.728,211.065 559.65,214.87 558.291,214.27 				"/>
				<path d="M565.419,211.247c0.046-0.413,0.174-0.94-0.031-1.242c-0.17-0.286-0.832-0.697-0.994-0.807
					c-0.558-0.381-1.162-0.288-1.21,0.293c0.187,0.327,0.977,0.249,1.622,0.865C565.104,210.64,565.216,210.962,565.419,211.247z"/>
				<path d="M557.608,208.067c-0.347,0.098,0.323-0.458,0.808-0.619c0.429-0.181,1.04-0.05,1.292,0
					c0.665,0.131,0.969,0.617,0.456,0.996C559.607,208.854,558.956,207.688,557.608,208.067z"/>
				<path d="M562.857,213.154c-0.189,0.468-0.525,0.772-0.752,0.681c-0.227-0.092-0.258-0.545-0.069-1.012
					c0.189-0.468,0.525-0.772,0.752-0.681C563.015,212.233,563.046,212.686,562.857,213.154z"/>
				<path d="M559.234,211.428c-0.18,0.446-0.502,0.738-0.718,0.65c-0.216-0.088-0.246-0.52-0.066-0.967
					c0.18-0.447,0.502-0.738,0.718-0.65C559.385,210.549,559.414,210.982,559.234,211.428z"/>
				<path d="M559.148,223.834c0,0,4.875,0.931,7.336,0.773C568.946,224.448,558.322,230.74,559.148,223.834z"/>
				<g>
					<path style="fill:#FF7872;" d="M557.065,216.307c0,0-0.195,1.475,0.646,1.795c1.508,0.575,3.034-0.853,3.034-0.853
						L557.065,216.307z"/>
					<path style="fill:#FF6B7F;" d="M560.871,217.24c0,0-3.016,0.574-3.806-0.934c0.072-0.144,0.805-0.611,1.364-0.359
						C559.06,216.231,560.871,217.24,560.871,217.24z"/>
				</g>
			</g>
			<path style="fill:none;stroke:#EE3A6B;stroke-width:1.0209;stroke-miterlimit:10;" d="M575.457,230.767
				c0.661-2.025-1.6-9.711-1.6-9.711s-5.071,5.29-5.733,7.315c-0.661,2.025,0.444,4.203,2.469,4.864
				C572.618,233.897,574.796,232.792,575.457,230.767z"/>
		</g>
		<ellipse style="fill:#DCF5FA;" cx="586.588" cy="470.085" rx="50.903" ry="2.928"/>
		<g>
			<path style="fill:#FF8667;" d="M561.823,449.149l-1.773,12.593c0,0-2.844,8.351-5.485,5.119
				c-2.641-3.233-5.255-4.942-5.255-4.942l-0.867-13.092L561.823,449.149z"/>
			<path style="fill:#D65636;" d="M554.911,449.621l-0.457,17.128c0,0,8.359,1.255,5.253-4.339l1.827-11.875L554.911,449.621z"/>
			<path style="fill:#FF8667;" d="M603.913,448.182l3.918,12.562c0,0,2.982,2.615,4.059,2.548c1.958-0.123,2.985-3.502,2.985-3.502
				l0.322-11.607H603.913z"/>
			<path style="fill:#D65636;" d="M609.558,444.825l2.741,20.782c0,0,5.618,1.483,2.512-4.111l0.685-15.986L609.558,444.825z"/>
			<path style="fill:#18293D;" d="M548.439,461.854l-10.546,8.549c-0.539,0.401-0.154,1.076,0.617,1.082l15.568,0.126
				c0.375,0.003,0.711-0.167,0.836-0.424l1.174-2.407c0.339-0.696,1.015-0.752,0.953-0.015l0.575,2.324
				c-0.031,0.366,3.691,0.266,3.724-0.067c0.204-2.067-0.226-8.824-0.597-10.706c-0.053-0.27-0.33-0.486-0.698-0.539l-0.002,0
				c-0.33-0.048-0.668,0.044-0.87,0.24c-1.05,1.017-4.411,4.076-6.201,3.457c-1.2-0.415-2.755-1.158-3.24-1.586
				C549.404,461.596,548.799,461.586,548.439,461.854z"/>
			<path style="fill:#18293D;" d="M615.02,459.354l5.989,10.031c0.639,0.975,0.283,2.14-0.872,2.827
				c-1.873,1.115-3.403,3.338-4.581,3.371c-2.129,0.059-5.438-2.183-7.367-3.024c-1.294-0.564-2.308-1.391-2.148-2.474l1.489-10.062
				c0.018-0.124,0.238-0.17,0.346-0.072l2.293,2.079c0.752,0.681,2.79,0.59,3.296-0.226c0.361-0.582,1.209-2.458,1.209-2.458
				C614.75,459.246,614.953,459.251,615.02,459.354z"/>
		</g>
		<g>
			<path style="fill:#EE3A6B;" d="M583.256,282.706c4.835,8.548,7.391,14.808,10.169,25.676
				c3.222,12.603,21.203,119.106,22.723,142.03c-3.972,0.957-9.991,0.53-12.501,0.391c-7.984-22.879-31.647-96.793-35.071-111.207
				c-0.526-2.216-3.95-1.729-3.683,0.532c1.943,16.459-1.093,83.329-2.655,111.065c-2.083,1.06-12.036,0.865-14.442,0.564
				c-2.616-28.231-16.5-135.104,4.46-169.747C561.841,280.689,573.538,282.417,583.256,282.706z"/>
			<path style="fill:none;stroke:#FFFFFF;stroke-width:0.3736;stroke-miterlimit:10;" d="M553.508,285.764
				c0,0-8.537,21.127-8.537,50.945c0,29.818,5.549,105.499,5.549,105.499"/>
			
				<line style="fill:none;stroke:#FFFFFF;stroke-width:0.3736;stroke-miterlimit:10;" x1="609.117" y1="441.818" x2="578.53" y2="284.791"/>
			<path style="fill:none;stroke:#FFFFFF;stroke-width:0.3736;stroke-miterlimit:10;" d="M572.553,285.625
				c0,0,0.29,27.312,12.549,25.159"/>
			<path style="opacity:0.21;" d="M552.396,286.32l39.461,29.714c0,0,1.648-16.035-5.363-29.197L552.396,286.32z"/>
			<path style="fill:none;stroke:#FFFFFF;stroke-width:0.3736;stroke-miterlimit:10;" d="M547.114,312.037
				c12.258,2.154,10.287-25.022,10.287-25.022"/>
		</g>
		<path style="fill:#FF281A;" d="M570.74,236.069c0,0,2.501-0.723,2.086-0.19c-0.414,0.532-1.302,1.124-2.19,1.715L570.74,236.069z"
			/>
		
			<line style="fill:none;stroke:#FFFFFF;stroke-width:0.3736;stroke-miterlimit:10;" x1="562.63" y1="442.599" x2="546.628" y2="442.232"/>
		
			<line style="fill:none;stroke:#FFFFFF;stroke-width:0.3736;stroke-miterlimit:10;" x1="615.367" y1="442.599" x2="600.913" y2="442.209"/>
		<path style="fill:#FF8965;" d="M594.988,333.94c0-0.209,0.209-2.44,0.209-2.44l-1.011,3.206L594.988,333.94z"/>
		<path style="fill:#FF8965;" d="M588.662,337.112l-0.706,0.549c0,0,0.732,1.333,1.046,1.229
			C589.002,338.889,588.479,338.262,588.662,337.112z"/>
		<g>
			<path style="fill:#FFA589;" d="M514.42,259.106c0,0,25.794,35.769,31.839,31.505c0,0,6.934-4.895,3.447-24.878
				c-0.007-1.941-0.017-3.286,0.052-3.591c0,0,1.499-19.73,4.742-23.816c0.356-0.448,1.431-1.282,1.288-1.318
				c-9.905-2.476-13.694,22.424-16.425,33.943c-0.113,0.477-19.02-17.935-19.02-17.935s-9.904-13.094-10.594-12.346
				c-1.001,1.085,2.836,6.924,2.836,6.924s-0.25,0.667-1.001,1.001c-0.751,0.334-1.168,0.834-1.418,1.835
				c-0.25,1.001-1.251,1.585-1.418,2.169C508.581,253.184,512.307,257.577,514.42,259.106z"/>
			<path style="fill:#FFA589;" d="M520.009,252.933c0,0-2.002-5.673-2.836-5.506c-0.834,0.167-4.505,1.752-4.421,3.17
				c0.083,1.418,3.253,0.25,3.253,0.25s-0.584,3.17,1.001,3.587C518.591,254.852,520.009,252.933,520.009,252.933z"/>
			<g>
				<path style="fill:#FF916C;" d="M515.087,250.598c0,0,0.083,1.418-1.085,1.668c0,0-0.25,1.502-1.752,1.168
					c0,0,0.417,0.667-0.501,0.834C511.751,254.268,515.671,258.522,515.087,250.598z"/>
				<g>
					<path style="fill:#FD855E;" d="M515.849,247.866c-0.687,0.5-1.399,0.933-2.114,1.356c-0.335,0.228-0.766,0.394-1.03,0.616
						c-0.136,0.109-0.238,0.24-0.255,0.329c-0.015,0.086,0.002,0.147,0.1,0.242c0.198,0.201,0.592,0.372,0.949,0.452
						c0.373,0.092,0.774,0.102,1.182,0.139c0.195,0.043,0.413-0.062,0.756,0.182c0.169,0.16,0.136,0.398,0.107,0.49l-0.081,0.305
						c-0.129,0.401-0.237,0.805-0.386,1.202l-0.037-0.007l0.228-1.232c0.015-0.196,0.142-0.436,0.005-0.576
						c-0.155-0.118-0.388-0.064-0.591-0.073c-0.82,0.002-1.728-0.05-2.398-0.617c-0.159-0.147-0.248-0.389-0.18-0.605
						c0.064-0.215,0.226-0.374,0.391-0.503c0.342-0.255,0.735-0.402,1.102-0.603l2.236-1.132L515.849,247.866z"/>
				</g>
				<g>
					<path style="fill:#FD855E;" d="M512.515,247.415c0.205,0.019,0.358,0.086,0.504,0.16c0.145,0.074,0.25,0.184,0.376,0.276
						c0.088,0.126,0.198,0.232,0.267,0.376c0.07,0.143,0.131,0.293,0.141,0.49l-0.028,0.025c-0.445-0.42-0.874-0.853-1.288-1.301
						L512.515,247.415z"/>
				</g>
				<g>
					<path style="fill:#FD855E;" d="M510.822,249.521c0.385,0.244,0.726,0.514,1.073,0.772c0.346,0.258,0.667,0.538,1.021,0.779
						c0.317,0.277,0.683,0.535,1,0.78c0.156,0.119,0.321,0.211,0.495,0.241c0.18,0.048,0.379,0.025,0.562-0.1l0.03,0.022
						c-0.295,0.386-0.864,0.315-1.227,0.093c-0.383-0.22-0.739-0.475-1.09-0.739c-0.691-0.542-1.325-1.154-1.891-1.824
						L510.822,249.521z"/>
				</g>
				<g>
					<path style="fill:#FD855E;" d="M514.089,252.269c0.024,0.498,0.004,1.117-0.56,1.533c-0.271,0.205-0.653,0.21-0.945,0.138
						c-0.302-0.073-0.557-0.213-0.788-0.368c-0.435-0.355-0.779-0.734-1.089-1.144c-0.305-0.413-0.591-0.839-0.805-1.318
						l0.029-0.023c0.318,0.392,0.65,0.773,0.992,1.145c0.345,0.367,0.689,0.742,1.094,1.036c0.386,0.287,0.919,0.532,1.37,0.279
						c0.441-0.255,0.57-0.806,0.667-1.284L514.089,252.269z"/>
				</g>
				<g>
					<path style="fill:#FD855E;" d="M512.353,253.183c0.092,0.324,0.066,0.663-0.028,0.987c-0.052,0.163-0.101,0.334-0.249,0.507
						c-0.062,0.082-0.251,0.179-0.321,0.195c-0.093,0.032-0.188,0.053-0.283,0.067c-0.378,0.082-0.759-0.105-1.015-0.202
						c-0.128-0.073-0.282-0.136-0.444-0.254c-0.151-0.131-0.233-0.288-0.279-0.453l0.028-0.025c0.194,0.253,0.479,0.363,0.785,0.427
						c0.295,0.098,0.591,0.173,0.894,0.153c0.147-0.015,0.309-0.034,0.41-0.138c0.104-0.105,0.179-0.241,0.242-0.379
						c0.12-0.279,0.213-0.581,0.222-0.884L512.353,253.183z"/>
				</g>
			</g>
		</g>
		<path style="fill:#FFFFFF;" d="M557.305,235.119c0,0-7.932,0.991-10.49,6.219c-2.558,5.228-8.231,28.585-8.231,28.585
			l-15.794-15.127l-6.117,11.123c0,0,22.468,28.363,28.919,26.361S557.38,242.246,557.305,235.119z"/>
		<g>
			<path style="fill:#FFFFFF;" d="M557.783,234.115c0.279,0.676-10.976,24.283-10.643,30.919c0.335,6.686,0.83,22.375,0.475,23.38
				c0,0,9.258-0.348,37.875-4.854c1.37-12.346,1.068-33.857-1.887-42.141c0,0-9.017-2.566-12.321-6.587
				C571.283,234.833,562.635,240.691,557.783,234.115z"/>
		</g>
		<g>
			<path style="fill:#FAF1E6;" d="M583.604,241.42c0,0-1.459-0.419-3.409-1.172c-6.741,16.279-15.635,31.599-23.548,47.337
				c5.936-0.67,15.179-1.872,28.844-4.024C586.86,271.215,586.559,249.703,583.604,241.42z"/>
		</g>
		<g>
			<path style="fill:#00AC1B;" d="M562.89,288.164l-17.319-21.159l-18.433,0.153l14.139,19.489l8.334,1.19
				C550.134,287.86,562.89,288.164,562.89,288.164z"/>
			<path style="fill:#293D54;" d="M562.001,289.477l-16.365-19.858c-0.556-0.662-1.372-1.051-2.237-1.065l-15.203,0.055
				c-1.14,0.004-1.438,1.41-0.72,2.296l6.303,7.261l2.009-0.083l8.665,10.529C544.452,288.611,562.272,289.799,562.001,289.477z"/>
			<polygon style="fill:#0A2442;" points="552.928,275.957 552.929,279.073 557.083,280.608 			"/>
		</g>
		<path style="fill:#FFA589;" d="M570.767,292.39c-14.353-3.047-23.138-6.462-24.777-7.029c-0.937-0.324-3.654-1.595-3.644-2.002
			c0.022-0.932,5.502,1.525,5.295,1.298c-0.207-0.227-6.737-2.403-6.738-3.155c-0.001-1.132,7.238,1.425,7.362,1.463
			c1.878,0.565-7.021-2.177-7.209-2.954c-0.188-0.777,3.957,0.193,4.104,0.225c0,0,3.5,1.041,3.63,0.802
			c0.13-0.239-6.856-4.429-6.123-4.876c0.734-0.448,6.087,2.064,7.351,2.547c1.264,0.482,3.196,0.659,3.681,0.365
			c0.41-0.247-0.01-2.294-0.846-3.083c0,0,3.179,1.413,4.66,3.09c0.779,0.882,1.536,2.1,1.536,2.1l12.001,2.34L570.767,292.39z"/>
		<path style="fill:#FFFFFF;" d="M577.644,249.975c0,0-1.701-11.037,3.943-10.142c9.549,1.514,20.452,23.299,16.27,52.248
			c-1.358,9.402-39.458,0.233-39.458,0.233l2.444-13.759l19.894,3.303L577.644,249.975z"/>
	</g>
	<g>
		<g>
			<path style="fill:#FFFFFF;" d="M368.245,188.266c0,1.744-1.414,3.159-3.159,3.159c-1.744,0-3.159-1.414-3.159-3.159
				s1.414-3.158,3.159-3.158C366.831,185.107,368.245,186.521,368.245,188.266z"/>
			<path style="fill:#FD851A;" d="M357.648,295.499c0,1.904-1.543,3.447-3.447,3.447c-1.904,0-3.447-1.543-3.447-3.447
				c0-1.904,1.543-3.447,3.447-3.447C356.105,292.052,357.648,293.595,357.648,295.499z"/>
			<circle style="fill:#FFFFFF;" cx="284.538" cy="113.231" r="2.256"/>
			<circle style="fill:#FD851A;" cx="387.197" cy="63.127" r="1.805"/>
			<circle style="fill:#FFFFFF;" cx="399.379" cy="140.737" r="2.256"/>
			<path style="fill:#FFFFFF;" d="M227.395,209.832c0,3.472-2.814,6.286-6.286,6.286s-6.287-2.815-6.287-6.286
				c0-3.472,2.815-6.286,6.287-6.286S227.395,206.36,227.395,209.832z"/>
			<path style="fill:#FFFFFF;" d="M472.928,312.201c0,1.495-1.212,2.707-2.707,2.707c-1.495,0-2.707-1.212-2.707-2.707
				c0-1.495,1.212-2.707,2.707-2.707C471.716,309.494,472.928,310.706,472.928,312.201z"/>
			<circle style="fill:none;stroke:#FF63A4;stroke-width:0.9046;stroke-miterlimit:10;" cx="499.099" cy="120.884" r="1.805"/>
			<path style="fill:none;stroke:#FF63A4;stroke-width:0.9046;stroke-miterlimit:10;" d="M272.586,272.494
				c0,0.997-0.808,1.805-1.805,1.805c-0.997,0-1.805-0.808-1.805-1.805c0-0.997,0.808-1.805,1.805-1.805
				C271.779,270.689,272.586,271.497,272.586,272.494z"/>
			<path style="fill:none;stroke:#FF63A4;stroke-width:0.9046;stroke-miterlimit:10;" d="M396.221,332.055
				c0,1.994-1.616,3.61-3.61,3.61c-1.994,0-3.61-1.616-3.61-3.61c0-1.994,1.616-3.61,3.61-3.61
				C394.605,328.445,396.221,330.061,396.221,332.055z"/>
			
				<ellipse transform="matrix(0.8714 -0.4905 0.4905 0.8714 6.0403 309.5366)" style="fill:none;stroke:#FFC474;stroke-width:0.9046;stroke-miterlimit:10;" cx="593.475" cy="143.246" rx="8.197" ry="8.197"/>
			<path style="fill:#FD851A;" d="M106.237,111.257c0,1.994-1.616,3.61-3.61,3.61s-3.61-1.616-3.61-3.61
				c0-1.994,1.616-3.61,3.61-3.61S106.237,109.264,106.237,111.257z"/>
			<circle style="fill:#FD851A;" cx="69.537" cy="421.095" r="4.813"/>
			<path style="fill:#FD851A;" d="M620.628,84.184c0,2.326-1.886,4.211-4.212,4.211c-2.326,0-4.211-1.885-4.211-4.211
				c0-2.326,1.885-4.211,4.211-4.211C618.742,79.973,620.628,81.858,620.628,84.184z"/>
			<path style="fill:#EE3A6B;" d="M188.179,134.482c0,2.326-1.886,4.211-4.211,4.211c-2.326,0-4.211-1.885-4.211-4.211
				c0-2.326,1.885-4.212,4.211-4.212C186.293,130.27,188.179,132.156,188.179,134.482z"/>
			<path style="fill:#EE3A6B;" d="M508.123,419.291c0,2.326-1.885,4.211-4.211,4.211c-2.326,0-4.211-1.885-4.211-4.211
				c0-2.326,1.885-4.211,4.211-4.211C506.238,415.079,508.123,416.965,508.123,419.291z"/>
			<circle style="fill:#FD851A;" cx="697.034" cy="267.681" r="2.406"/>
			<path style="fill:#FFFFFF;" d="M313.798,404.551c0,1.661-1.347,3.008-3.008,3.008c-1.661,0-3.008-1.347-3.008-3.008
				c0-1.661,1.347-3.008,3.008-3.008C312.451,401.543,313.798,402.889,313.798,404.551z"/>
			<path style="fill:#FD851A;" d="M165.657,264.505c0,1.994-1.616,3.61-3.61,3.61c-1.994,0-3.61-1.616-3.61-3.61
				s1.616-3.61,3.61-3.61C164.041,260.895,165.657,262.511,165.657,264.505z"/>
		</g>
	</g>
	<g>
		<g>
			<g>
				<path style="fill:#FD851A;" d="M240.27,175.351c0-5.96-4.832-10.792-10.792-10.792c-5.961,0-10.792,4.832-10.792,10.792
					c0,5.96,10.27,15.318,10.27,15.318S240.27,181.311,240.27,175.351z"/>
				<path style="fill:none;stroke:#FFFFFF;stroke-width:0.2874;stroke-miterlimit:10;" d="M226.344,185.795
					c0,0,1.393-11.315-0.174-10.618c-1.567,0.696-2.437,2.437-0.696,2.785c1.741,0.348,8.703,0,8.703,0s0.621-1.98-0.522-2.437
					c-1.741-0.696-1.741,5.918-2.089,10.618"/>
				<g>
					<path style="fill:#18293D;" d="M233.307,188.232h-8.704c-0.673,0-1.218-0.546-1.218-1.218l0,0c0-0.673,0.546-1.219,1.218-1.219
						h8.704c0.673,0,1.218,0.546,1.218,1.219l0,0C234.526,187.687,233.98,188.232,233.307,188.232z"/>
					<path style="fill:#18293D;stroke:#EAEBEC;stroke-width:0.3926;stroke-miterlimit:10;" d="M229.13,193.802L229.13,193.802
						c-2.788,0-5.048-2.26-5.048-5.048v-0.87h10.096v0.87C234.177,191.542,231.917,193.802,229.13,193.802z"/>
				</g>
			</g>
			<g>
				<g>
					
						<line style="fill:none;stroke:#FFFFFF;stroke-width:0.7376;stroke-linecap:round;stroke-miterlimit:10;" x1="210.019" y1="175.419" x2="214.924" y2="175.419"/>
					
						<line style="fill:none;stroke:#FFFFFF;stroke-width:0.7376;stroke-linecap:round;stroke-miterlimit:10;" x1="244.358" y1="175.419" x2="249.264" y2="175.419"/>
				</g>
				<g>
					
						<line style="fill:none;stroke:#FFFFFF;stroke-width:0.7376;stroke-linecap:round;stroke-miterlimit:10;" x1="215.766" y1="161.544" x2="219.235" y2="165.013"/>
					
						<line style="fill:none;stroke:#FFFFFF;stroke-width:0.7376;stroke-linecap:round;stroke-miterlimit:10;" x1="240.048" y1="185.826" x2="243.516" y2="189.295"/>
				</g>
				<g>
					
						<line style="fill:none;stroke:#FFFFFF;stroke-width:0.7376;stroke-linecap:round;stroke-miterlimit:10;" x1="229.641" y1="155.797" x2="229.641" y2="160.703"/>
				</g>
				<g>
					
						<line style="fill:none;stroke:#FFFFFF;stroke-width:0.7376;stroke-linecap:round;stroke-miterlimit:10;" x1="243.516" y1="161.544" x2="240.048" y2="165.013"/>
					
						<line style="fill:none;stroke:#FFFFFF;stroke-width:0.7376;stroke-linecap:round;stroke-miterlimit:10;" x1="219.235" y1="185.826" x2="215.766" y2="189.295"/>
				</g>
			</g>
		</g>
		<g>
			<g>
				<g>
					
						<ellipse transform="matrix(0.9698 -0.2439 0.2439 0.9698 -50.5875 63.4516)" style="fill:#1BA1C5;" cx="230.902" cy="235.98" rx="23.449" ry="23.449"/>
					<path style="fill:#FFFFFF;stroke:#FFFFFF;stroke-width:0.3999;stroke-miterlimit:10;" d="M252.588,244.9
						c-4.926,11.977-18.629,17.693-30.606,12.767c-11.977-4.926-17.693-18.629-12.766-30.606L252.588,244.9z"/>
					<path style="fill:#FD851A;" d="M252.72,244.845c4.926-11.977-0.79-25.679-12.767-30.606l-8.958,21.781L252.72,244.845z"/>
					<path style="fill:#EE3A6B;" d="M231.278,236.136l10.831-26.332c-7.24-2.978-15.002-2.739-21.699,0.055L231.278,236.136z"/>
				</g>
				<g>
					<g>
						<g>
							<g>
								<path style="fill:#18293D;" d="M182.334,238.322c-2.64-7.258-6.307-1.876-5.723-8.012c0.345-3.621,2.947-9.323,2.393-11.627
									l1.113-2.466c0.951-1.364,1.226-6.747,0.429-8.227c-2.182-4.054-5.742-7.643-9.989-8.709
									c-10.534-2.645-15.482,2.754-17.966,9.467c-0.09-0.137-0.184-0.269-0.288-0.389c-0.75-1.236-1.998-2.025-3.518-1.182
									c-2.404,1.334-3.294,4.248-1.904,6.489c-3.363-0.283-5.501,4.79-3.803,7.651c1.336,2.252,4.675,4.494,7.211,3.819
									c-0.105,0.908-1.049,1.845-4.582,1.741c-9.729-0.286-14.308,15.739-7.44,18.6c0,0-6.63,28.247,16.025,24.037l10.874-6.868
									l4.865-7.726l3.148-7.726C173.177,247.192,185.768,247.765,182.334,238.322z M148.785,207.938
									c0.68-0.466,1.292-0.516,1.813-0.312c-0.372,0.048-0.783,0.199-1.243,0.506c-2.269,1.512-2.287,3.706-2.04,5.024
									C146.305,211.357,147.011,209.153,148.785,207.938z M147.232,214.382c-0.645,0.168-1.936,0.561-2.943,1.233
									C145.053,214.725,146.087,214.144,147.232,214.382z M144.727,222.397c-0.886-0.954-1.758-2.187-1.763-3.543
									c-0.001-0.168,0.018-0.346,0.046-0.528c0.165,0.525,0.538,1.108,1.194,1.753c1.846,1.815,3.943,2.965,5.694,2.637
									c-0.031,0.285-0.061,0.559-0.09,0.82c0,0,0.283,0.388,0.419,0.9C148.414,225.029,146.069,223.842,144.727,222.397z"/>
								<g>
									<g>
										<g>
											<path style="fill:#E87C76;" d="M162.524,214.746c-0.069,0.211-0.285,0.316-0.48,0.23
												c-0.815-0.361-2.845-0.98-3.928,1.187c-1.095,2.19,1.762,3.918,2.973,4.531c0.35,0.177,0.62,0.494,0.761,0.881
												c0.434,1.191,1.409,5.726,2.415,9.657c2.473,9.665-6.398,10.238-6.398,10.238s9.768,29.486,16.931,29.57
												c3.274,0.038,1.119-29.385,2.617-29.749c0,0-4.713-11.099-4.081-14.043c0.014-0.064,7.335,1.188,7.119-9.514
												c0.401-9.144-5.53-10.827-7.05-11.18C172.12,206.255,165.941,204.258,162.524,214.746z"/>
											<path style="fill:#18293D;" d="M173.483,227.263c0,0-0.767,0.004-2.655-0.162c-0.446-0.039-1.293-0.202-2.092-0.49
												c-0.451-0.163-0.811,0.399-0.475,0.742c0,0,1.351,1.497,3.001,1.576C172.558,228.99,172.822,228.335,173.483,227.263z"/>
										</g>
										<g>
											<g>
												<path style="fill:#CF4849;" d="M159.162,217.328c0,0,0.865-3.16,3.097,0.578"/>
												<g>
													<path style="fill:#E66568;" d="M172.26,217.378c1.197,0.484,1.774,1.848,1.29,3.045
														c-0.484,1.197-1.848,1.774-3.045,1.29c-1.197-0.485-1.775-1.848-1.29-3.045
														C169.7,217.471,171.063,216.894,172.26,217.378z"/>
													<path style="fill:#CD567E;" d="M177.671,217.379l-0.49,2.56l1.354-0.012c0.25-0.002,0.406-0.271,0.284-0.489
														L177.671,217.379z"/>
													<path style="fill:#18293D;" d="M174.223,213.93c-0.446,0.355,0.329-1.115,0.977-1.241
														c0.648-0.126,1.261,0.226,1.37,0.786C176.569,213.475,175.333,213.045,174.223,213.93z"/>
													<path style="fill:#18293D;" d="M180.301,213.618c-0.633-0.189-1.318,0.105-1.48,0.651c0,0,0.781-0.089,1.66,0.31"/>
													<path style="fill:#18293D;" d="M175.635,217.508c-0.014,0.582,0.25,0.835,0.532,0.842
														c0.282,0.007,0.476-0.236,0.49-0.818c0.014-0.582-0.204-1.059-0.486-1.065
														C175.888,216.459,175.648,216.926,175.635,217.508z"/>
													<path style="fill:#18293D;" d="M178.738,217.559c-0.013,0.556,0.211,0.846,0.481,0.852
														c0.27,0.006,0.482-0.273,0.495-0.829c0.013-0.556-0.195-1.012-0.465-1.018
														C178.981,216.557,178.751,217.003,178.738,217.559z"/>
												</g>
												<g>
													<path style="fill:#E66568;" d="M179.172,221.484c0,0-0.234,1.241-0.996,1.276c-1.368,0.064-2.22-1.491-2.22-1.491
														L179.172,221.484z"/>
													<path style="fill:#CD567E;" d="M175.857,221.229c0,0,2.28,1.262,3.316,0.255c-0.02-0.135-0.487-0.706-1.005-0.651
														C177.585,220.895,175.857,221.229,175.857,221.229z"/>
												</g>
											</g>
											<g>
												<path style="fill:#FFFFFF;" d="M160.82,219.51c0,0-5.078,5.222,0.935,9.311c0.271,0.184,0.64,0.117,0.831-0.148
													C163.553,227.331,165.82,223.234,160.82,219.51z"/>
											</g>
										</g>
									</g>
									<path style="fill:#18293D;" d="M177.861,206.704c0,0-7.765,12.495-15.863,8.003
										C161.998,214.706,165.124,200.776,177.861,206.704z"/>
									<g>
										<g>
											<path style="fill:#18293D;" d="M176.761,207.254c-2.378,3.166-4.303,6.907-7.837,8.957
												c-0.661,0.383-1.455,0.813-2.242,0.815c-0.743,0.002-1.47-0.404-2.087-0.779c-1.072-0.651-2.328-1.546-3.016-2.626
												c-0.223-0.349-0.781-0.026-0.557,0.326c0.75,1.176,2.075,2.145,3.248,2.857c1.422,0.864,2.661,1.085,4.2,0.373
												c4.109-1.903,6.252-6.14,8.849-9.597C177.568,207.247,177.008,206.925,176.761,207.254L176.761,207.254z"/>
										</g>
									</g>
								</g>
							</g>
							<g>
								<path style="fill:#E87C76;" d="M195.874,268.343c-2.781-3.78-12.868-31.03-18.483-30.178
									c-11.533,3.383-4.308,17.169-4.308,17.169s7.364,21.408,18.102,30.28c0,0,15.807-2.889,29.484-28.25
									c0,0-3.948-1.48-6.168-3.948c0,0,0.891-5.397-0.733-6.285c-0.901-0.492-2.79,8.592-3.51,9.323L195.874,268.343z"/>
							</g>
							<g>
								<path style="fill:#FFFFFF;" d="M178.041,237.94c0,0,14.872,3.201,15.612,24.852l-8.142,8.327L178.041,237.94z"/>
								<polygon style="fill:#021E2B;" points="193.653,262.607 195.318,266.123 183.846,277.596 181.44,274.265 								"/>
							</g>
							<g>
								<path style="fill:#FFFFFF;" d="M160.693,239.609c0,0,10.023,3.515,12.235,2.457c4.256-2.035,5.113-4.127,5.113-4.127
									c-0.236,0.619,7.962,18.459,9.157,24.419c1.129,5.63-3.538,20.06-3.538,22.269l-25.46-0.044c0,0-5.087-9.669-6.009-22.893
									C158.106,265.411,163.054,256.349,160.693,239.609z"/>
							</g>
						</g>
						<g>
							<path style="fill:#FAF1E6;" d="M180.33,284.627c0,0-21.461-15.115-21.747-22.555l-4.883,12.209l4.24,9.883L180.33,284.627z"
								/>
						</g>
					</g>
					<g>
						<g>
							<g>
								<path style="fill:#E87C76;" d="M233.761,370.623l5.038,14.358c0,0,11.194,6.813,12.538,2.817
									c1.343-3.995-3.384-5.023-3.384-5.023l-2.794-15.332L233.761,370.623z"/>
								<path style="fill:#EE3A6B;" d="M248.997,382.431l12.547,5.267c0.7,0.188,0.562,0.999-0.206,1.197
									c-4.44,1.141-10.059,2.528-16.953,3.703c-1.836,0.313-4.145-5.412-5.397-5.097c-0.707,0.178,0.349,7.308-0.125,7.426
									c-0.542,0.135-2.512-5.243-2.586-5.669c-0.512-2.959,0.977-6.208,1.327-6.36c0,0,10.103,5.685,11.82,4.68
									c1.478-0.865,2.417-1.37,1.956-2.108C251.137,385.079,248.566,382.243,248.997,382.431z"/>
							</g>
							<path style="fill:#021E2B;" d="M205.095,314.756l25.176,57.126l18.156-2.133c0,0-17.163-71.465-28.164-78.461
								c-7.829-4.979-51.029,2.886-51.029,2.886L205.095,314.756z"/>
							<path style="opacity:0.65;fill:none;stroke:#FFFFFF;stroke-width:0.2782;stroke-miterlimit:10;" d="M193.9,307.327
								c0,0,18.751-7.649,22.452-4.194c3.701,3.454,24.179,67.11,24.179,67.11"/>
						</g>
						<g>
							<g>
								<g>
									<path style="fill:#E87C76;" d="M183.897,377.961l-5.723,14.099c0,0,3.885,12.515,7.536,10.409
										c3.651-2.107,0.787-6.005,0.787-6.005l8.05-13.344L183.897,377.961z"/>
									<path style="fill:#EE3A6B;" d="M187.506,396.896l5.922,12.251c0.401,0.604-0.24,1.121-0.946,0.761
										c-4.084-2.083-9.214-4.761-15.16-8.442c-1.584-0.98,0.474-6.801-0.674-7.392c-0.648-0.334-4.574,5.71-5.008,5.485
										c-0.495-0.257,1.586-5.593,1.812-5.962c1.574-2.557,4.84-4.008,5.203-3.89c0,0,3.813,10.948,5.766,11.33
										c1.681,0.329,2.719,0.572,2.862-0.286C187.359,400.297,187.307,396.469,187.506,396.896z"/>
								</g>
							</g>
							<g>
								<path style="fill:#18293D;" d="M157.939,284.165c0,0-21.034,21.435-10.424,34.264c10.609,12.83,56.007,9.622,56.007,9.622
									l-24.673,53.54l17.024,6.662c0,0,38.49-62.422,32.075-73.772c-4.566-8.077-46.385-21.465-46.385-21.465l0.247-8.142
									L157.939,284.165z"/>
								<path style="fill:none;stroke:#FFFFFF;stroke-width:0.2782;stroke-miterlimit:10;" d="M164.786,284.134
									c0,0.74-12.583,22.452-3.207,26.4c9.376,3.948,51.71,2.655,55.761,10.116c4.688,8.635-28.621,63.903-28.621,63.903"/>
							</g>
						</g>
					</g>
				</g>
			</g>
			<g>
				<g>
					<g>
						<path style="fill:#E87C76;" d="M183.911,296.87c-0.272,1.409-14.887-2.334-14.887-2.334
							c-28.512,4.157-33.87-5.533-33.87-5.533c3.221-12.146,10.355-32.457,10.355-32.457s4.057-16.672,13.653-9.436
							c4.034,3.998-8.16,31.864-9.533,36.351l20.306,3.448c1.016,0.141,9.433-3.763,9.576-2.746
							c0.257,1.832-4.284,3.955-4.284,3.955c-0.216,1.074,7.347,1.013,9.664,3.923c0,0,1.492,1.001-6.531-0.872
							c0,0,6.908,2.054,6.895,3.101c-0.003,0.262-0.707,0.269-0.48,0.403c1.02,0.601,0.145,1.441-1.877,0.957
							C183.417,295.931,183.911,296.87,183.911,296.87z"/>
					</g>
					<g>
						<g>
							<path style="fill:#CD567E;" d="M185.047,294.604c-1.179-0.264-2.326-0.5-3.485-0.776c-0.576-0.146-1.155-0.287-1.725-0.47
								c-0.571-0.178-1.142-0.365-1.694-0.621c0.607,0.031,1.199,0.113,1.79,0.204c0.593,0.085,1.177,0.211,1.76,0.347
								c0.58,0.148,1.161,0.304,1.725,0.522C183.982,294.021,184.544,294.262,185.047,294.604z"/>
						</g>
						<g>
							<path style="fill:#CD567E;" d="M183.975,297.002c-0.261-0.511-0.73-0.777-1.222-0.979c-0.499-0.193-1.017-0.356-1.548-0.496
								c-0.528-0.152-1.067-0.281-1.6-0.449c-0.534-0.163-1.074-0.328-1.59-0.573c0.569,0.021,1.124,0.079,1.681,0.155
								c0.558,0.07,1.109,0.186,1.658,0.331c0.544,0.158,1.093,0.344,1.593,0.652C183.437,295.926,183.944,296.407,183.975,297.002z
								"/>
						</g>
						<g>
							<path style="fill:#CD567E;" d="M185.104,292.251c-0.682,0.083-1.366,0.077-2.048,0.033c-0.684-0.037-1.36-0.147-2.031-0.284
								c-0.667-0.15-1.329-0.328-1.968-0.574c-0.64-0.241-1.267-0.516-1.854-0.873c0.671,0.141,1.323,0.312,1.978,0.463l1.961,0.44
								l1.969,0.405C183.77,291.992,184.434,292.105,185.104,292.251z"/>
						</g>
					</g>
				</g>
				<g>
					<polygon style="fill:#021E2B;" points="138.509,278.151 151.142,282.39 152.203,279.261 139.434,274.635 					"/>
					<path style="fill:#FFFFFF;" d="M160.443,239.752c0,0-15.827-5.828-21.008,34.883l12.768,4.626
						C152.203,279.261,170.718,242.064,160.443,239.752z"/>
				</g>
			</g>
		</g>
		<g>
			<g>
				<rect x="154.023" y="295.534" style="fill:#000307;" width="34.323" height="4.025"/>
				<polygon style="fill:#FD851A;" points="154.023,295.534 176.45,295.534 174.686,299.56 154.023,299.56 				"/>
				<polygon style="fill:#FD851A;" points="231.25,299.56 177.154,299.56 190.212,262.252 244.308,262.252 				"/>
				<path style="fill:#000307;" d="M213.913,281.954c0-1.876-1.521-3.396-3.396-3.396c-1.876,0-3.396,1.521-3.396,3.396
					c0,1.876,1.521,3.396,3.396,3.396C212.393,285.351,213.913,283.83,213.913,281.954z"/>
			</g>
		</g>
	</g>
	<g>
		<g style="opacity:0.88;">
			<path style="fill:#FFFEFC;" d="M430.764,230.71c0.25-12.982,10.843-23.43,23.885-23.43v-21.338
				c-24.982,0-45.234,20.252-45.234,45.234C409.414,230.598,419.894,230.577,430.764,230.71z"/>
			<path style="fill:#FFFEFC;" d="M478.545,231.176c0,13.198-10.699,23.896-23.896,23.896v21.338
				c24.982,0,45.234-20.252,45.234-45.234H478.545z"/>
			<path style="fill:#1BA1C5;" d="M430.753,231.176c0-0.156,0.009-0.311,0.012-0.466c-10.871-0.133-21.35-0.112-21.35,0.466
				c0,24.982,20.252,45.234,45.234,45.234v-21.338C441.451,255.073,430.753,244.374,430.753,231.176z"/>
			<path style="fill:#1BA1C5;" d="M478.545,231.176h21.338c0-24.982-20.252-45.234-45.234-45.234v21.338
				C467.846,207.28,478.545,217.979,478.545,231.176z"/>
			<g>
				<path style="fill:#18293D;" d="M454.649,217.166c-7.646,0-13.858,6.126-14.004,13.737c6.868,0.084,14.004,0.273,14.004,0.273
					V217.166z"/>
				<path style="fill:#18293D;" d="M454.649,245.187c7.738,0,14.011-6.273,14.011-14.011h-14.011V245.187z"/>
				<path style="fill:#18293D;" d="M440.645,230.903c-0.002,0.091-0.007,0.182-0.007,0.273c0,7.738,6.273,14.011,14.011,14.011
					v-14.011C454.649,231.176,447.514,230.987,440.645,230.903z"/>
				<path style="fill:#18293D;" d="M454.649,217.166v14.011h14.011C468.659,223.439,462.387,217.166,454.649,217.166z"/>
			</g>
		</g>
		<g>
			<g>
				<polygon style="fill:#FFFFFF;" points="384.821,148.877 365.683,136.038 270.357,136.038 270.357,72.81 384.821,72.81 				"/>
				<rect x="281.379" y="86.86" style="fill:#FD851A;" width="87.696" height="6.299"/>
				<rect x="281.379" y="103.818" style="fill:#FD851A;" width="87.696" height="6.299"/>
			</g>
			<g>
				<polygon style="fill:#FFFFFF;" points="601.153,217.61 611.886,210.41 665.35,210.41 665.35,174.948 601.153,174.948 				"/>
				
					<rect x="609.984" y="182.829" transform="matrix(-1 -1.224647e-16 1.224647e-16 -1 1269.1525 369.1896)" style="fill:#00AC1B;" width="49.184" height="3.533"/>
				
					<rect x="609.984" y="192.339" transform="matrix(-1 -1.224647e-16 1.224647e-16 -1 1269.1525 388.2109)" style="fill:#00AC1B;" width="49.184" height="3.533"/>
			</g>
			<g>
				<g style="opacity:0.86;">
					<polygon style="fill:#FFFFFF;" points="415.624,395.249 400.935,385.394 327.771,385.394 327.771,336.866 415.624,336.866 
											"/>
					<rect x="336.23" y="347.65" style="fill:#00AC1B;" width="67.308" height="4.834"/>
					<rect x="336.23" y="360.665" style="fill:#FD851A;" width="67.308" height="4.834"/>
				</g>
				<g>
					<rect x="421.159" y="401.547" style="fill:#FFFFFF;" width="39.972" height="4.361"/>
					<rect x="421.159" y="416.082" style="fill:#FFFFFF;" width="39.972" height="4.361"/>
					<rect x="421.159" y="430.617" style="fill:#FFFFFF;" width="39.972" height="4.361"/>
				</g>
			</g>
		</g>
	</g>
</g>
</svg>
