<?xml version="1.0" encoding="utf-8"?>
<!-- Generator: Adobe Illustrator 27.5.0, SVG Export Plug-In . SVG Version: 6.00 Build 0)  -->
<svg version="1.1" id="_x31_" xmlns="http://www.w3.org/2000/svg" xmlns:xlink="http://www.w3.org/1999/xlink" x="0px" y="0px"
	 viewBox="0 0 1000 500" style="enable-background:new 0 0 1000 500;" xml:space="preserve">
<g>
	<g>
		
			<rect x="656.204" y="288.651" transform="matrix(0.6268 -0.7792 0.7792 0.6268 10.5663 643.5177)" style="fill:#EDBC6E;" width="41.719" height="44.154"/>
		<polygon style="fill:#F9C882;" points="679.945,286.276 660.408,324.102 681.19,340.82 707.34,308.313 		"/>
		
			<rect x="650.178" y="311.345" transform="matrix(0.6268 -0.7792 0.7792 0.6268 -13.9304 637.7595)" style="fill:#E59B53;" width="17.258" height="44.154"/>
		<polygon style="fill:#E28D47;" points="663.077,325.783 647.014,312.861 636.197,326.307 650.562,337.863 		"/>
		<polygon style="fill:#FFE0BB;" points="683.494,322.897 676.265,331.587 681.679,336.42 688.908,327.73 		"/>
		<polygon style="fill:#FFE0BB;" points="669.809,290.722 673.538,286.086 677.342,289.146 678.454,287.646 673.332,283.526 
			668.39,289.67 		"/>
		<polygon style="fill:#FFE0BB;" points="673.803,288.258 667.729,295.825 668.831,296.77 674.904,289.203 		"/>
	</g>
	<g>
		<g>
			<path style="fill:#443232;" d="M650.627,276.834l-0.936-2.151c6.692-1.793,8.869-7.304,8.675-11.864
				c-0.222-5.221-3.326-10.212-7.909-12.714l0.763-1.903c5.43,2.964,9.106,8.829,9.366,14.941
				C660.872,269.865,657.056,275.111,650.627,276.834z"/>
		</g>
		<g>
			<path style="fill:#443232;" d="M621.51,274.615c-6.089-2.689-9.778-8.329-9.629-14.72c0.135-5.81,3.494-10.831,8.557-12.791
				l0.753,1.945c-4.273,1.655-7.109,5.931-7.224,10.894c-0.101,4.334,2.05,9.964,8.387,12.763L621.51,274.615z"/>
		</g>
		<polygon style="fill:#E59B53;" points="581.149,268.88 610.962,266.823 609.696,339.869 579.567,339.869 		"/>
		<polygon style="fill:#E5AD5C;" points="610.61,266.622 654.423,268.052 655.942,338.321 609.334,339.881 		"/>
		<polygon style="fill:#E59B53;" points="528.026,363.025 594.544,360.031 596.059,397.262 522.637,404.38 		"/>
		<polygon style="fill:#E59B53;" points="590.911,338.161 631.252,334.953 632.767,372.184 588.299,379.539 		"/>
		<polygon style="fill:#E59B53;" points="550.284,300.704 560.472,295.76 563.072,330.152 549.765,330.262 		"/>
		<polygon style="fill:#E5AD5C;" points="583.316,295.155 559.696,296.104 559.704,328.645 583.925,324.05 		"/>
		<polygon style="fill:#E59B53;" points="547.766,324.498 534.948,333.83 537.321,363.735 550.003,361.98 		"/>
		<polygon style="fill:#EDBC6E;" points="547.804,324.502 592.636,319.112 594.445,361.215 548.269,362.056 		"/>
		<polygon style="fill:#EDBC6E;" points="631.265,334.979 680.618,337.564 682.132,374.794 627.697,375.742 		"/>
		<polygon style="fill:#E59B53;" points="624.083,355.224 681.805,362.958 683.319,400.189 619.628,395.441 		"/>
		<polygon style="fill:#EDBC6E;" points="685.102,369.431 728.138,376.076 728.93,430.901 680.83,430.901 		"/>
		<polygon style="fill:#E59B53;" points="664.375,369.51 685.102,369.431 683.361,430.901 664.375,430.901 		"/>
		<polygon style="fill:#E59B53;" points="588.427,369.51 600.462,361.305 607.414,430.901 588.427,430.901 		"/>
		<polygon style="fill:#E59B53;" points="556.15,377.579 537.809,377.918 531.625,430.901 559.314,430.901 		"/>
		<polygon style="fill:#EDBC6E;" points="600.136,361.282 669.438,366.029 669.438,430.901 598.87,430.901 		"/>
		<polygon style="fill:#EDBC6E;" points="546.023,369.639 590.642,366.345 592.225,430.901 546.023,430.901 		"/>
		<polygon style="fill:#EDBC6E;" points="538.271,377.896 507.976,383.117 506.151,430.901 540.96,430.901 		"/>
		<polygon style="fill:#E8B160;" points="527.651,379.726 507.976,383.117 506.151,430.901 518.267,430.901 		"/>
		<rect x="637.793" y="271.569" style="fill:#F4C889;" width="12.5" height="6.012"/>
		<polygon style="fill:#FCD8A9;" points="649.324,338.694 634.623,337.853 634.245,342.777 648.208,343.878 		"/>
		<polygon style="fill:#FCD8A9;" points="663.636,418.175 649.092,418.915 649.667,425.768 663.54,425.483 		"/>
		<polygon style="fill:#FCD8A9;" points="519.087,422.495 509.855,423.16 510.22,429.314 519.026,429.058 		"/>
		<polygon style="fill:#FCD8A9;" points="643.331,346.433 634.641,345.957 634.403,347.967 643.092,348.444 		"/>
		<polygon style="fill:#E59B53;" points="603.534,365.536 666.569,369.853 666.569,368.473 602.901,364.112 601.738,428.071 
			602.397,428.071 		"/>
		<polygon style="fill:#E59B53;" points="681.463,430.109 708.677,402.42 723.935,424.897 708.555,404.538 		"/>
		<polygon style="fill:#E59B53;" points="688.089,373.9 708.995,404.705 724.196,385.187 709.084,402.637 		"/>
		<polygon style="fill:#E59B53;" points="588.684,367.224 567.829,403.078 546.047,370.89 567.253,399.852 		"/>
		<polygon style="fill:#E59B53;" points="546.386,366.838 572.044,342.449 595.956,364.724 572.578,344.666 		"/>
		<polygon style="fill:#E59B53;" points="587.857,330.468 572.804,344.08 553.501,332.634 572.171,342.902 		"/>
		<polygon style="fill:#F7CC8F;" points="553.61,328.344 565.917,328.449 565.766,335.755 553.46,336.441 		"/>
		<polygon style="fill:#E5AD5C;" points="596.339,270.778 584.63,272.361 584.63,280.588 596.339,279.006 		"/>
		<polygon style="fill:#EDBC6E;" points="571.656,299.259 562.479,299.62 562.479,304.322 571.656,303.96 		"/>
		<g>
			<path style="fill:#443232;" d="M558.444,225.649l14.818-3.496c1.376-0.325,2.754,0.527,3.078,1.903l0.202,0.857
				c0.324,1.376-0.527,2.754-1.903,3.078l-14.818,3.496c-1.375,0.325-2.754-0.527-3.078-1.903l-0.202-0.857
				C556.216,227.352,557.068,225.974,558.444,225.649z"/>
			<polygon style="fill:#443232;" points="572.996,224.182 571.2,226.093 581.524,237.795 586.283,232.283 			"/>
			<path style="fill:#826565;" d="M572.185,209.584l-19.188,3.899c-0.982,5.685,0.093,11.194,2.919,16.551l23.502-5.019
				C577.691,218.749,575.423,213.371,572.185,209.584z"/>
			<path style="fill:#685353;" d="M557.056,222.468c5.459,1.767,11.981-3.282,14.569-11.276c0.172-0.53,0.318-1.059,0.447-1.586
				l0.114-0.023c3.237,3.787,5.506,9.166,7.233,15.432l-23.502,5.019c-1.938-3.674-3.052-7.419-3.244-11.244
				C553.733,220.559,555.21,221.871,557.056,222.468z"/>
			<path style="fill:#685353;" d="M573.017,225.214c0.076,2.447,2.121,4.37,4.569,4.294c2.448-0.076,4.37-2.121,4.294-4.569
				s-2.121-4.37-4.569-4.294C574.864,220.721,572.941,222.766,573.017,225.214z"/>
			<path style="fill:#D6CBB6;" d="M575.002,225.152c0.042,1.351,1.171,2.413,2.522,2.371c1.351-0.042,2.413-1.171,2.371-2.523
				c-0.042-1.351-1.171-2.413-2.522-2.371C576.022,222.672,574.96,223.801,575.002,225.152z"/>
			<path style="fill:#443232;" d="M643.86,250.766l-10.862,0.336l0.109,3.532c0.048,1.553,1.346,2.772,2.898,2.724l5.24-0.162
				c1.552-0.048,2.772-1.346,2.724-2.898L643.86,250.766z"/>
			<path style="fill:#443232;" d="M626.655,251.299l-10.862,0.336l0.109,3.532c0.048,1.553,1.346,2.772,2.898,2.724l5.24-0.162
				c1.552-0.048,2.772-1.346,2.724-2.898L626.655,251.299z"/>
			<path style="fill:#443232;" d="M605.453,251.955l-10.862,0.336l0.109,3.532c0.048,1.553,1.346,2.772,2.898,2.724l5.239-0.162
				c1.553-0.048,2.772-1.346,2.724-2.898L605.453,251.955z"/>
			<path style="fill:#443232;" d="M677.123,221.974l-15.006-2.573c-1.393-0.239-2.716,0.697-2.955,2.09l-0.149,0.868
				c-0.239,1.393,0.697,2.716,2.09,2.955l15.006,2.573c1.393,0.239,2.716-0.697,2.955-2.09l0.149-0.868
				C679.452,223.535,678.516,222.212,677.123,221.974z"/>
			<path style="fill:#443232;" d="M626.373,220.952l-15.218,0.471c-1.413,0.044-2.522,1.224-2.479,2.637l0.027,0.88
				c0.044,1.413,1.224,2.522,2.637,2.479l15.218-0.471c1.413-0.044,2.522-1.224,2.479-2.637l-0.027-0.88
				C628.967,222.018,627.786,220.908,626.373,220.952z"/>
			<g>
				<path style="fill:#544040;" d="M587.555,277.948c-6.175-2.484-10.051-7.998-10.116-14.39c-0.059-5.811,3.13-10.942,8.125-13.07
					l0.818,1.919c-4.216,1.797-6.907,6.165-6.857,11.13c0.044,4.335,2.381,9.889,8.808,12.475L587.555,277.948z"/>
			</g>
			<path style="fill:#544040;" d="M590.119,277.448c-0.066-1.533-0.862-2.744-1.78-2.705c-0.917,0.039-1.607,1.314-1.542,2.847
				c0.066,1.533,0.863,2.744,1.78,2.705C589.494,280.256,590.185,278.981,590.119,277.448z"/>
			<path style="fill:#544040;" d="M588.991,274.117c-0.03-0.7-0.338-1.256-0.688-1.241c-0.35,0.015-0.61,0.595-0.58,1.295
				c0.03,0.7,0.338,1.256,0.688,1.241C588.762,275.397,589.021,274.817,588.991,274.117z"/>
			<path style="fill:#544040;" d="M589.293,281.152c-0.03-0.7-0.338-1.256-0.688-1.241c-0.35,0.015-0.61,0.595-0.58,1.295
				c0.03,0.7,0.338,1.256,0.688,1.241C589.063,282.433,589.323,281.853,589.293,281.152z"/>
			<path style="fill:#544040;" d="M591.045,277.379c-0.025-0.576-0.329-1.03-0.679-1.015c-0.35,0.015-0.614,0.494-0.589,1.069
				c0.025,0.576,0.329,1.03,0.679,1.015C590.806,278.434,591.07,277.955,591.045,277.379z"/>
			<path style="fill:#443232;" d="M577.452,263.82c0.69-0.573,1.401-1.083,2.126-1.527c0.371-4.439,2.945-8.241,6.804-9.886
				l-0.818-1.919c-4.995,2.128-8.184,7.259-8.125,13.07C577.441,263.646,577.45,263.733,577.452,263.82z"/>
			<polygon style="fill:#443232;" points="617.399,221.306 621.017,221.194 624.534,236.166 614.469,236.179 			"/>
			<polygon style="fill:#443232;" points="662.508,221.41 664.42,223.206 654.839,235.525 649.749,230.318 			"/>
			<path style="fill:#685353;" d="M607.215,209.032l20.981-0.65c3.044,4.938,3.019,10.947,2.276,16.56l-24.502,0.759
				C605.321,219.54,605.496,213.317,607.215,209.032z"/>
			<path style="fill:#826565;" d="M662.414,206.79l19.393,2.704c1.332,5.614,0.6,11.178-1.889,16.7l-23.768-3.555
				C657.487,216.278,659.418,210.77,662.414,206.79z"/>
			
				<ellipse transform="matrix(0.7878 -0.616 0.616 0.7878 -15.0824 452.2368)" style="fill:#443232;" cx="648.733" cy="248.006" rx="3.825" ry="3.825"/>
			<path style="fill:#443232;" d="M585.3,249.97c0.065,2.112,1.83,3.77,3.942,3.705c2.112-0.065,3.77-1.83,3.705-3.942
				c-0.065-2.112-1.83-3.77-3.942-3.705C586.893,246.094,585.235,247.859,585.3,249.97z"/>
			<path style="fill:#443232;" d="M590.758,245.539l0.223,7.198c0.052,1.688,1.463,3.014,3.15,2.961l50.369-1.56
				c1.688-0.052,3.013-1.463,2.961-3.151l-0.223-7.198L590.758,245.539z"/>
			<polygon style="fill:#513F3F;" points="648.693,249.543 589.663,251.372 581.208,244.211 656.69,241.874 			"/>
			<polygon style="fill:#5B4747;" points="641.129,249.778 606.178,250.86 601.078,243.596 645.77,242.212 			"/>
			<path style="fill:#685353;" d="M657.721,242.422l-77.509,2.4c-1.931,0.06-2.324-12.627-0.393-12.687
				c-0.084-2.703,77.426-5.104,77.509-2.4C659.414,229.671,659.807,242.357,657.721,242.422z"/>
			<path style="fill:#826565;" d="M623.121,237.347c13.983-0.433,26.618-1.828,35.785-3.737c-0.269-2.179-0.807-3.898-1.578-3.874
				c-0.084-2.703-77.593-0.303-77.509,2.4c-0.485,0.015-0.823,0.827-1.027,2.033C587.702,236.612,604.236,237.932,623.121,237.347z"
				/>
			<path style="fill:#826565;" d="M628.197,208.382l-20.981,0.65c-0.234,0.584-0.437,1.206-0.616,1.857
				c1.579,5.897,7.141,10.164,13.634,9.963c4.264-0.132,8.011-2.162,10.426-5.234C630.321,213.078,629.576,210.62,628.197,208.382z"
				/>
			<path style="fill:#685353;" d="M678.312,218.713c-5.339,2.101-12.161-2.534-15.238-10.353c-0.204-0.518-0.383-1.037-0.544-1.555
				l-0.115-0.016c-2.997,3.98-4.928,9.489-6.264,15.85l23.768,3.555c1.707-3.787,2.587-7.594,2.542-11.423
				C681.511,216.602,680.118,218.003,678.312,218.713z"/>
			<path style="fill:#685353;" d="M662.551,222.441c0.076,2.448-1.847,4.493-4.294,4.569c-2.448,0.076-4.493-1.847-4.569-4.294
				s1.847-4.493,4.294-4.569C660.43,218.071,662.475,219.994,662.551,222.441z"/>
			<path style="fill:#D6CBB6;" d="M660.566,222.503c0.042,1.351-1.02,2.481-2.371,2.523c-1.351,0.042-2.48-1.02-2.522-2.371
				s1.02-2.481,2.371-2.522C659.395,220.09,660.525,221.151,660.566,222.503z"/>
			<path style="fill:#B79898;" d="M647.302,229.901c-0.014-0.448-11.49-0.891-25.759-0.449c-14.269,0.442-25.928,1.601-25.914,2.049
				s11.695,0.015,25.964-0.427S647.316,230.348,647.302,229.901z"/>
			
				<rect x="634.385" y="235.064" transform="matrix(0.9995 -0.031 0.031 0.9995 -7.0219 20.0067)" style="fill:#443232;" width="16.344" height="3.39"/>
			
				<rect x="627.697" y="235.468" transform="matrix(0.9995 -0.031 0.031 0.9995 -7.044 19.6132)" style="fill:#443232;" width="3.651" height="3.39"/>
			<path style="fill:#B79898;" d="M619.717,209.822c-0.011-0.362-2.387-0.582-5.306-0.491c-2.919,0.09-5.277,0.457-5.266,0.819
				c0.011,0.362,2.387,0.582,5.306,0.492C617.371,210.551,619.729,210.184,619.717,209.822z"/>
			<path style="fill:#B79898;" d="M626.321,209.618c-0.011-0.362-1.2-0.619-2.656-0.574c-1.456,0.045-2.627,0.375-2.615,0.737
				c0.011,0.362,1.2,0.619,2.656,0.574C625.162,210.309,626.332,209.98,626.321,209.618z"/>
			<path style="fill:#B79898;" d="M673.552,209.852c0.049-0.359-2.104-0.952-4.811-1.327c-2.707-0.374-4.941-0.386-4.99-0.028
				c-0.05,0.359,2.104,0.952,4.811,1.326C671.268,210.198,673.502,210.211,673.552,209.852z"/>
			<path style="fill:#B79898;" d="M679.674,210.698c0.05-0.359-1.004-0.801-2.354-0.987c-1.35-0.187-2.484-0.047-2.533,0.312
				c-0.049,0.359,1.004,0.8,2.354,0.987C678.491,211.196,679.625,211.057,679.674,210.698z"/>
			<path style="fill:#B79898;" d="M563.812,212.863c-0.082-0.353-2.306-0.134-4.967,0.489s-4.751,1.413-4.668,1.765
				c0.083,0.352,2.306,0.134,4.967-0.489C561.804,214.005,563.894,213.215,563.812,212.863z"/>
			<path style="fill:#B79898;" d="M569.993,211.102c-0.082-0.353-1.225-0.387-2.551-0.076c-1.327,0.31-2.335,0.848-2.253,1.2
				c0.083,0.353,1.225,0.387,2.551,0.076C569.067,211.992,570.076,211.454,569.993,211.102z"/>
		</g>
	</g>
	<g>
		<polygon style="fill:#EDBC6E;" points="878.684,285.2 924.581,237.966 902.969,198.085 856.403,191.401 841.03,283.195 		"/>
		<polygon style="fill:#E59B53;" points="878.684,285.2 924.581,237.966 883.214,231.505 811.175,306.589 		"/>
		<polygon style="fill:#E5AD5C;" points="803.822,317.952 771.961,280.744 856.403,191.401 886.185,231.802 		"/>
		<polygon style="fill:#EFB66A;" points="785.504,266.416 839.983,280.128 878.933,239.387 824.096,225.584 		"/>
		<path style="fill:#6785B7;" d="M861.305,317.284c0,0,22.206,46.714,23.394,49.685c1.188,2.971,10.1,65.355,10.1,65.355
			l-29.707-55.329L833.9,342.906l0.85-25.9L861.305,317.284z"/>
		<path style="fill:#4C6E9E;" d="M870.744,370.809l-36.776-50.094l-0.81,24.419l31.573,32.947l30.069,54.242
			c0,0-0.102-0.701-0.284-1.946L870.744,370.809z"/>
		<path style="fill:#6785B7;" d="M816.967,432.324c11.289-21.686,28.816-48.125,31.192-51.393
			c2.377-3.268,5.719-32.603,5.719-32.603l7.724-5.347l-1.857-28.89l-33.569,4.753l0.891,61.345L816.967,432.324z"/>
		<path style="fill:#4C6E9E;" d="M817.242,430.75l17.995-51.305l1.263-40.624c13.246-0.362,26.906-1.202,31.547-7.484l-7.336-16.876
			l-36.614,3.788l2.034,61.589L817.242,430.75z"/>
		<path style="fill:#F7D054;" d="M867.113,329.519c-21.404,5.589-43.003-0.318-43.907-6.443
			c-2.005-13.591,28.804-60.102,43.224-62.162c20.275-2.896,25.983,13.161,25.399,22.503
			C890.715,301.242,867.113,329.519,867.113,329.519z"/>
		<path style="fill:#F4B84D;" d="M866.43,260.915c-0.962,0.138-1.999,0.479-3.093,0.989c2.729,3.516,7.689,7.413,13.871,10.581
			c5.084,2.605,10.075,4.238,14.166,4.831C889.596,268.488,882.714,258.589,866.43,260.915z"/>
		<path style="fill:#ED4F4F;" d="M876.455,261.139c1.671,10.582,6.573,27.292,6.573,27.292s7.687-14.259,6.016-19.161
			C887.373,264.368,876.455,261.139,876.455,261.139z"/>
		<path style="fill:#CC3E3E;" d="M879.011,273.368c3.187,1.498,6.299,2.607,9.133,3.307c0.641-1.994,1.086-3.916,1.128-5.474
			c-1.557-3.076-3.891-5.896-7.198-7.858c-2.624-1.263-5.063-2.034-5.532-2.178c-0.029-0.007-0.058-0.013-0.086-0.019
			C877.035,264.804,877.998,269.191,879.011,273.368z"/>
		<path style="fill:#F4B84D;" d="M870.843,260.584c-1.391,0.01-2.854,0.108-4.414,0.331c-14.419,2.06-45.229,48.571-43.224,62.162
			c0.493,3.34,7.147,6.61,16.561,7.992c6.027-5.185,12-12.082,17.277-20.334C868.632,292.613,878.164,274.432,870.843,260.584z"/>
		<path style="fill:#EDB984;" d="M840.139,310.823c-6.011,5.947-24.393,15.31-29.642,16.613c-2.741,0.681-6.558-9.399-5.347-11.585
			c1.211-2.186,22.743-20.899,22.743-20.899L840.139,310.823z"/>
		<path style="fill:#E79B69;" d="M815.321,314.966c7.625-1.54,14.782-1.447,20.091-0.059c1.893-1.499,3.532-2.903,4.727-4.085
			l-12.246-15.871c0,0-21.531,18.713-22.743,20.9c-0.232,0.418-0.232,1.206-0.065,2.198
			C808.166,316.774,811.621,315.714,815.321,314.966z"/>
		<path style="fill:#F9E8C0;" d="M850.964,294.104c-3.109-6.764-11.722-9.301-19.239-5.667c-7.516,3.635-11.09,12.065-7.981,18.829
			c3.109,6.764,11.722,9.301,19.239,5.667C850.5,309.298,854.073,300.868,850.964,294.104z"/>
		<path style="fill:#ED4F4F;" d="M843.555,310.674c13.098-6.891,29.581-29.746,27.924-38.322
			c-2.525-13.071-11.586-14.408-41.144,16.339C816.4,303.186,833.234,316.104,843.555,310.674z"/>
		<path style="fill:#CC3E3E;" d="M840.96,305.984c-5.409-5.658-0.753-18.888,10.4-29.55c5.666-5.417,11.917-9.124,17.407-10.724
			c-4.713-5.495-15.289-1.091-38.432,22.981c-13.935,14.496,2.898,27.413,13.22,21.983c1.147-0.603,2.321-1.335,3.505-2.163
			C844.561,308.364,842.454,307.546,840.96,305.984z"/>
		<path style="fill:#F9E8C0;" d="M820.313,433.894h-9.358c0,0,4.79-3.231,6.795-3.676
			C819.587,429.81,820.313,433.894,820.313,433.894z"/>
		<path style="fill:#F9E8C0;" d="M892.72,433.894h9.852c0,0-5.832-3.807-8.214-4.333C892.175,429.081,892.72,433.894,892.72,433.894
			z"/>
		<path style="fill:#D27558;" d="M876.455,261.139l9.405-11.239l8.764,10.241l-5.434,10.771
			C884.03,271.735,877.57,268.713,876.455,261.139z"/>
		<path style="fill:#EDB984;" d="M893.28,240.38c-3.661,3.909-12.199,19.392-11.857,20.73c0.341,1.339,9.539,9.096,10.834,9.392
			c1.295,0.296,16.67-20.619,16.708-23.472C909.004,244.177,894.857,238.696,893.28,240.38z"/>
		<path style="fill:#E79B69;" d="M897.144,253.639c2.947-0.439,5.81-0.522,8.487-0.3c1.951-3.01,3.323-5.461,3.335-6.31
			c0.039-2.853-14.108-8.334-15.685-6.65c-3.196,3.412-10.106,15.64-11.584,19.585C885.457,256.918,890.894,254.571,897.144,253.639
			z"/>
		<path style="fill:#7C3D2C;" d="M879.001,258.097l5.79-4.473l5.082,1.07c0,0,10.789-13.82,5.159-16.912
			c-5.63-3.092-7.599-0.969-10.11,1.967S881.431,248.364,879.001,258.097z"/>
		<path style="fill:#E79B69;" d="M888.942,252.068c0.756-2.191,0.301-4.335-1.017-4.79c-1.318-0.455-3,0.952-3.756,3.142
			c-0.756,2.191-0.301,4.335,1.018,4.79C886.504,255.666,888.186,254.259,888.942,252.068z"/>
		<path style="fill:#D27558;" d="M888.004,252.177c0.476-1.378,0.189-2.727-0.64-3.013c-0.829-0.286-1.887,0.599-2.362,1.976
			c-0.476,1.378-0.189,2.727,0.64,3.013C886.471,254.439,887.529,253.555,888.004,252.177z"/>
		<path style="fill:#E79B69;" d="M887.112,253.262c0.321-0.931,0.128-1.842-0.432-2.036s-1.275,0.404-1.596,1.335
			c-0.321,0.931-0.128,1.842,0.432,2.036S886.79,254.193,887.112,253.262z"/>
		<path style="fill:#ED4F4F;" d="M884.31,240.33c4.884-1.18,13.71,1.054,22.572,3.32c0,0,4.182-14.744-6.661-14.447
			C887.638,229.548,885.368,234.402,884.31,240.33z"/>
		<path style="fill:#CC3E3E;" d="M901.199,241.662c-5.133-3.143-8.181-7.892-7.825-11.628c-6.667,1.679-8.237,5.658-9.064,10.295
			c4.189-1.012,11.278,0.489,18.801,2.365C902.47,242.386,901.831,242.049,901.199,241.662z"/>
		<path style="fill:#F9E8C0;" d="M889.21,240.088c11.239-1.953,35.457-0.854,39.158,4.785c3.701,5.639-21.031,5.919-21.031,5.919
			C906.656,245.138,899.124,242.15,889.21,240.088z"/>
		<polygon style="fill:#4C6E9E;" points="854.547,350.63 848.308,347.139 854.398,346.545 863.31,342.237 		"/>
		<path style="fill:#F4B84D;" d="M864.105,322.52c0.445-0.844,0.474-1.702,0.065-1.917c-0.408-0.215-1.1,0.295-1.544,1.139
			c-0.444,0.844-0.474,1.702-0.065,1.917C862.969,323.873,863.661,323.363,864.105,322.52z"/>
		<path style="fill:#F4B84D;" d="M871.235,313.385c0.445-0.844,0.474-1.702,0.065-1.917c-0.408-0.215-1.1,0.295-1.544,1.139
			c-0.445,0.844-0.474,1.702-0.066,1.917C870.099,314.738,870.79,314.228,871.235,313.385z"/>
		<path style="fill:#F4B84D;" d="M877.473,303.247c0.445-0.844,0.474-1.702,0.066-1.917c-0.408-0.215-1.1,0.295-1.544,1.139
			s-0.474,1.702-0.065,1.917C876.337,304.601,877.029,304.091,877.473,303.247z"/>
		<path style="fill:#F4B84D;" d="M882.416,295.7c0.349-0.887,0.284-1.743-0.146-1.912c-0.43-0.169-1.061,0.413-1.41,1.301
			c-0.349,0.887-0.284,1.743,0.146,1.912C881.435,297.169,882.066,296.587,882.416,295.7z"/>
		<polygon style="fill:#F4B84D;" points="877.767,295.724 868.589,294.784 865.044,304.68 874.222,305.62 		"/>
		<polygon style="fill:#F4B84D;" points="875.991,292.74 873.143,292.466 871.866,297.921 875.706,298.648 		"/>
		<polygon style="fill:#F9E8C0;" points="878.386,295.476 870.514,294.558 870.514,301.364 878.386,302.282 		"/>
		<polygon style="fill:#F9E8C0;" points="876.053,292.727 873.739,292.457 873.739,294.458 876.053,294.728 		"/>
		<polygon style="fill:#F4CD9D;" points="882.186,199.072 868.1,197.83 872.062,203.145 886.147,204.387 		"/>
		<polygon style="fill:#F4CD9D;" points="798.457,260.52 781.227,279.07 785.984,284.078 803.214,265.528 		"/>
		<polygon style="fill:#E59B53;" points="856.403,191.401 813.18,294.112 858.229,193.878 		"/>
		<polygon style="fill:#E5AD5C;" points="861.528,195.708 899.553,217.394 902.82,199.867 897.77,213.384 		"/>
		<g>
			<path style="fill:#5A4949;" d="M897.036,254.379c0.496-0.781,0.545-1.596,0.109-1.823c-0.438-0.227-1.199,0.223-1.701,1.009
				c-0.503,0.788-0.551,1.609-0.108,1.832C895.778,255.62,896.539,255.163,897.036,254.379z"/>
			<path style="fill:#5A4949;" d="M899.381,256.702c0.514-0.743,1.255-1.17,1.653-0.957c0.397,0.212,0.306,0.981-0.203,1.72
				c-0.51,0.74-1.25,1.174-1.653,0.966C898.775,258.221,898.865,257.446,899.381,256.702z"/>
			<path style="fill:#7C3D2C;" d="M900.255,250.99l-1.901-2.994c-0.238-0.375-0.838-0.407-1.339-0.07l-0.995,0.669
				c-0.503,0.338-0.711,0.915-0.467,1.286l1.951,2.969c0.235,0.358,0.822,0.379,1.312,0.047l0.97-0.656
				C900.273,251.911,900.484,251.352,900.255,250.99z"/>
			<path style="fill:#7C3D2C;" d="M902.188,252.188l2.319,0.914c0.282,0.111,0.403,0.625,0.27,1.148l-0.264,1.041
				c-0.134,0.526-0.472,0.866-0.756,0.758l-2.338-0.891c-0.291-0.111-0.414-0.633-0.276-1.165l0.274-1.053
				C901.555,252.411,901.9,252.074,902.188,252.188z"/>
			<path style="fill:#D27558;" d="M897.264,256.334c0,0-0.221,0.176-0.539,0.46c0.061,1.752-0.295,4.644-2.678,3.65
				c-0.017,0.072-0.054,0.147-0.063,0.218C897.724,263.027,897.489,257.467,897.264,256.334z"/>
			<path style="fill:#443239;" d="M894.148,264.376l-3.404-5.201c0,0-2.571,0.609-3.045,1.895c-0.474,1.286,4.602,4.737,4.602,4.737
				L894.148,264.376z"/>
			<path style="fill:#F4E9D6;" d="M893.634,264.078l-2.865-4.376c0,0-2.164,0.513-2.562,1.594c-0.399,1.082,3.872,3.986,3.872,3.986
				L893.634,264.078z"/>
			<polygon style="fill:#443239;" points="891.217,262.514 890.09,259.762 888.601,260.394 			"/>
		</g>
		<g>
			<path style="fill:#EDB984;" d="M794.908,323.984c-1.023-1.25-1.374-3.506-0.646-5.576c0.727-2.069,2.806-2.617,3.562-2.517
				s2.613,1.75,1.001,3.283c-1.612,1.532-0.521,2.758-0.521,2.758L794.908,323.984z"/>
			<path style="fill:#EDB984;" d="M794.277,324.364c1.457,3.823,9.935,4.921,13.66,4.024c10.33-2.489,3.67-9.914,2.034-11.607
				c-1.636-1.692-4.16-2.529-6.23-1.231c-2.07,1.298-3.727-1.026-4.631-0.8C796.851,315.315,793.356,321.946,794.277,324.364z"/>
			<path style="fill:#EDB984;" d="M796.056,318.976c-0.523-1.53-0.061-3.753,1.349-5.414c1.41-1.661,3.557-1.423,4.232-1.058
				c0.675,0.366,1.843,2.567-0.21,3.411c-2.053,0.844-1.458,2.375-1.458,2.375L796.056,318.976z"/>
		</g>
	</g>
	<g>
		<path style="fill:#F4E2C1;" d="M253.762,169.87h-71.035c-11.911,57.501-13.389,130.922-3.57,216.899h71.215
			C240.858,301.233,242.261,227.893,253.762,169.87z"/>
		<polygon style="fill:#E5CB9C;" points="261.965,190.948 247.476,189.331 245.303,212.451 259.792,214.069 		"/>
		<polygon style="fill:#E5CB9C;" points="257.15,334.69 242.571,334.69 242.977,357.909 257.556,357.909 		"/>
		<ellipse style="fill:#493E3F;" cx="482.786" cy="400.753" rx="11.604" ry="29.753"/>
		<ellipse style="fill:#493E3F;" cx="320.037" cy="400.753" rx="11.604" ry="29.753"/>
		<rect x="266.482" y="393.91" style="fill:#493E3F;" width="341.861" height="10.413"/>
		<path style="fill:#F2DDB3;" d="M614.591,397.778H258.448c-12.359-126.925-4.691-222.492,7.141-236.239
			c13.768-15.997,238.767-7.736,255.875,7.141l59.794,164.727l31.25,15.576C615.999,365.855,616.936,382.172,614.591,397.778z"/>
		<path style="fill:#F9E6C5;" d="M581.259,333.407L521.464,168.68c-17.108-14.876-242.107-23.137-255.875-7.141
			c-7.873,9.148-13.901,54.539-13.411,121.284l161.577,36.113l159.544,15.475l39.024,14.479L581.259,333.407z"/>
		<path style="fill:#E5CB9C;" d="M265.589,161.539c-11.831,13.747-19.499,109.314-7.141,236.239h150.595
			c10.74-3.422,1.814-240.404-8.949-243.969C337.443,151.455,272.772,153.194,265.589,161.539z"/>
		<path style="fill:#665455;" d="M392.337,169.87H268.713c-11.911,57.501-13.389,130.922-3.57,216.899h134.335
			C404.814,313.458,402.532,241.145,392.337,169.87z"/>
		<rect x="263.06" y="381.851" style="fill:#CEAE7C;" width="136.733" height="4.918"/>
		<path style="fill:#4F3E3F;" d="M401.848,282.067c-1.059-37.676-4.202-75.078-9.511-112.197H268.962L401.848,282.067z"/>
		<rect x="299.805" y="226.996" style="fill:#E59B53;" width="71.11" height="73.365"/>
		<rect x="271.242" y="299.914" style="fill:#E59B53;" width="89.705" height="82.564"/>
		<rect x="299.905" y="226.996" style="fill:#EDBC6E;" width="19.966" height="67.79"/>
		<rect x="270.201" y="299.914" style="fill:#EDBC6E;" width="45.819" height="82.564"/>
		<polygon style="fill:#F7C377;" points="270.201,342.778 316.02,375.379 316.02,299.914 270.201,299.914 		"/>
		<path style="fill:#E8CC9A;" d="M257.63,169.87h-71.035c-11.911,57.501-13.389,130.922-3.57,216.899h71.215
			C244.726,301.233,246.129,227.893,257.63,169.87z"/>
		<path style="fill:#E8CC9A;" d="M330.525,174.16v208.318h66.39c5.106-70.411,2.923-139.863-6.833-208.318H330.525z"/>
		<path style="fill:#F2D7AD;" d="M327.624,174.16v208.318h66.39c5.106-70.411,2.923-139.863-6.833-208.318H327.624z"/>
		<path style="fill:#F4E2C1;" d="M366.151,202.532c-11.323-10.399-22.24-19.849-32.673-28.371h-5.854v116.117
			c5.616,5.634,11.339,11.214,17.151,16.701c17.299,16.33,34.593,31.139,51.024,43.864c1.706-41.079,0.901-81.828-2.483-122.237
			C384.647,219.909,375.579,211.19,366.151,202.532z"/>
		<g>
			<polygon style="fill:#C4A369;" points="557.906,389.893 515.514,389.893 515.514,332.109 517.284,332.109 517.284,388.108 
				556.564,388.108 571.94,332.676 573.299,334.411 			"/>
		</g>
		<polygon style="fill:#594D4E;" points="573.299,334.411 515.784,334.411 505.847,209.144 528.431,209.144 		"/>
		<path style="fill:#FCEBCD;" d="M619.16,382.604h-16.91c-1.565,0-2.833,1.268-2.833,2.833v18.731c0,1.565,1.268,2.833,2.833,2.833
			h16.91c1.749,0,3.167-1.418,3.167-3.167V385.77C622.327,384.021,620.909,382.604,619.16,382.604z"/>
		<rect x="459.727" y="391.455" style="fill:#FCEBCD;" width="114.698" height="9.372"/>
		<path style="fill:#FCEBCD;" d="M409.323,391.455h29.401c1.001,0,1.813,0.811,1.813,1.813v5.747c0,1.001-0.811,1.813-1.813,1.813
			h-29.401c-1.001,0-1.813-0.811-1.813-1.813v-5.747C407.511,392.267,408.322,391.455,409.323,391.455z"/>
		<path style="fill:#EFDABB;" d="M252.936,391.455h162.468c0.817,0,1.479,0.662,1.479,1.479v6.414c0,0.817-0.662,1.479-1.479,1.479
			H252.936c-0.817,0-1.479-0.662-1.479-1.479v-6.414C251.457,392.117,252.119,391.455,252.936,391.455z"/>
		<ellipse style="fill:#594D4E;" cx="451.843" cy="400.753" rx="11.604" ry="29.753"/>
		<ellipse style="fill:#594D4E;" cx="581.863" cy="400.753" rx="11.604" ry="29.753"/>
		<rect x="395.015" y="326.966" style="fill:#F2D7AD;" width="11.009" height="17.554"/>
		<rect x="389.956" y="189.209" style="fill:#F2D7AD;" width="11.009" height="17.554"/>
		<polygon style="fill:#7DB9D3;" points="569.714,330.944 518.112,330.944 508.745,212.64 527.266,212.863 		"/>
		<ellipse style="fill:#A58E91;" cx="454.297" cy="400.753" rx="5.484" ry="14.061"/>
		<ellipse style="fill:#A58E91;" cx="584.169" cy="400.753" rx="5.484" ry="14.061"/>
		<g>
			<path style="fill:#D8B47C;" d="M238.898,381.414h-45.013c-3.897,0-7.112-2.924-7.477-6.8
				c-7.093-75.294-6.232-140.281,2.561-193.158c0.6-3.61,3.711-6.23,7.396-6.23h44.794c2.197,0,4.275,0.954,5.702,2.619
				c1.42,1.656,2.043,3.843,1.71,6c-8.105,52.438-8.847,116.15-2.206,189.366c0.191,2.104-0.515,4.206-1.939,5.764
				C243.01,380.524,240.996,381.414,238.898,381.414z M196.365,177.011c-2.809,0-5.179,1.993-5.635,4.738
				c-8.766,52.725-9.623,117.558-2.545,192.698c0.279,2.954,2.73,5.182,5.701,5.182h45.013c1.621,0,3.116-0.66,4.21-1.858
				c1.085-1.189,1.625-2.792,1.478-4.398c-6.654-73.361-5.907-137.219,2.22-189.8c0.254-1.641-0.22-3.305-1.301-4.566
				c-1.088-1.268-2.672-1.996-4.346-1.996H196.365z"/>
		</g>
		<rect x="265.143" y="381.851" style="fill:#EFDABB;" width="59.952" height="2.538"/>
		<rect x="296.83" y="305.767" style="fill:#FFD297;" width="13.612" height="8.703"/>
		<rect x="302.408" y="231.459" style="fill:#FFD297;" width="11.157" height="8.703"/>
		<polygon style="fill:#E5AB55;" points="291.921,348.388 270.647,303.038 291.921,352.404 316.467,303.038 		"/>
		<path style="fill:#F2D7AD;" d="M341.547,266.865h-9.46v41.357h9.46c1.841,0,3.333-1.492,3.333-3.333v-34.69
			C344.881,268.357,343.388,266.865,341.547,266.865z"/>
		<path style="fill:#CC3E3E;" d="M494.253,281.559c-1.598-41.913-17.337-79.64-35.154-84.267
			c-17.817-4.627-30.964,25.599-29.366,67.512c1.598,41.913,17.337,79.64,35.154,84.267
			C482.704,353.697,495.851,323.471,494.253,281.559z M464.404,344.193c-16.771-4.326-31.583-39.611-33.083-78.812
			c-1.5-39.201,10.88-67.474,27.652-63.148c16.771,4.326,31.583,39.611,33.083,78.812
			C493.555,320.246,481.175,348.518,464.404,344.193z"/>
		<g>
			<path style="fill:#CC3E3E;" d="M458.368,274.009c0.475-1.268,1.366-5.563,1.841-7.605c0.475-2.183,2.612-9.225,3.087-10.915
				c0.475-1.408,1.603-4.648,2.256-4.648c0.653,0,0.594,0.141,0.831,1.197c0.178,1.056,0.416,1.479,0.594,2.958
				c0.475,1.479,2.078,6.549,2.85,8.732l1.841,4.718l1.069,2.817c0.059-0.211,0.119-0.422,0.237-0.634l0.594-1.76
				c0.416-1.479,0.534-4.577,1.188-7.324c0.475-2.394,1.9-6.338,2.078-8.028c0.178-1.972,0.772-2.465,1.425-2.465
				c0.475-0.141,1.425-0.282,2.138-0.282c0.297,0,0.594,0,0.772,0.07c0.534,0,0.712,0.211,0.712,0.634
				c0,0.211-0.059,0.493-0.119,0.845c-0.416,1.197-0.594,2.676-1.247,4.859c-0.594,2.183-2.434,10.915-3.087,13.38
				c-0.475,2.394-1.188,8.098-1.188,8.802c0,0.775-0.178,2.183-0.831,4.084c-0.712,2.253-2.197,13.943-2.494,14.647
				c-0.178,1.056-0.178,2.183-0.594,2.183c-0.653,0-0.831-0.422-1.247-1.479c-0.475-0.704-1.959-5.352-2.434-6.831
				c-0.475-1.338-2.019-6.619-2.494-8.239c-0.237-1.056-0.712-2.605-1.187-4.014l-0.831-2.605l-0.831,1.972
				c-0.416,1.056-1.247,3.591-2.256,6.619c-0.831,2.887-2.494,11.408-2.672,12.112c-0.237,1.056-0.831,2.465-1.247,2.465
				c-0.653,0-0.831-0.704-1.009-1.479c-0.297-0.563-1.603-8.521-2.256-10.422c-0.653-1.901-1.603-6.126-2.078-8.098
				c-0.594-1.69-3.266-13.661-3.919-16.267c-0.653-2.676-1.959-9.014-2.434-10.704c-0.178-0.704-0.237-1.127-0.237-1.408
				c0-0.352,0.178-0.352,0.416-0.352h1.841c0.534,0,1.009,0,1.425-0.07l0.653-0.141c0.891-0.282,1.009,0.493,1.247,1.972
				c0.475,1.901,1.959,8.521,3.681,13.591c0.713,2.605,1.425,5,2.078,6.901l1.009,3.098l0.237-0.915L458.368,274.009z"/>
		</g>
		<path style="fill:#F2DDB3;" d="M519.931,173.313l3.318,9.053c0,0-104.373-9.95-108.597-14.574
			C410.43,163.167,519.931,173.313,519.931,173.313z"/>
		<polygon style="fill:#91CDE2;" points="515.47,218.139 527.502,327.65 565.419,327.833 526.795,218.32 		"/>
		<polygon style="fill:#594D4E;" points="527.298,211.152 524.884,211.152 556.72,332.254 559.134,332.254 		"/>
		<path style="fill:#594D4E;" d="M601.203,351.065h-5.356c-1.315,0-2.38,1.066-2.38,2.38v2.231c0,1.315,1.066,2.38,2.38,2.38h5.356
			c1.315,0,2.38-1.066,2.38-2.38v-2.231C603.583,352.131,602.517,351.065,601.203,351.065z"/>
		<path style="fill:#FFB743;" d="M600.888,352.239h-3.387c-0.831,0-1.505,0.674-1.505,1.505v1.411c0,0.831,0.674,1.505,1.505,1.505
			h3.387c0.831,0,1.505-0.674,1.505-1.505v-1.411C602.393,352.913,601.719,352.239,600.888,352.239z"/>
		<path style="fill:#594D4E;" d="M435.319,366.087h-7.412c-1.819,0-3.294,1.145-3.294,2.557v2.398c0,1.412,1.475,2.557,3.294,2.557
			h7.412c1.819,0,3.294-1.145,3.294-2.557v-2.398C438.614,367.232,437.139,366.087,435.319,366.087z"/>
		<path style="fill:#FFB743;" d="M434.884,367.348h-4.687c-1.151,0-2.083,0.724-2.083,1.617v1.516c0,0.893,0.933,1.617,2.083,1.617
			h4.687c1.151,0,2.083-0.724,2.083-1.617v-1.516C436.967,368.072,436.034,367.348,434.884,367.348z"/>
		<path style="fill:#EFDABB;" d="M354.625,393.91h-40.91c-1.602,0-2.901,1.299-2.901,2.901v9.149c0,1.602,1.299,2.901,2.901,2.901
			h40.91c1.602,0,2.901-1.299,2.901-2.901v-9.149C357.526,395.209,356.227,393.91,354.625,393.91z"/>
		<path style="fill:#594D4E;" d="M352.338,393.91h-36.336c-1.386,0-2.51,1.124-2.51,2.51v7.922c0,1.387,1.124,2.51,2.51,2.51h36.336
			c1.387,0,2.51-1.124,2.51-2.51v-7.922C354.848,395.034,353.724,393.91,352.338,393.91z"/>
		<path style="fill:#E5CB9C;" d="M350.84,395.472h-33.341c-1.228,0-2.223,0.868-2.223,1.939v5.94c0,1.071,0.995,1.939,2.223,1.939
			h33.341c1.228,0,2.223-0.868,2.223-1.939v-5.94C353.063,396.34,352.068,395.472,350.84,395.472z"/>
		<path style="fill:#C4A369;" d="M534.659,338.235h-11.513c-0.949,0-1.719,0.77-1.719,1.719v2.699c0,0.949,0.77,1.719,1.719,1.719
			h11.513c0.949,0,1.719-0.77,1.719-1.719v-2.699C536.378,339.004,535.609,338.235,534.659,338.235z"/>
		<path style="fill:#F2DDB3;" d="M533.023,337.453h-10.695c-0.621,0-1.124,0.503-1.124,1.124v2.604c0,0.621,0.503,1.124,1.124,1.124
			h10.695c0.621,0,1.124-0.503,1.124-1.124v-2.604C534.147,337.957,533.644,337.453,533.023,337.453z"/>
	</g>
	<g>
		<path style="fill:#EDB984;" d="M321.664,293.49c-0.216,2.02,1.183,6.092,0.793,6.176c-0.37,0.079-2.296-4.697-2.167-5.312
			C320.423,293.715,321.751,292.675,321.664,293.49z"/>
		<polygon style="fill:#442F2F;" points="355.935,417.524 353.411,417.524 354.637,424.231 357.161,424.231 		"/>
		<polygon style="fill:#634545;" points="327.914,295.691 307.984,295.691 308.034,297.673 327.965,297.673 		"/>
		<polygon style="fill:#634545;" points="327.114,293.576 325.702,294.79 371.297,419.543 374.447,418.633 		"/>
		<polygon style="fill:#634545;" points="307.93,293.576 306.518,294.79 352.112,419.543 355.262,418.633 		"/>
		<path style="fill:#9E3F44;" d="M274.857,241.332c-20.999,1.222-19.26-23.24-7.134-33.703c12.127-10.463,21.858-5.561,22.184,2.33
			C290.234,217.849,300.672,239.83,274.857,241.332z"/>
		<path style="fill:#F7E0C1;" d="M297.671,274.675c-13.208-13.709-16.096-24.31-17.191-31.21c-1.095-6.901,2.419-12.323,6.544-7.26
			c4.126,5.062,12.47,25.213,16.082,32.266C305.248,272.653,300.437,277.546,297.671,274.675z"/>
		<path style="fill:#E8CDAC;" d="M292.927,257.209c-3.86-8.116-5.502-15.668-4.259-18.588c-0.598-0.987-1.152-1.812-1.644-2.416
			c-4.126-5.062-7.64,0.36-6.544,7.26c1.095,6.901,3.983,17.501,17.191,31.21c2.044,2.122,5.198-0.001,5.844-2.94
			C300.489,269.919,296.332,264.366,292.927,257.209z"/>
		<path style="fill:#634545;" d="M303.982,268.712c-0.941-3.02-4.092-5.05-7.037-4.533c-2.945,0.517-4.569,3.384-3.628,6.404
			c0.941,3.02,4.092,5.05,7.037,4.533C303.299,274.6,304.923,271.733,303.982,268.712z"/>
		<path style="fill:#EDB984;" d="M302.909,268.202c4.423,6.053,20.609,26.346,19.751,27.103
			c-0.855,0.756-22.479-15.988-27.729-23.635C291.607,266.827,299.736,263.859,302.909,268.202z"/>
		<path style="fill:#E79B69;" d="M299.3,269.02c-0.614-1.087-0.82-2.076-0.74-2.926c-3.052,0.02-5.814,2.392-3.629,5.576
			c4.89,7.123,23.98,22.132,27.264,23.545C316.279,289.776,303.089,275.726,299.3,269.02z"/>
		<path style="fill:#ED4F4F;" d="M298.377,279.051c-5.247,5.481-20.389,4.616-21.739,2.885c-1.349-1.731-2.399-47.312,0.6-50.196
			c0.731-0.704,6.124-0.971,8.546,2.885C294.479,248.472,300.762,276.559,298.377,279.051z"/>
		<path style="fill:#CC3E3E;" d="M296.442,278.429c-5.12,5.272-19.611,4.44-20.874,2.775c-1.263-1.665-1.494-45.506,1.428-48.281
			c0.713-0.677,5.883-0.934,8.137,2.775C293.228,249.016,298.77,276.032,296.442,278.429z"/>
		<path style="fill:#CC3E3E;" d="M283.733,240.383c1.624-0.251,3.197-0.569,4.713-0.94c-0.856-1.731-1.745-3.357-2.662-4.818
			c-2.421-3.855-7.814-3.588-8.546-2.885c-0.773,0.744-1.277,4.333-1.576,9.274C278.228,241.007,280.936,240.815,283.733,240.383z"
			/>
		<path style="fill:#6785B7;" d="M288.646,277.32c15.362,37.647,17.309,148.209,17.309,148.209s-27.822-65.212-33.32-105.658
			C267.137,279.426,288.646,277.32,288.646,277.32z"/>
		<path style="fill:#4C6E9E;" d="M281.145,296.072c-0.593-4.362-6.038-5.122-6.018-8.671c-4.1,6.462-6.976,16.986-4.655,34.057
			c5.498,40.446,35.484,104.071,35.484,104.071s-0.005-0.296-0.017-0.838C298.5,398.072,285.491,328.042,281.145,296.072z"/>
		<path style="fill:#6785B7;" d="M288.646,279.917l-23.584,0.865c-3.194,8.338-10.263,19.759-11.9,30.291
			c-4.051,26.058,6.498,116.845,6.498,116.845s17.678-57.843,22.767-111.869h6.219V279.917z"/>
		<path style="fill:#4C6E9E;" d="M258.432,380.866c2.715-50.111,8.06-83.853,27.112-89.194c0.708-0.198,6.839-0.492,7.54-0.172
			l-2.924-12.666l-25.098,1.947c-3.194,8.338-10.263,19.759-11.9,30.291c-3.119,20.063,2.416,78.488,5.128,104.314
			C257.756,404.692,257.772,393.035,258.432,380.866z"/>
		<path style="fill:#F7E0C1;" d="M282.876,234.624l-10.386-1.298c-0.026,13.559-0.223,27.336-10.127,53.635
			c13.255,4.969,30.032-0.266,30.032-0.266L282.876,234.624z"/>
		<path style="fill:#E8CDAC;" d="M280.29,288.244c-0.574-10.5,2.185-19.188,6.162-19.405c1.012-0.055,2.005,0.445,2.933,1.392
			l-6.51-35.606l-10.386-1.298c-0.026,13.559-0.223,27.336-10.127,53.635c5.888,2.208,12.47,2.4,17.969,1.933
			C280.318,288.678,280.302,288.462,280.29,288.244z"/>
		<path style="fill:#F7E0C1;" d="M284.463,235.057c2.751,5.318,9.664,24.233,8.943,27.118c-0.721,2.885-21.492,1.298-22.79,0.721
			c-1.298-0.577-2.885-26.973-1.875-28.56S281.198,228.746,284.463,235.057z"/>
		<path style="fill:#E8CDAC;" d="M286.673,240.021c-0.849-2.079-1.624-3.831-2.21-4.964c-3.265-6.311-14.713-2.308-15.723-0.721
			c-0.279,0.438-0.359,2.77-0.303,5.922c2.589,0.593,5.522,0.929,8.633,0.929C280.576,241.188,283.857,240.761,286.673,240.021z"/>
		<path style="fill:#E8CDAC;" d="M283.092,259.651c-0.844-1.131-10.127-23.899-9.109-25.44c0.454-0.688,2.99-1.841,5.946-2.364
			c-4.565-0.949-10.477,1.37-11.189,2.49c-1.01,1.587,0.577,27.983,1.875,28.56c1.194,0.531,18.852,1.913,22.238-0.114
			C286.387,263.157,284.176,261.102,283.092,259.651z"/>
		<path style="fill:#9E3F44;" d="M291.77,213.289c0.907-4.812-0.416-8.941-2.955-9.222c-2.539-0.281-7.138-1.079-8.045,3.734
			c-0.907,4.812,2.223,13.413,4.761,13.694C288.07,221.775,290.863,218.101,291.77,213.289z"/>
		<path style="fill:#D27558;" d="M273.626,233.327l0.089-11.179l7.352,0.83l1.896,10.085
			C282.963,233.063,281.719,240.355,273.626,233.327z"/>
		<path style="fill:#EDB984;" d="M286.215,230.765c-7.841-1.081-12.294-7.714-12.294-9.798c0-1.745-3.646-13.472,1.465-16.949
			c5.111-3.477,10.496-0.974,13.412,3.019C291.851,211.218,286.215,230.765,286.215,230.765z"/>
		<path style="fill:#E79B69;" d="M284.936,211.823c1.647,0,3.235,0.209,4.749,0.57c0.087-2.367-0.137-4.327-0.887-5.355
			c-2.916-3.993-8.301-6.496-13.412-3.019c-3.2,2.177-2.967,7.588-2.345,11.758C276.198,213.326,280.359,211.823,284.936,211.823z"
			/>
		<path style="fill:#9E3F44;" d="M269.763,227.01c8.51-10.182,10.547-23.637,6.474-23.274c-4.072,0.364-7.779,6.328-7.779,9.819
			C268.458,217.046,269.763,227.01,269.763,227.01z"/>
		<path style="fill:#CC3E3E;" d="M267.535,207.793c4.559-4.118,11.106-4.296,19.05-5.497c0,0-1.664-13.358-10.334-9.406
			C266.191,197.476,266.362,202.636,267.535,207.793z"/>
		<path style="fill:#ED4F4F;" d="M276.252,192.889c-0.558,0.254-1.079,0.51-1.575,0.768c-0.984,2.624-0.552,6.416,1.394,9.983
			c0.042,0.078,0.09,0.149,0.133,0.226c3.098-0.651,6.577-0.995,10.382-1.57C286.585,202.296,284.921,188.937,276.252,192.889z"/>
		<path style="fill:#E8CDAC;" d="M282.624,194.927c-0.688-1.259-1.988-2.128-2.904-1.942c-0.916,0.186-1.102,1.358-0.415,2.617
			s1.988,2.128,2.904,1.942C283.126,197.357,283.312,196.186,282.624,194.927z"/>
		<path style="fill:#F9E8C0;" d="M271.071,205.464c8.423-5.427,28.39-12.828,33.314-9.534c4.924,3.294-12.74,11.245-12.74,11.245
			C289.158,202.836,279.585,202.701,271.071,205.464z"/>
		<path style="fill:#EDB984;" d="M273.622,218.09c-0.944-1.748-2.534-2.72-3.552-2.17c-1.018,0.55-1.078,2.412-0.135,4.16
			c0.944,1.748,2.534,2.72,3.552,2.17C274.505,221.7,274.565,219.838,273.622,218.09z"/>
		<path style="fill:#D27558;" d="M273.014,218.55c-0.662-1.047-1.716-1.569-2.354-1.165c-0.639,0.404-0.62,1.58,0.042,2.628
			c0.662,1.047,1.716,1.569,2.354,1.165C273.695,220.773,273.676,219.597,273.014,218.55z"/>
		<path style="fill:#EDB984;" d="M273.155,219.784c-0.402-0.637-1.044-0.955-1.432-0.709c-0.389,0.246-0.377,0.961,0.025,1.599
			c0.402,0.637,1.044,0.955,1.432,0.709C273.568,221.137,273.557,220.421,273.155,219.784z"/>
		<path style="fill:#ED4F4F;" d="M254.749,279.917c5.049,5.481,19.617,4.616,20.915,2.885c1.298-1.731,1.533-42.294-0.433-45.869
			c-1.587-2.885-6.037-5.298-8.366-1.443C258.499,249.337,252.454,277.425,254.749,279.917z"/>
		<path style="fill:#CC3E3E;" d="M266.703,272.637c2.505-7.808,6.15-14.366,9.905-18.458c-0.154-8.436-0.588-15.813-1.376-17.246
			c-1.587-2.885-6.037-5.298-8.366-1.442c-8.366,13.847-14.411,41.935-12.116,44.427c2.068,2.245,5.733,3.424,9.429,3.916
			C264.622,280.318,265.456,276.522,266.703,272.637z"/>
		<path style="fill:#634545;" d="M311.512,298.28c-0.068-2.682-1.448-4.857-3.081-4.857s-2.901,2.174-2.833,4.857
			c0.069,2.682,1.448,4.857,3.081,4.857C310.312,303.137,311.58,300.963,311.512,298.28z"/>
		<path style="fill:#634545;" d="M329.831,298.28c-0.069-2.682-1.448-4.857-3.081-4.857c-1.633,0-2.901,2.174-2.833,4.857
			c0.068,2.682,1.448,4.857,3.081,4.857C328.631,303.137,329.899,300.963,329.831,298.28z"/>
		<rect x="352.112" y="415.793" style="fill:#634545;" width="37.936" height="3.75"/>
		<polygon style="fill:#E59B53;" points="411.396,403.533 386.154,400.143 353.065,417.537 387.251,417.537 		"/>
		<polygon style="fill:#634545;" points="381.358,399.133 352.148,417.776 391.238,419.147 415.543,401.513 414.894,399.782 		"/>
		<polygon style="fill:#442F2F;" points="382.007,400.864 352.798,419.507 390.156,420.084 415.543,401.513 		"/>
		<ellipse style="fill:#634545;" cx="356.296" cy="425.746" rx="3.75" ry="4.76"/>
		<path style="fill:#442F2F;" d="M388.173,425.746c0-2.629-1.679-4.76-3.75-4.76c-2.071,0-3.75,2.131-3.75,4.76
			c0,2.629,1.679,4.76,3.75,4.76C386.494,430.506,388.173,428.375,388.173,425.746z"/>
		<path style="fill:#F9E8C0;" d="M258.129,430.372h12.342c0,0-6.954-4.997-9.891-5.687
			C257.891,424.054,258.129,430.372,258.129,430.372z"/>
		<path style="fill:#F9E8C0;" d="M306.344,429.333l11.879-7.103c0,0-9.152,0.08-12.318,1.229
			C303.007,424.511,306.344,429.333,306.344,429.333z"/>
		<polygon style="fill:#4C6E9E;" points="284.21,319.078 279.018,315.076 283.453,314.968 289.728,310.208 		"/>
		<path style="fill:#CC3E3E;" d="M276.005,241.126c-0.206-2.126-0.462-3.627-0.774-4.194c-1.587-2.885-6.037-5.298-8.366-1.442
			c-0.866,1.434-1.706,3.027-2.516,4.723C267.994,240.796,271.913,241.12,276.005,241.126z"/>
		<path style="fill:#E8CDAC;" d="M272.723,248.554c0.436-6.454-0.921-11.861-3.031-12.075c-2.11-0.215-4.174,4.844-4.611,11.298
			c-0.436,6.454,0.921,11.861,3.031,12.075C270.223,260.067,272.287,255.008,272.723,248.554z"/>
		<path style="fill:#F7E0C1;" d="M284.102,276.455c-13.208-13.709-16.096-24.31-17.191-31.21c-1.095-6.9,4.444-13.444,6.544-7.26
			c3.182,9.37,8.411,22.82,16.082,32.266C292.499,273.898,286.868,279.325,284.102,276.455z"/>
		<path style="fill:#E8CDAC;" d="M286.807,272.993c-13.208-13.709-16.096-24.31-17.191-31.21c-0.34-2.141-0.235-4.139,0.193-5.727
			c-2.257,0.499-3.642,4.501-2.898,9.189c1.095,6.901,3.983,17.501,17.191,31.21c2.031,2.108,5.155,0.026,5.829-2.884
			C288.884,274.032,287.732,273.954,286.807,272.993z"/>
		<path style="fill:#634545;" d="M289.486,269.125c-1.516-2.776-5.004-4.148-7.79-3.062c-2.786,1.085-3.815,4.216-2.299,6.992
			c1.516,2.777,5.004,4.148,7.79,3.063C289.974,275.032,291.003,271.901,289.486,269.125z"/>
		<path style="fill:#EDB984;" d="M289.34,269.982c4.423,6.053,20.609,26.345,19.751,27.103
			c-0.855,0.756-22.479-15.988-27.729-23.635C278.037,268.607,286.166,265.638,289.34,269.982z"/>
		<path style="fill:#E79B69;" d="M282.678,268.919c-0.086-0.145-0.163-0.287-0.232-0.428c-1.718,0.906-2.612,2.733-1.083,4.96
			c5.026,7.321,25.048,22.969,27.496,23.627C301.492,290.491,286.36,275.096,282.678,268.919z"/>
		<polygon style="fill:#442F2F;" points="383.052,417.524 380.528,417.524 381.754,424.231 384.279,424.231 		"/>
		<path style="fill:#997676;" d="M356.873,425.746c0-1.506-0.755-2.727-1.687-2.727c-0.932,0-1.687,1.221-1.687,2.727
			c0,1.506,0.755,2.727,1.687,2.727C356.117,428.473,356.873,427.252,356.873,425.746z"/>
		<g>
			<path style="fill:#EDB984;" d="M303.39,291.703c0.936,1.904,3.4,6.777,4.206,7.055c0.806,0.278,3.504-1.518,2.057-3.209
				c-1.447-1.69-3.169-2.968-3.169-2.968L303.39,291.703z"/>
			<path style="fill:#EDB984;" d="M307.355,293.242c1.644,1.193,5.873,2.006,5.751,2.385c-0.116,0.361-5.217-0.346-5.686-0.764
				C306.933,294.43,306.693,292.761,307.355,293.242z"/>
			<path style="fill:#EDB984;" d="M304.965,294.579c2.672,2.855,2.77,7.513,3.123,7.739c0.353,0.227,0.933-2.42-0.082-4.455
				C306.086,294.018,304.965,294.579,304.965,294.579z"/>
			<path style="fill:#EDB984;" d="M306.514,295.272c2.961,2.575,3.341,6.497,3.795,6.722c0.448,0.222,0.387-2.864-0.997-4.723
				C308.057,295.586,306.514,295.272,306.514,295.272z"/>
			<path style="fill:#EDB984;" d="M307.363,294.108c3.108,2.887,3.521,5.912,3.816,6.027c0.283,0.11,0.271-2.05-0.873-3.715
				C308.976,294.481,307.363,294.108,307.363,294.108z"/>
		</g>
		<g>
			<path style="fill:#EDB984;" d="M317.329,290.577c1.347,1.64,4.858,5.821,5.706,5.907c0.848,0.086,3.064-2.279,1.269-3.594
				c-1.795-1.315-5.561-2.876-5.561-2.876L317.329,290.577z"/>
			<path style="fill:#EDB984;" d="M319.518,293.017c3.254,2.169,4.413,6.681,4.809,6.821c0.396,0.14,0.355-2.57-1.098-4.318
				C320.482,292.214,319.518,293.017,319.518,293.017z"/>
			<path style="fill:#EDB984;" d="M321.185,293.337c3.471,1.83,4.737,5.562,5.23,5.677c0.487,0.114-0.277-2.877-2.049-4.37
				C322.759,293.29,321.185,293.337,321.185,293.337z"/>
			<path style="fill:#EDB984;" d="M321.746,292.01c3.686,2.101,4.779,4.951,5.092,4.995c0.301,0.043-0.205-2.057-1.698-3.417
				C323.401,292.005,321.746,292.01,321.746,292.01z"/>
		</g>
		<g>
			<path style="fill:#5A4949;" d="M281.681,215.519c-0.085-1.119-0.633-1.971-1.222-1.903c-0.59,0.068-0.999,1.03-0.913,2.149
				c0.085,1.119,0.633,1.971,1.222,1.903C281.358,217.6,281.767,216.638,281.681,215.519z"/>
			<path style="fill:#5A4949;" d="M287.733,215.487c-0.046-1.091-0.588-1.976-1.21-1.976c-0.623,0-1.09,0.883-1.044,1.974
				c0.046,1.091,0.588,1.976,1.21,1.976C287.311,217.462,287.778,216.578,287.733,215.487z"/>
			<path style="fill:#722F39;" d="M281.982,209.02l-3.208,0.887c-0.394,0.109-0.66,0.501-0.593,0.876l0.132,0.743
				c0.066,0.375,0.44,0.59,0.834,0.481l3.208-0.887c0.394-0.109,0.66-0.501,0.593-0.876l-0.132-0.743
				C282.75,209.126,282.377,208.911,281.982,209.02z"/>
			<path style="fill:#722F39;" d="M289.264,210.363l-2.981-0.691c-0.366-0.085-0.725,0.144-0.801,0.511l-0.151,0.728
				c-0.076,0.367,0.159,0.734,0.526,0.819l2.981,0.691c0.366,0.085,0.725-0.144,0.801-0.511l0.151-0.728
				C289.866,210.814,289.631,210.448,289.264,210.363z"/>
			<path style="fill:#D27558;" d="M284.332,217.965c0,0-0.062,0.18-0.139,0.458c0.87,1.077,1.999,2.993-0.042,3.135
				c0.023,0.05,0.034,0.109,0.062,0.157C287.783,221.989,285.017,218.605,284.332,217.965z"/>
			<path style="fill:#3F3132;" d="M280.893,222.374c-0.019,0.096-0.046,0.187-0.059,0.286c-0.212,1.712,0.685,3.325,2.004,3.602
				c1.319,0.277,2.56-0.886,2.773-2.598c0.009-0.074,0.005-0.145,0.01-0.218L280.893,222.374z"/>
			<path style="fill:#FBF3D6;" d="M284.844,224.93c0.192-0.331,0.334-0.719,0.388-1.157c0.008-0.062,0.004-0.122,0.008-0.183
				l-3.972-0.901c-0.016,0.08-0.039,0.157-0.049,0.241c-0.055,0.445-0.012,0.876,0.094,1.274L284.844,224.93z"/>
		</g>
	</g>
	<path style="fill:#FF5A5A;" d="M950.161,431.589H49.839c0,0,233.825,14.595,458.905,14.595S950.161,431.589,950.161,431.589z"/>
	<g>
		<path style="fill:#EDB984;" d="M189.993,267.224l-1.517,6.242C192.664,272.39,191.396,268.515,189.993,267.224z"/>
		<path style="fill:#9E3F44;" d="M152.199,214.066c1.005-4.717-0.193-8.764-2.674-9.039c-2.481-0.275-6.971-1.057-7.975,3.66
			c-1.005,4.717,1.856,13.147,4.337,13.422C148.369,222.383,151.195,218.783,152.199,214.066z"/>
		<path style="fill:#9E3F44;" d="M143.965,231.001c-9.34,11.158-20.389,6.741-20.389,6.741s-11.301,5.811-13.606-4.417
			c-2.306-10.228,5.533-12.32,5.533-12.32s-4.019-1.976-0.619-7.904c3.4-5.928,13.699-4.068,13.699-4.068s6.888-10.693,14.171,0.349
			C148.662,219.611,143.965,231.001,143.965,231.001z"/>
		<path style="fill:#ED4F4F;" d="M163.768,278.062c-11.077-3.923-15.856-25.704-16.642-32.322c-0.786-6.618,2.858-11.91,6.672-7.126
			c3.814,4.784,8.934,25.516,12.463,28.172C169.791,269.443,167.348,279.33,163.768,278.062z"/>
		<path style="fill:#CC3E3E;" d="M166.975,270.508c-11.077-3.923-15.856-25.704-16.642-32.322c-0.053-0.449-0.085-0.892-0.099-1.326
			c-2.171,0.609-3.636,4.445-3.109,8.881c0.786,6.618,5.565,28.398,16.642,32.322c2.517,0.891,4.469-3.73,4.181-7.477
			C167.637,270.647,167.311,270.627,166.975,270.508z"/>
		<path style="fill:#E79B69;" d="M165.226,267.071c6.37-1.83,26.059-7.288,26.417-6.221c0.357,1.064-24.604,17.836-28.133,16.751
			C159.989,276.518,160.654,268.384,165.226,267.071z"/>
		<path style="fill:#6785B7;" d="M158.526,275.35L133.651,279c-2.832,8.302-9.071,20.936-10.299,31.422
			c-3.038,25.943,2.187,60.344,21.169,115.609h1.395c0,0,18.03-57.842,20.85-112.116C167.94,291.31,158.526,275.35,158.526,275.35z"
			/>
		<path style="fill:#4C6E9E;" d="M137.397,299.653c3.051-4.339,18.662-8.988,25.489-14.097c-2.147-6.445-4.361-10.206-4.361-10.206
			L133.651,279c-2.832,8.302-9.071,20.936-10.299,31.422c-3.038,25.943,2.187,60.344,21.169,115.609h0.377
			C136.842,400.339,131.482,308.065,137.397,299.653z"/>
		<polygon style="fill:#4C6E9E;" points="149.979,315.712 140.967,313.908 148.791,318.87 145.209,426.836 150.976,318.396 
			159.842,310.525 		"/>
		<path style="fill:#F7D054;" d="M129.08,291.285c10.58,2.305,30.693-6.664,32.137-8.678c1.444-2.015-1.43-41.26-9.827-46.374
			c-8.398-5.114-21.657-3.061-24.855,0.968S119.831,289.27,129.08,291.285z"/>
		<g>
			<path style="fill:#F4B84D;" d="M152.686,278.733c-0.011-1.026-0.463-1.843-1.009-1.823c-0.546,0.019-0.979,0.867-0.968,1.894
				c0.011,1.026,0.463,1.843,1.009,1.823C152.264,280.608,152.697,279.76,152.686,278.733z"/>
			<path style="fill:#F4B84D;" d="M152.605,271.377c-0.011-1.026-0.463-1.843-1.009-1.823c-0.546,0.019-0.979,0.867-0.968,1.893
				c0.011,1.026,0.463,1.843,1.009,1.823C152.183,273.251,152.617,272.403,152.605,271.377z"/>
			<path style="fill:#F4B84D;" d="M152.04,263.253c-0.12-1.017-0.657-1.779-1.199-1.702c-0.542,0.077-0.884,0.964-0.764,1.98
				c0.12,1.017,0.657,1.779,1.199,1.702C151.818,265.156,152.16,264.27,152.04,263.253z"/>
		</g>
		<path style="fill:#F4B84D;" d="M134.047,242.043c8.079,0,15.229-1.464,19.45-3.685c-0.66-0.943-1.362-1.672-2.108-2.126
			c-8.398-5.114-21.657-3.061-24.855,0.968c-0.461,0.58-0.928,2.078-1.362,4.216C127.901,241.82,130.898,242.043,134.047,242.043z"
			/>
		<path style="fill:#F4B84D;" d="M139.016,291.069c0.789-5.739,0.984-12.616,0.421-19.954c-1.425-18.584-7.171-33.303-13.021-33.741
			c-3.164,5.037-6.471,51.92,2.664,53.91C131.894,291.898,135.384,291.708,139.016,291.069z"/>
		<path style="fill:#ED4F4F;" d="M146.883,234.261c-5.587-1.677-11.98-1.222-16.244,0.351c10.068,4.718,18.093,24.749,18.093,24.749
			l1.871-0.465C150.602,258.896,153.191,244.347,146.883,234.261z"/>
		<path style="fill:#CC3E3E;" d="M146.883,234.261c-5.587-1.677-11.98-1.222-16.244,0.351c2.965,1.389,5.751,4.111,8.209,7.255
			c4.009-0.298,7.645-0.962,10.623-1.888C148.846,238.003,148.008,236.061,146.883,234.261z"/>
		<path style="fill:#ED4F4F;" d="M135.058,281.328c-10.28-6.114-11.565-29.076-11.301-35.924c0.264-6.848,4.679-11.497,7.68-5.918
			s4.786,27.546,7.841,30.916C142.334,273.773,138.38,283.304,135.058,281.328z"/>
		<path style="fill:#CC3E3E;" d="M138.549,276.446c-10.28-6.114-11.565-29.076-11.301-35.924c0.047-1.227,0.23-2.382,0.512-3.422
			c-2.05,0.601-3.837,4.022-4.002,8.303c-0.264,6.848,1.021,29.81,11.301,35.924c1.919,1.141,4.046-1.558,4.913-4.69
			C139.499,276.768,139.018,276.725,138.549,276.446z"/>
		<path style="fill:#F4D69A;" d="M141.691,276.07c0.993-3.581-0.399-6.664-3.108-6.884c-2.709-0.221-5.711,2.504-6.703,6.085
			c-0.993,3.581,0.399,6.664,3.109,6.884C137.697,282.376,140.699,279.652,141.691,276.07z"/>
		<path style="fill:#EDB984;" d="M137.206,270.337c6.741-3.092,27.604-12.456,28.144-11.487
			c0.539,0.967-24.552,22.467-28.576,22.129C132.76,280.642,132.368,272.556,137.206,270.337z"/>
		<path style="fill:#E79B69;" d="M155.769,266.322c-9.401,5.512-18.334,7.869-20.486,5.497c-2.681,3.15-1.877,8.877,1.491,9.16
			c3.341,0.281,21.198-14.488,26.854-20.062C161.397,262.732,158.735,264.583,155.769,266.322z"/>
		<path style="fill:#E5C59E;" d="M194.721,243.088l-18.412-2.911c-0.673-0.106-1.332,0.312-1.528,0.972l-10.749,36.058
			c-0.23,0.772,0.257,1.557,1.045,1.681l18.412,2.911c0.673,0.106,1.331-0.312,1.528-0.972l10.75-36.058
			C195.996,243.997,195.509,243.213,194.721,243.088z"/>
		<path style="fill:#F7E0C1;" d="M196.032,243.32l-18.412-2.911c-0.673-0.106-1.331,0.312-1.528,0.972l-10.749,36.058
			c-0.23,0.772,0.257,1.556,1.045,1.681l18.412,2.911c0.673,0.107,1.332-0.312,1.528-0.972l10.749-36.058
			C197.308,244.229,196.82,243.445,196.032,243.32z"/>
		<path style="fill:#D27558;" d="M133.933,233.706l0.356-10.957l7.186,0.814l1.616,9.885
			C143.091,233.448,141.696,240.596,133.933,233.706z"/>
		<path style="fill:#EDB984;" d="M147.856,230.887c-12.033-1.539-13.507-5.792-13.922-7.441c-0.415-1.649-2.603-15.611,2.49-19.018
			c5.093-3.408,11.472-2.517,12.869,2.089C152.134,215.883,147.856,230.887,147.856,230.887z"/>
		<path style="fill:#E79B69;" d="M150.011,209.986c-0.156-1.21-0.387-2.379-0.717-3.469c-1.397-4.606-7.776-5.497-12.869-2.089
			c-3.691,2.469-3.558,10.477-3.047,15.329C138.095,214.823,144.344,211.275,150.011,209.986z"/>
		<path style="fill:#9E3F44;" d="M130.298,227.515c8.587-9.98,10.907-23.169,6.906-22.812c-4.001,0.356-7.778,6.202-7.862,9.624
			C129.259,217.748,130.298,227.515,130.298,227.515z"/>
		<path style="fill:#ED4F4F;" d="M128.661,208.943c2.571-3.686,10.905-4.476,18.721-5.653c0,0-1.309-13.094-9.902-9.22
			C127.508,198.566,127.635,203.888,128.661,208.943z"/>
		<path style="fill:#CC3E3E;" d="M137.725,193.973c-0.083,0.035-0.161,0.06-0.245,0.098c-9.972,4.495-9.845,9.817-8.818,14.872
			c1.501-2.152,4.972-3.314,9.151-4.145C134.609,200.539,134.575,195.747,137.725,193.973z"/>
		<path style="fill:#F9E8C0;" d="M132.099,206.396c8.387-5.32,28.136-12.574,32.883-9.345c4.747,3.229-12.758,11.022-12.758,11.022
			C149.891,203.82,140.51,203.688,132.099,206.396z"/>
		<path style="fill:#F9E8C0;" d="M145.002,430.768h13.001c0,0-7.567-5.246-10.693-5.97
			C144.446,424.136,145.002,430.768,145.002,430.768z"/>
		<path style="fill:#F9E8C0;" d="M146.674,430.768h-8.842c0,0,4.55-5.145,6.594-5.854
			C146.298,424.264,146.674,430.768,146.674,430.768z"/>
		<polygon style="fill:#4C6E9E;" points="154.78,290.177 147.99,292.097 148.441,296.925 155.232,295.005 		"/>
		<polygon style="fill:#DBC1A2;" points="153.737,290.381 149.385,291.612 149.674,294.706 154.027,293.475 		"/>
		<path style="fill:#CC3E3E;" d="M132.429,242.021c-0.317-1.024-0.646-1.892-0.992-2.535c-2.344-4.357-5.55-2.475-6.968,1.82
			C126.92,241.703,129.602,241.952,132.429,242.021z"/>
		<path style="fill:#F4D69A;" d="M143.694,195.816c-0.534-0.939-1.607-1.544-2.396-1.353c-0.79,0.191-0.997,1.107-0.463,2.045
			c0.534,0.938,1.607,1.544,2.396,1.353C144.021,197.67,144.228,196.754,143.694,195.816z"/>
		<polygon style="fill:#FFEBD2;" points="169.441,263.69 188.044,275.306 192.779,259.421 174.177,247.805 		"/>
		<g>
			<g>
				<path style="fill:#5A4949;" d="M142.282,215.711c0.018-1.086-0.341-1.956-0.801-1.939c-0.46,0.017-0.843,0.913-0.857,1.998
					c-0.013,1.079,0.345,1.938,0.801,1.923C141.881,217.677,142.265,216.792,142.282,215.711z"/>
				<path style="fill:#5A4949;" d="M150.938,215.405c0.038-1.093-0.308-1.969-0.774-1.952c-0.465,0.017-0.87,0.92-0.904,2.012
					c-0.034,1.087,0.312,1.951,0.774,1.936C150.495,217.384,150.9,216.493,150.938,215.405z"/>
				<path style="fill:#9E3F44;" d="M143.923,209.724l-3.735,0.899c-0.457,0.11-0.792,0.575-0.75,1.037l0.084,0.915
					c0.042,0.46,0.444,0.745,0.899,0.637l3.716-0.884c0.459-0.109,0.801-0.573,0.764-1.037l-0.074-0.923
					C144.788,209.902,144.384,209.613,143.923,209.724z"/>
				<path style="fill:#9E3F44;" d="M151.583,210.415l-2.624-1.016c-0.323-0.125-0.676,0.146-0.788,0.604l-0.223,0.905
					c-0.112,0.455,0.058,0.924,0.379,1.049l2.609,1.009c0.32,0.124,0.674-0.142,0.79-0.596l0.23-0.902
					C152.072,211.012,151.906,210.54,151.583,210.415z"/>
			</g>
			<path style="fill:#FAF0DB;" d="M152.029,214.154l-4.998,0.15l-0.127,4.552c-0.032,1.133,0.88,2.023,2.038,1.994l0.728-0.018
				c1.161-0.029,2.139-0.971,2.183-2.108L152.029,214.154z"/>
			<path style="fill:#FAF0DB;" d="M145.601,214.626l-5.887,0.192l-0.057,4.556c-0.014,1.106,0.816,1.976,1.855,1.947l2.033-0.057
				c1.043-0.029,1.913-0.95,1.941-2.061L145.601,214.626z"/>
			<polygon style="fill:#FAF0DB;" points="130.851,214.89 130.542,216.036 151.907,215.293 151.952,214.137 			"/>
			<path style="fill:#EDB984;" d="M151.53,215.111l-3.61,0.106l-0.1,3.292c-0.025,0.822,0.635,1.469,1.475,1.447l0.528-0.014
				c0.842-0.022,1.55-0.706,1.581-1.53L151.53,215.111z"/>
			<path style="fill:#EDB984;" d="M144.656,215.371l-4.052,0.12l-0.047,3.273c-0.012,0.817,0.742,1.457,1.685,1.433l0.592-0.015
				c0.945-0.025,1.727-0.707,1.746-1.527L144.656,215.371z"/>
			<g>
				<path style="fill:#5A4949;" d="M141.558,217.538c0.456-0.015,0.841-0.901,0.86-1.982c0.001-0.059-0.01-0.107-0.011-0.165
					l-1.631,0.051c-0.003,0.06-0.016,0.112-0.017,0.173C140.744,216.695,141.102,217.554,141.558,217.538z"/>
				<path style="fill:#5A4949;" d="M150.173,217.245c0.462-0.016,0.868-0.907,0.907-1.996c0.002-0.045-0.007-0.082-0.006-0.126
					l-1.657,0.051c-0.003,0.047-0.014,0.087-0.016,0.134C149.366,216.396,149.711,217.261,150.173,217.245z"/>
			</g>
			<path style="fill:#D27558;" d="M146.204,216.761c0,0-0.101,0.206-0.236,0.528c0.783,1.399,1.702,3.813-0.589,3.704
				c0.017,0.062,0.019,0.132,0.042,0.192C149.335,221.991,146.858,217.617,146.204,216.761z"/>
			<path style="fill:#2D171A;" d="M147.592,223.598l-5.825-0.217c0,0,0.605,3.724,3.016,3.513
				C147.193,226.682,147.592,223.598,147.592,223.598z"/>
			<path style="fill:#FAF0DB;" d="M142.636,224.732c-0.262-0.635-0.355-1.201-0.355-1.201l4.857,0.181c0,0-0.104,0.799-0.543,1.537
				L142.636,224.732z"/>
		</g>
		<path style="fill:#EDB984;" d="M135.825,217.116c-0.613-1.833-1.983-3.007-3.059-2.624c-1.077,0.383-1.453,2.18-0.84,4.012
			c0.613,1.833,1.983,3.008,3.06,2.624C136.062,220.745,136.438,218.948,135.825,217.116z"/>
		<path style="fill:#D27558;" d="M135.186,217.417c-0.468-1.131-1.412-1.802-2.109-1.5c-0.697,0.303-0.883,1.465-0.415,2.596
			c0.468,1.131,1.412,1.802,2.109,1.5C135.468,219.71,135.654,218.548,135.186,217.417z"/>
		<path style="fill:#EDB984;" d="M135.11,218.654c-0.285-0.688-0.859-1.097-1.283-0.913s-0.537,0.891-0.253,1.579
			c0.285,0.688,0.859,1.097,1.283,0.913C135.281,220.049,135.394,219.342,135.11,218.654z"/>
		<g>
			<path style="fill:#EDB984;" d="M160.324,261.986c2.445-0.43,4.791-0.061,5.635-0.792c0.844-0.731,1.145-3.899-1.474-2.902
				c-2.618,0.997-5.054,2.377-5.054,2.377L160.324,261.986z"/>
			<path style="fill:#EDB984;" d="M160.677,259.974c2.301-1.325,6.132-5.33,6.395-5.108c0.25,0.211-4.117,5.115-4.846,5.472
				C161.47,260.71,159.75,260.508,160.677,259.974z"/>
			<path style="fill:#EDB984;" d="M160.175,262.714c4.588-1.911,8.972-0.776,9.438-1.068c0.467-0.292-1.562-1.572-4.184-1.097
				C160.472,261.446,160.175,262.714,160.175,262.714z"/>
			<path style="fill:#EDB984;" d="M161.944,261.351c4.539-2.274,8.447-1.615,8.986-2.008c0.531-0.388-2.37-1.145-5.098-0.255
				C163.358,259.894,161.944,261.351,161.944,261.351z"/>
			<path style="fill:#EDB984;" d="M161.484,260.195c4.936-2.338,8.036-1.949,8.357-2.213c0.309-0.254-1.701-0.813-4.075-0.112
				C163.003,258.685,161.484,260.195,161.484,260.195z"/>
		</g>
		<path style="fill:#EDB984;" d="M189.753,269.278c-0.506-0.953-1.172-1.584-1.488-1.411c-0.316,0.173-0.162,1.086,0.344,2.038
			c0.506,0.952,1.172,1.584,1.488,1.411C190.413,271.143,190.259,270.231,189.753,269.278z"/>
		<path style="fill:#EDB984;" d="M190.737,267.197c-0.506-0.953-1.172-1.584-1.488-1.411c-0.316,0.173-0.162,1.086,0.344,2.038
			c0.506,0.953,1.172,1.584,1.488,1.411C191.397,269.063,191.243,268.15,190.737,267.197z"/>
		<path style="fill:#EDB984;" d="M189.222,271.641c-0.339-0.639-0.871-1.018-1.187-0.845c-0.316,0.173-0.297,0.831,0.042,1.47
			c0.339,0.639,0.871,1.018,1.187,0.845C189.58,272.938,189.561,272.28,189.222,271.641z"/>
	</g>
	<g>
		
			<rect x="737.767" y="364.794" transform="matrix(0.9766 0.2149 -0.2149 0.9766 100.8847 -154.0164)" style="fill:#EDBC6E;" width="41.719" height="44.154"/>
		<polygon style="fill:#F9C882;" points="781.81,378.579 739.242,377.9 733.509,403.948 774.253,412.915 		"/>
		
			<rect x="721.553" y="358.533" transform="matrix(0.9766 0.2149 -0.2149 0.9766 98.8742 -148.0488)" style="fill:#E59B53;" width="17.257" height="44.154"/>
		<polygon style="fill:#E28D47;" points="738.923,381.038 743.355,360.904 726.5,357.194 722.538,375.2 		"/>
		<polygon style="fill:#FFE0BB;" points="750.587,398.042 739.589,395.431 737.667,402.429 748.665,405.04 		"/>
		<polygon style="fill:#FFE0BB;" points="773.32,371.477 779.131,372.755 778.082,377.523 779.92,377.853 781.332,371.433 
			773.632,369.738 		"/>
		<polygon style="fill:#FFE0BB;" points="777.303,373.958 767.825,371.883 767.468,373.29 776.946,375.365 		"/>
	</g>
	<g>
		<path style="fill:#443232;" d="M723.658,118.116l15.194,1.219c1.236,0.099,2.158,1.182,2.059,2.418l-0.106,1.323
			c-0.099,1.237-1.182,2.158-2.418,2.059l-15.194-1.219c-1.237-0.099-2.158-1.182-2.059-2.418l0.106-1.323
			C721.339,118.938,722.422,118.016,723.658,118.116z"/>
		<polygon style="fill:#443232;" points="737.767,121.11 735.54,122.34 741.591,136.217 747.625,132.544 		"/>
		<path style="fill:#826565;" d="M741.362,107.389l-18.878-2.109c-2.599,4.957-3.245,10.364-2.23,16.151l23.195,2.359
			C743.719,117.491,743.225,111.849,741.362,107.389z"/>
		<path style="fill:#685353;" d="M723.558,114.784c4.515,3.256,12.04,0.535,16.807-6.076c0.316-0.438,0.609-0.883,0.885-1.331
			l0.112,0.013c1.862,4.46,2.356,10.101,2.087,16.402l-23.195-2.359c-0.696-3.969-0.61-7.759,0.35-11.347
			C721.058,112.033,722.032,113.684,723.558,114.784z"/>
		<path style="fill:#685353;" d="M737.48,122.069c-0.658,2.283,0.658,4.667,2.941,5.325c2.282,0.658,4.667-0.658,5.325-2.941
			c0.658-2.283-0.658-4.667-2.941-5.325C740.522,118.47,738.138,119.787,737.48,122.069z"/>
		<path style="fill:#D6CBB6;" d="M739.331,122.603c-0.363,1.26,0.363,2.576,1.623,2.94c1.26,0.363,2.576-0.364,2.94-1.624
			c0.363-1.26-0.363-2.576-1.623-2.94C741.01,120.616,739.694,121.343,739.331,122.603z"/>
		<path style="fill:#443232;" d="M795.29,166.743l-10.129-2.921l-0.927,3.213c-0.43,1.492,0.431,3.051,1.923,3.482l4.725,1.363
			c1.492,0.43,3.051-0.43,3.482-1.923L795.29,166.743z"/>
		<path style="fill:#443232;" d="M779.245,162.115l-10.129-2.921l-0.927,3.213c-0.43,1.492,0.43,3.051,1.923,3.482l4.725,1.363
			c1.492,0.43,3.051-0.43,3.482-1.923L779.245,162.115z"/>
		<path style="fill:#443232;" d="M759.473,156.413l-10.129-2.921l-0.927,3.213c-0.43,1.492,0.43,3.051,1.923,3.482l4.725,1.363
			c1.492,0.43,3.051-0.43,3.482-1.923L759.473,156.413z"/>
		<path style="fill:#443232;" d="M834.781,150.164l-13.51-7.06c-1.099-0.574-2.456-0.149-3.031,0.95l-0.615,1.176
			c-0.575,1.099-0.149,2.456,0.95,3.031l13.51,7.06c1.099,0.574,2.456,0.149,3.031-0.95l0.615-1.176
			C836.306,152.096,835.881,150.739,834.781,150.164z"/>
		<path style="fill:#443232;" d="M788.242,134.076l-14.646-4.224c-1.192-0.344-2.437,0.344-2.78,1.536l-0.368,1.275
			c-0.344,1.192,0.344,2.437,1.536,2.78l14.646,4.224c1.192,0.344,2.437-0.344,2.78-1.536l0.368-1.275
			C790.122,135.665,789.434,134.42,788.242,134.076z"/>
		<g>
			<path style="fill:#443232;" d="M784.779,186.855l0.561-1.945c6.457,1.862,11.562-0.987,14.185-4.275
				c3.004-3.765,3.556-8.712,1.407-12.603l1.772-0.979c2.547,4.61,1.92,10.437-1.596,14.844
				C797.24,186.745,790.984,188.644,784.779,186.855z"/>
		</g>
		<g>
			<path style="fill:#443232;" d="M767.556,182.114c-4.822-4.295-6.55-10.601-4.511-16.457c1.854-5.324,6.449-8.961,11.707-9.265
				l0.117,2.021c-4.438,0.256-8.329,3.361-9.913,7.91c-1.383,3.972-1.072,9.81,3.946,14.28L767.556,182.114z"/>
		</g>
		
			<rect x="754.061" y="174.95" transform="matrix(0.9395 0.3425 -0.3425 0.9395 111.9002 -251.8729)" style="fill:#EDBC6E;" width="30.174" height="31.936"/>
		<polygon style="fill:#F9C882;" points="786.563,187.196 756.112,182.628 749.505,200.753 777.854,211.087 		"/>
		
			<rect x="743.116" y="167.735" transform="matrix(0.9395 0.3425 -0.3425 0.9395 108.2299 -245.5274)" style="fill:#E59B53;" width="12.482" height="31.936"/>
		<polygon style="fill:#E28D47;" points="755.582,184.847 760.689,170.838 748.962,166.563 744.395,179.091 		"/>
		<g>
			<path style="fill:#544040;" d="M747.233,176.026c-6.204-1.789-10.489-6.729-11.181-12.891
				c-0.629-5.603,1.943-10.868,6.554-13.414l0.978,1.772c-3.891,2.149-6.058,6.631-5.521,11.417c0.47,4.18,3.273,9.31,9.73,11.172
				L747.233,176.026z"/>
		</g>
		<path style="fill:#544040;" d="M749.684,175.782c0.412-1.43,0.053-2.79-0.802-3.037c-0.856-0.247-1.884,0.713-2.296,2.143
			c-0.413,1.43-0.053,2.79,0.802,3.037C748.243,178.172,749.271,177.212,749.684,175.782z"/>
		<path style="fill:#544040;" d="M749.674,172.371c0.188-0.653,0.076-1.26-0.25-1.354c-0.327-0.094-0.744,0.359-0.933,1.012
			c-0.189,0.654-0.076,1.26,0.25,1.354C749.068,173.477,749.486,173.024,749.674,172.371z"/>
		<path style="fill:#544040;" d="M747.781,178.934c0.188-0.653,0.076-1.26-0.25-1.354c-0.327-0.094-0.744,0.359-0.933,1.012
			c-0.188,0.653-0.076,1.26,0.25,1.354C747.175,180.041,747.593,179.588,747.781,178.934z"/>
		<path style="fill:#544040;" d="M750.557,176.005c0.155-0.537,0.016-1.049-0.311-1.143c-0.327-0.094-0.717,0.265-0.872,0.802
			c-0.155,0.537-0.016,1.049,0.311,1.143C750.012,176.901,750.402,176.542,750.557,176.005z"/>
		<path style="fill:#443232;" d="M736.09,163.387c0.609-0.621,1.245-1.183,1.901-1.683c-0.08-4.321,2.03-8.244,5.593-10.211
			l-0.978-1.772c-4.611,2.546-7.183,7.812-6.554,13.414C736.062,163.22,736.079,163.303,736.09,163.387z"/>
		<polygon style="fill:#443232;" points="779.623,131.667 782.997,132.64 781.79,147.511 772.492,144.529 		"/>
		<polygon style="fill:#443232;" points="821.245,145.185 822.475,147.413 809.963,155.936 806.812,149.614 		"/>
		<path style="fill:#685353;" d="M773.872,117.303l19.567,5.643c1.342,5.465-0.47,11.007-2.826,15.969l-22.85-6.59
			C768.996,126.442,771.01,120.748,773.872,117.303z"/>
		<path style="fill:#826565;" d="M825.508,131.658l17.102,8.268c-0.44,5.58-2.772,10.5-6.714,14.858l-20.889-10.355
			C818.134,138.953,821.556,134.441,825.508,131.658z"/>
		<path style="fill:#443232;" d="M797.045,164.615c-0.568,1.969,0.568,4.026,2.537,4.594c1.969,0.568,4.026-0.568,4.594-2.537
			c0.568-1.969-0.568-4.026-2.537-4.594C799.67,161.51,797.613,162.646,797.045,164.615z"/>
		<path style="fill:#443232;" d="M741.455,148.583c-0.568,1.969,0.568,4.026,2.537,4.594c1.969,0.568,4.026-0.568,4.594-2.537
			c0.568-1.969-0.568-4.026-2.537-4.594C744.079,145.478,742.023,146.614,741.455,148.583z"/>
		<path style="fill:#443232;" d="M747.813,146.116l-1.936,6.712c-0.454,1.574,0.454,3.218,2.028,3.672l46.973,13.548
			c1.574,0.454,3.218-0.454,3.672-2.028l1.936-6.712L747.813,146.116z"/>
		<polygon style="fill:#513F3F;" points="800.117,167.052 745.067,151.175 739.39,142.048 809.782,162.349 		"/>
		<polygon style="fill:#5B4747;" points="793.062,165.018 760.468,155.617 757.92,147.392 799.599,159.413 		"/>
		<path style="fill:#685353;" d="M810.572,163.162l-72.284-20.847c-1.801-0.519,1.612-12.35,3.412-11.831
			c0.727-2.521,73.011,18.326,72.284,20.847C815.929,151.892,812.517,163.723,810.572,163.162z"/>
		<polygon style="fill:#FFE0BB;" points="762.314,198.156 754.68,195.23 752.631,200.062 760.266,202.988 		"/>
		<polygon style="fill:#FFE0BB;" points="781.158,181.29 785.201,182.764 783.992,186.081 785.278,186.494 786.906,182.027 
			781.548,180.074 		"/>
		<polygon style="fill:#FFE0BB;" points="783.775,183.451 777.18,181.055 776.789,182.029 783.385,184.425 		"/>
		<path style="fill:#826565;" d="M780.134,148.181c13.04,3.761,25.122,6.232,34.155,7.198c0.4-2.092,0.414-3.84-0.304-4.047
			c0.727-2.521-71.556-23.368-72.284-20.847c-0.452-0.13-1.006,0.519-1.553,1.572C747.647,136.964,762.521,143.101,780.134,148.181z
			"/>
		<path style="fill:#826565;" d="M793.439,122.947l-19.567-5.643c-0.39,0.469-0.763,0.984-1.121,1.531
			c-0.297,5.915,3.569,11.51,9.624,13.257c3.977,1.147,8.041,0.388,11.184-1.731C794.003,127.914,794.047,125.423,793.439,122.947z"
			/>
		<path style="fill:#685353;" d="M836.64,147.398c-5.555,0.352-10.476-5.958-10.99-14.093c-0.034-0.539-0.045-1.071-0.04-1.598
			l-0.102-0.049c-3.951,2.783-7.374,7.295-10.501,12.771l20.889,10.355c2.703-2.989,4.648-6.242,5.746-9.791
			C840.221,146.4,838.518,147.279,836.64,147.398z"/>
		<path style="fill:#685353;" d="M820.977,146.15c-0.658,2.283-3.042,3.599-5.325,2.941c-2.283-0.658-3.599-3.042-2.941-5.325
			c0.658-2.283,3.042-3.599,5.325-2.941C820.319,141.484,821.635,143.868,820.977,146.15z"/>
		<path style="fill:#D6CBB6;" d="M819.126,145.617c-0.363,1.26-1.68,1.987-2.94,1.624c-1.26-0.363-1.987-1.68-1.623-2.94
			c0.363-1.26,1.68-1.987,2.94-1.624C818.763,143.04,819.49,144.356,819.126,145.617z"/>
		<path style="fill:#B79898;" d="M804.677,148.501c0.12-0.418-10.344-4.242-23.651-8.079c-13.307-3.838-24.417-6.236-24.538-5.819
			c-0.12,0.418,10.794,3.493,24.101,7.331C793.896,145.772,804.556,148.918,804.677,148.501z"/>
		
			<rect x="790.327" y="151.777" transform="matrix(0.9608 0.2771 -0.2771 0.9608 73.7768 -215.198)" style="fill:#443232;" width="15.856" height="3.289"/>
		
			<rect x="784.328" y="148.271" transform="matrix(0.9608 0.2771 -0.2771 0.9608 72.32 -211.9486)" style="fill:#443232;" width="3.542" height="3.289"/>
		<path style="fill:#B79898;" d="M785.181,121.753c0.097-0.337-2.031-1.248-4.753-2.033c-2.723-0.785-5.009-1.148-5.106-0.811
			c-0.097,0.337,2.031,1.247,4.753,2.033S785.083,122.09,785.181,121.753z"/>
		<path style="fill:#B79898;" d="M791.339,123.529c0.097-0.337-0.924-0.928-2.282-1.32c-1.358-0.392-2.537-0.435-2.634-0.098
			c-0.097,0.338,0.924,0.928,2.282,1.32C790.063,123.823,791.242,123.867,791.339,123.529z"/>
		<path style="fill:#B79898;" d="M834.88,137.799c0.152-0.316-1.66-1.506-4.048-2.656c-2.388-1.151-4.447-1.827-4.6-1.511
			c-0.153,0.316,1.66,1.506,4.047,2.656C832.669,137.439,834.728,138.116,834.88,137.799z"/>
		<path style="fill:#B79898;" d="M840.282,140.403c0.152-0.316-0.689-1.038-1.88-1.612c-1.191-0.574-2.279-0.783-2.432-0.466
			c-0.153,0.316,0.689,1.038,1.88,1.612C839.041,140.51,840.13,140.719,840.282,140.403z"/>
		<path style="fill:#B79898;" d="M732.655,107.925c0.029-0.35-2.09-0.81-4.732-1.027c-2.642-0.217-4.807-0.109-4.836,0.241
			c-0.029,0.35,2.09,0.81,4.732,1.027C730.461,108.383,732.626,108.275,732.655,107.925z"/>
		<path style="fill:#B79898;" d="M738.887,108.139c0.029-0.35-1.016-0.722-2.333-0.83c-1.317-0.108-2.409,0.088-2.437,0.438
			c-0.029,0.35,1.016,0.721,2.333,0.83C737.767,108.685,738.858,108.489,738.887,108.139z"/>
	</g>
	<g>
		<polygon style="fill:#E59B53;" points="374.654,385.45 334.117,385.339 329.765,430.071 370.302,430.182 		"/>
		
			<rect x="376.386" y="322.422" transform="matrix(1 0.0027 -0.0027 1 0.9678 -1.1049)" style="fill:#E5AD5C;" width="57.104" height="62.558"/>
		<polygon style="fill:#EDBC6E;" points="376.362,362.344 400.059,367.255 416.955,322.454 376.471,322.344 		"/>
		
			<rect x="402.099" y="376.529" transform="matrix(1 0.0027 -0.0027 1 1.1037 -1.2156)" style="fill:#E59B53;" width="86.948" height="53.858"/>
		<polygon style="fill:#EDBC6E;" points="349.493,385.381 324.223,385.312 321.464,430.048 346.734,430.117 		"/>
		
			<rect x="354.161" y="376.357" transform="matrix(1 0.0027 -0.0027 1 1.1032 -1.044)" style="fill:#E5AD5C;" width="57.104" height="53.858"/>
		<polygon style="fill:#EDBC6E;" points="354.108,422.546 411.291,393.499 411.338,376.435 354.234,376.28 		"/>
		
			<rect x="378.813" y="327.674" transform="matrix(1 0.0027 -0.0027 1 0.9052 -1.0451)" style="fill:#F4DAB5;" width="9.012" height="6.829"/>
		
			<rect x="391.599" y="379.007" transform="matrix(1 0.0027 -0.0027 1 1.0465 -1.0895)" style="fill:#F4DAB5;" width="15.297" height="6.829"/>
		<polygon style="fill:#F4DAB5;" points="335.2,387.09 326.353,387.065 325.952,391.751 334.798,391.775 		"/>
		
			<rect x="397.512" y="386.959" transform="matrix(1 0.0027 -0.0027 1 1.061 -1.0959)" style="fill:#F4DAB5;" width="9.012" height="2.369"/>
		
			<rect x="425.198" y="363.614" transform="matrix(1 0.0027 -0.0027 1 1.0852 -1.2459)" style="fill:#E5AD5C;" width="63.406" height="66.555"/>
		<polygon style="fill:#EDBC6E;" points="425.133,420.701 488.637,384.788 488.695,363.701 425.289,363.528 		"/>
		
			<rect x="466.775" y="366.883" transform="matrix(1 0.0027 -0.0027 1 1.0155 -1.2969)" style="fill:#F4DAB5;" width="16.985" height="8.439"/>
		
			<rect x="473.339" y="376.708" transform="matrix(1 0.0027 -0.0027 1 1.0335 -1.3036)" style="fill:#F4DAB5;" width="10.007" height="2.928"/>
	</g>
</g>
</svg>
