<?xml version="1.0" encoding="utf-8"?>
<!-- Generator: Adobe Illustrator 27.5.0, SVG Export Plug-In . SVG Version: 6.00 Build 0)  -->
<svg version="1.1" xmlns="http://www.w3.org/2000/svg" xmlns:xlink="http://www.w3.org/1999/xlink" x="0px" y="0px"
	 viewBox="0 0 750 500" style="enable-background:new 0 0 750 500;" xml:space="preserve">
<g id="BACKGROUND">
	<rect id="XMLID_35_" style="fill:#FFFFFF;" width="750" height="500"/>
</g>
<g id="OBJECT">
	<path id="XMLID_50_" style="fill:#D2D2F9;" d="M707,413H53c-13.255,0-24-10.745-24-24l0,0c0-13.255,10.745-24,24-24h654
		c13.255,0,24,10.745,24,24l0,0C731,402.255,720.255,413,707,413z"/>
	<g id="XMLID_26_">
		<g id="XMLID_29_">
			<polygon id="XMLID_81_" style="fill:#5A5AAD;" points="243.219,226.104 214.695,226.104 214.695,171.433 242.724,172.423 			"/>
			<polygon id="XMLID_80_" style="fill:#A6A6E8;" points="295.638,226.228 242.774,226.228 242.681,172.454 295.638,171.556 			"/>
			<rect id="XMLID_78_" x="271.001" y="190.573" style="fill:#5A5AAD;" width="1.337" height="34.789"/>
			<polygon id="XMLID_77_" style="fill:#5A5AAD;" points="243.566,173.81 271.694,190.548 271.694,192.133 243.665,175.097 			"/>
			<polygon id="XMLID_76_" style="fill:#5A5AAD;" points="295.167,173.116 273.675,189.854 273.675,191.439 295.092,174.404 			"/>
		</g>
		<g id="XMLID_32_">
			<polygon id="XMLID_88_" style="fill:#5A5AAD;" points="173.93,226.104 145.405,226.104 145.405,171.433 173.435,172.423 			"/>
			<polygon id="XMLID_85_" style="fill:#A6A6E8;" points="226.348,226.228 173.484,226.228 173.391,172.454 226.348,171.556 			"/>
			<rect id="XMLID_62_" x="201.711" y="190.573" style="fill:#5A5AAD;" width="1.337" height="34.789"/>
			<polygon id="XMLID_58_" style="fill:#5A5AAD;" points="174.276,173.81 202.405,190.548 202.405,192.133 174.376,175.097 			"/>
			<polygon id="XMLID_36_" style="fill:#5A5AAD;" points="225.878,173.116 204.386,189.854 204.386,191.439 225.802,174.404 			"/>
		</g>
		<g id="XMLID_91_">
			<polygon id="XMLID_107_" style="fill:#5A5AAD;" points="104.64,226.104 76.116,226.104 76.116,171.433 104.145,172.423 			"/>
			<polygon id="XMLID_104_" style="fill:#A6A6E8;" points="157.059,226.228 104.195,226.228 104.102,172.454 157.059,171.556 			"/>
			<rect id="XMLID_98_" x="132.422" y="190.573" style="fill:#5A5AAD;" width="1.337" height="34.789"/>
			<polygon id="XMLID_95_" style="fill:#5A5AAD;" points="104.987,173.81 133.115,190.548 133.115,192.133 105.086,175.097 			"/>
			<polygon id="XMLID_92_" style="fill:#5A5AAD;" points="156.589,173.116 135.096,189.854 135.096,191.439 156.513,174.404 			"/>
		</g>
		<g id="XMLID_110_">
			<polygon id="XMLID_126_" style="fill:#5A5AAD;" points="209.688,172.467 181.164,172.467 181.164,117.795 209.193,118.785 			"/>
			<polygon id="XMLID_123_" style="fill:#A6A6E8;" points="262.107,172.59 209.242,172.59 209.149,118.816 262.107,117.919 			"/>
			<rect id="XMLID_117_" x="237.47" y="136.935" style="fill:#5A5AAD;" width="1.337" height="34.789"/>
			<polygon id="XMLID_114_" style="fill:#5A5AAD;" points="210.035,120.172 238.163,136.91 238.163,138.495 210.134,121.46 			"/>
			<polygon id="XMLID_111_" style="fill:#5A5AAD;" points="261.636,119.479 240.144,136.217 240.144,137.801 261.561,120.766 			"/>
		</g>
		<g id="XMLID_129_">
			<polygon id="XMLID_145_" style="fill:#5A5AAD;" points="137.924,172.652 109.4,172.652 109.4,117.981 137.429,118.971 			"/>
			<polygon id="XMLID_142_" style="fill:#A6A6E8;" points="190.343,172.776 137.478,172.776 137.385,119.002 190.343,118.104 			"/>
			<rect id="XMLID_136_" x="165.705" y="137.121" style="fill:#5A5AAD;" width="1.337" height="34.789"/>
			<polygon id="XMLID_133_" style="fill:#5A5AAD;" points="138.271,120.358 166.399,137.096 166.399,138.681 138.37,121.645 			"/>
			<polygon id="XMLID_130_" style="fill:#5A5AAD;" points="189.872,119.664 168.38,136.402 168.38,137.987 189.796,120.952 			"/>
		</g>
		<g id="XMLID_22_">
			<path id="XMLID_49_" style="fill:#BFBDFF;" d="M471.357,294.668c0,24.076-18.218,44.617-41.908,45.597
				c-0.586,0.022-1.18,0.037-1.774,0.037c-7.661,0-14.469-4.959-16.756-12.272c-5.754-18.456-22.205-31.774-41.603-31.774
				c-21.908,0-40.059,16.993-43.289,39.191c-0.401,2.799-2.828,4.855-5.65,4.855h-16.11c-3.163,0-5.724-2.561-5.724-5.724V168.596
				c0-10.95,8.879-19.829,19.829-19.829h91.811c21.151,0,30.363,14.73,34.149,36.519l24.321,89.687l1.982,11.403
				C471.12,289.167,471.357,291.944,471.357,294.668z"/>
			<path id="XMLID_24_" style="fill:#FFFFFF;" d="M434.802,224.418l-10.206-44.181c-2.224-9.627-3.331-16.623-15.74-16.623h-71.456
				c-6.426,0-11.636,3.923-11.636,8.762v73.34c0,1.397,1.504,2.53,3.359,2.53h9.451c1.657,0,58.465,0,62.962,0h17.582
				C435.11,248.247,437.668,236.824,434.802,224.418z"/>
			<path id="XMLID_27_" style="fill:#BFBDFF;" d="M316.733,285.6v41.354c0,7.441-6.032,13.473-13.473,13.473H186.453
				c-6.115,0-11.394-4.137-13.023-10.031c-5.316-19.227-22.126-33.273-42.049-33.273c-19.916,0-36.732,14.046-42.049,33.273
				c-1.63,5.893-6.908,10.03-13.023,10.03l0,0c-7.441,0-13.473-6.032-13.473-13.473V285.6c0-7.441,6.032-13.473,13.473-13.473
				H303.26C310.701,272.127,316.733,278.159,316.733,285.6z"/>
			<path id="XMLID_17_" style="fill:#8282DB;" d="M299.287,287.593H59.867c-12.095,0-21.9-9.805-21.9-21.901v-49.369h261.32V287.593
				z"/>
			
				<ellipse id="XMLID_2_" transform="matrix(0.9077 -0.4197 0.4197 0.9077 -109.6973 186.978)" style="fill:#8282DB;" cx="370.061" cy="342.777" rx="36.624" ry="36.624"/>
			
				<ellipse id="XMLID_16_" transform="matrix(0.234 -0.9722 0.9722 0.234 -231.3886 391.8695)" style="fill:#8282DB;" cx="132.992" cy="342.777" rx="36.624" ry="36.624"/>
			<circle id="XMLID_19_" style="fill:#BFBDFF;" cx="132.497" cy="341.293" r="19.302"/>
			<circle id="XMLID_20_" style="fill:#BFBDFF;" cx="370.061" cy="341.293" r="20.292"/>
			<path id="XMLID_15_" style="fill:#8282DB;" d="M460.88,243.792h-2.475c-6.97,0-12.621-5.65-12.621-12.621v-25.241
				c0-6.97,5.65-12.621,12.621-12.621h2.475c6.97,0,12.621,5.65,12.621,12.621v25.241C473.5,238.142,467.85,243.792,460.88,243.792z
				"/>
			<path id="XMLID_31_" style="fill:#8282DB;" d="M471.357,294.668c0,24.076-18.218,44.617-41.908,45.597v-41.781
				c0-12.984,10.527-23.511,23.511-23.511h15.694l1.982,11.403C471.12,289.167,471.357,291.944,471.357,294.668z"/>
			<ellipse id="XMLID_12_" style="fill:#BFBDFF;" cx="455.683" cy="296.749" rx="6.929" ry="14.353"/>
			<path id="XMLID_18_" style="fill:#7070C4;" d="M272.932,241.565H58.382c-3.075,0-5.568-2.493-5.568-5.568l0,0
				c0-3.075,2.493-5.568,5.568-5.568h214.55c3.075,0,5.568,2.493,5.568,5.568l0,0C278.5,239.072,276.007,241.565,272.932,241.565z"
				/>
			<path id="XMLID_25_" style="fill:#7070C4;" d="M272.932,264.579H58.382c-3.075,0-5.568-2.493-5.568-5.568v0
				c0-3.075,2.493-5.568,5.568-5.568h214.55c3.075,0,5.568,2.493,5.568,5.568v0C278.5,262.086,276.007,264.579,272.932,264.579z"/>
		</g>
	</g>
	<g id="XMLID_181_">
		<path id="XMLID_37_" style="fill:#FF906C;" d="M133.479,168.323c0,0,0.253,10.08,5.74,13.013c1.627,0.867,2.807,1.607,3.68,2.36
			c2.087,1.793,2.487,3.713,3.207,7.847h15.313l-1.147-12.507c0,0,4.333-9.187,4.46-17.733c0.133-8.547-10.587-15.44-20.667-10.713
			c0,0-5.487,2.293-6.38,9.44c-0.3,2.407-0.88,4.133-1.507,5.367C134.933,167.817,133.479,168.323,133.479,168.323z"/>
		<path id="XMLID_34_" style="fill:#C65C00;" d="M164.693,165.812c0,0-33.767-12.163-36.234-15.225s10.717,0.595,10.717,0.595
			s6.975-9.016,17.096-5.103S169.201,159.688,164.693,165.812z"/>
		<path id="XMLID_33_" style="fill:#593F00;" d="M150.383,160.39c0,0-1.595,3.211,1.042,8.144c0,0,2.467-4.338,5.443-2.126
			c2.977,2.211-0.68,11.142-4.933,9.186c0,0,2.296,4.763,8.335,3.445c0,0,4.933-9.058,4.423-13.226L150.383,160.39z"/>
		<path id="XMLID_148_" style="fill:#593F00;" d="M126.152,269.499c0,0,8.265,56.015,11.632,71.319
			c3.367,15.305,3.979,40.404,3.979,40.404h20.508l-3.673-58.157l-2.449-22.039l3.061,0.918l19.59,79.278h20.814l-16.835-87.848
			l-4.898-23.875H126.152z"/>
		<polygon id="XMLID_143_" style="fill:#FFF8BD;" points="84.217,202.158 92.482,214.555 117.887,209.964 101.817,179.967 
			74.116,181.956 		"/>
		<path id="XMLID_30_" style="fill:#FFF8BD;" d="M133.479,168.323c0,0,0.253,10.08,5.74,13.013c1.627,0.867,2.807,1.607,3.68,2.36
			c0.107-0.02,0.213-0.04,0.32-0.06c5.493-1.173,7.333-14.84,7.333-14.84l-14.373-3.4
			C134.933,167.817,133.479,168.323,133.479,168.323z"/>
		<path id="XMLID_146_" style="fill:#FF906C;" d="M123.397,222.322l-11.019-9.298c0,0-5.51-7.805-7.231-9.183
			c-1.722-1.377-3.788-1.607-7.002-1.492c-3.214,0.115-5.395,1.951-5.05,3.673c0.344,1.722,5.969-0.115,5.969-0.115l0.574,1.148
			c0,0-4.247-1.377-4.706,0.459c-0.459,1.837,4.821,3.788,5.739,4.132c0.918,0.344,1.148,2.87,2.87,3.903
			c1.722,1.033,7.231,10.331,11.593,13.2C119.494,231.62,123.397,222.322,123.397,222.322z"/>
		<path id="XMLID_38_" style="fill:#C65C00;" d="M144.211,190.221c0,0,20.049-8.417,27.854-5.663
			c7.805,2.755,1.377,12.856,1.377,12.856s6.275,30.15,3.52,59.535c0,0,7.805,17.83,3.826,27.013l-53.26-4.362
			c0,0-2.984-7.346-1.377-23.186l14.386-53.337C140.538,203.077,137.783,197.873,144.211,190.221z"/>
		<path id="XMLID_28_" style="fill:#FF906C;" d="M118.793,233.768c0,0-13.176,10.797-22.614,7.014
			c-9.439-3.783-14.354-35.676-14.354-35.676s-2.679-4.758-2.224-8.465c0.455-3.706,2.171-8.028,3.793-7.453
			c1.622,0.575,0.282,7.051,0.282,7.051l1.226,4.571l0.976,0.295c2.129,0.643,3.921,2.097,4.989,4.048l11.608,21.195l10.65-6.009
			L118.793,233.768z"/>
		<path id="XMLID_39_" style="fill:#FFB323;" d="M125.6,209.352c0,0,13.661-11.076,23.462-8.631
			c9.801,2.445,3.626,13.903-4.574,20.712c-8.2,6.809-27.735,16.091-27.735,16.091l-7.314-16.952L125.6,209.352z"/>
		<path id="XMLID_40_" style="fill:#D33F00;" d="M94.127,207.113c0,0,6.485-10.273,8.092-10.445
			c1.607-0.172,0.631,1.492,0.057,2.353c-0.574,0.861-5.28,7.576-5.28,7.576s-2.238,0.344-2.009,1.492
			c0.23,1.148-0.689,1.837-1.435,2.468S91.602,210.499,94.127,207.113z"/>
		<path id="XMLID_149_" style="fill:#593F00;" d="M145.665,380.61l0.689,8.494c0,0-16.759,8.264-14.692,9.871
			c2.066,1.607,30.074,0,30.074,0l-3.444-17.906L145.665,380.61z"/>
		<path id="XMLID_150_" style="fill:#593F00;" d="M182.855,381.299l1.148,6.428c0,0-9.183,9.412-6.657,10.101
			c2.525,0.689,24.105,0,24.105,0L196.4,380.61L182.855,381.299z"/>
	</g>
	<g id="XMLID_180_">
		<path id="XMLID_9_" style="fill:#C65C00;" d="M327.832,179.665c0,0,7.461,3.387,20.726,24.109
			c13.264,20.722,45.424,9.71,45.424,9.71l0.153,9.795l-18.114,19.156c0,0-23.09,6.134-35.453-8.902
			C328.206,218.497,327.832,179.665,327.832,179.665z"/>
		<path id="XMLID_5_" style="fill:#593F00;" d="M274.569,259.4c0,0,4.248,76.463,4.248,79.553c0,3.089,3.476,46.728,3.476,46.728
			h18.923l-0.772-52.906l6.565-45.054h5.02l10.813,43.123l6.565,55.224h18.15l-5.406-80.325l-5.406-46.728L274.569,259.4z"/>
		<path id="XMLID_4_" style="fill:#FFB323;" d="M299.707,171.99c0,0-9.423,1.787-16.571,7.636
			c-7.148,5.849-11.211,78.542-8.124,92.514l62.891,0.198c0,0-5.052-79.877-7.002-86.863
			C328.951,178.488,320.665,170.365,299.707,171.99z"/>
		<path id="XMLID_23_" style="fill:#FF906C;" d="M325.791,152.499c0,0-0.28,11.142-6.345,14.384
			c-1.798,0.958-3.102,1.776-4.068,2.609c-2.306,1.982-2.749,4.105-3.544,8.673h-16.927l1.267-13.824c0,0-4.79-10.154-4.93-19.602
			c-0.147-9.447,11.702-17.067,22.844-11.842c0,0,6.065,2.535,7.052,10.434c0.332,2.66,0.973,4.569,1.665,5.932
			C324.184,151.939,325.791,152.499,325.791,152.499z"/>
		<path id="XMLID_1_" style="fill:#C65C00;" d="M291.288,149.724c0,0,37.325-13.444,40.051-16.829
			c2.727-3.385-11.846,0.658-11.846,0.658s-7.709-9.966-18.897-5.641C289.408,132.237,286.305,142.954,291.288,149.724z"/>
		<path id="XMLID_3_" style="fill:#593F00;" d="M307.106,143.73c0,0,1.763,3.549-1.152,9.002c0,0-2.726-4.795-6.017-2.35
			c-3.291,2.444,0.752,12.316,5.453,10.154c0,0-2.538,5.265-9.214,3.808c0,0-5.453-10.013-4.889-14.62L307.106,143.73z"/>
		<rect id="XMLID_10_" x="327.498" y="207.098" style="fill:#5A5AAD;" width="36.223" height="46.635"/>
		<rect id="XMLID_8_" x="352.876" y="207.098" style="fill:#A6A6E8;" width="49.888" height="46.635"/>
		<path id="XMLID_6_" style="fill:#FFF8BD;" d="M358.154,225.148c0,0,4.055-2.8,7.048-4.827c2.993-2.028,8.11-2.896,10.427-1.352
			c2.317,1.545-2.8,2.027-3.669,2.51s3.958-0.676,5.696,0.676c1.738,1.352-5.986,3.186-5.407,3.572
			c0.579,0.386,3.669-1.159,5.407-0.097c1.738,1.062-5.407,2.317-4.634,3.379c0,0,2.317-0.869,3.476,0
			c1.159,0.869-4.731,4.827-10.523,5.793c-5.793,0.965-10.234-1.062-10.234-1.062L358.154,225.148z"/>
		<path id="XMLID_11_" style="fill:#FFF8BD;" d="M402.375,215.747c0,0,2.124-0.708,3.926,1.609c1.802,2.317-0.322,4.699-0.322,4.699
			s1.48,1.995-0.064,4.119c0,0,1.159,1.416-0.515,3.154c0,0,0.644,1.287-0.772,3.218c-1.416,1.931-3.991,1.867-4.956,0.901
			c-0.966-0.965,2.832-3.089,2.832-3.089s-3.733,0.965-4.184-0.837c-0.451-1.802,3.604-2.961,3.604-2.961s-3.347,0.965-3.862-0.837
			c-0.515-1.802,4.184-3.669,4.184-3.669s-2.961,1.802-3.797-0.579c-0.837-2.381,3.669-4.119,3.669-4.119L402.375,215.747z"/>
		<path id="XMLID_13_" style="fill:#593F00;" d="M285.575,385.101l0.386,4.827c0,0-11.971,7.917-11.006,9.461
			c0.965,1.545,21.626,0,23.171,0c1.545,0-0.579-13.902-0.579-13.902L285.575,385.101z"/>
		<path id="XMLID_14_" style="fill:#593F00;" d="M344.274,383.363l0.894,6.565c0,0,11.971,7.917,11.006,9.461
			c-0.965,1.545-21.626,0-23.171,0s-1.28-14.771-1.28-14.771L344.274,383.363z"/>
		<path id="XMLID_21_" style="fill:#FFF8BD;" d="M325.791,152.499c0,0-0.28,11.142-6.345,14.384
			c-1.798,0.958-3.102,1.776-4.068,2.609c-0.118-0.022-0.236-0.044-0.354-0.066c-6.072-1.297-8.106-16.404-8.106-16.404
			l15.888-3.758C324.184,151.939,325.791,152.499,325.791,152.499z"/>
		<path id="XMLID_7_" style="fill:#C65C00;" d="M282.258,180.885c0,0,13.085,21.12,21.12,34.895
			c8.035,13.774,44.995,0.689,54.178,7.346c9.183,6.658,7.117,14.004-7.805,17.906c-14.922,3.903-42.241,6.198-51.194-0.23
			s-21.949-26.853-23.416-38.108C273.675,191.439,278.126,181.803,282.258,180.885z"/>
	</g>
	<g id="XMLID_179_">
		<path id="XMLID_144_" style="fill:#593F00;" d="M543.428,394.284l0.386,4.827c0,0-11.971,7.917-11.006,9.461
			c0.966,1.545,21.626,0,23.171,0c1.545,0-0.579-13.902-0.579-13.902L543.428,394.284z"/>
		<path id="XMLID_141_" style="fill:#593F00;" d="M496.809,392.546l-0.894,6.565c0,0-11.971,7.917-11.006,9.461
			c0.966,1.545,21.626,0,23.171,0c1.545,0,1.28-14.771,1.28-14.771L496.809,392.546z"/>
		<path id="XMLID_153_" style="fill:#DB6B4D;" d="M513.664,183.028c-9.972,3.324-34.894,43.848-34.894,43.848l-30.303,8.953
			c0,0-4.132-2.143-9.489-1.531c-5.357,0.612,1.684,3.52,1.684,3.52s-11.632,5.357-10.56,6.428c1.071,1.071,4.132,0.612,6.122-0.153
			c0,0-5.204,2.602-3.979,3.826c1.224,1.224,5.816-0.459,5.816-0.459s-5.204,3.214-2.449,3.52c2.755,0.306,5.051-0.459,5.051-0.459
			s-3.979,2.449-0.153,2.296c3.826-0.153,10.254-6.581,10.254-6.581s29.997-1.684,41.322-9.948
			c11.325-8.264,30.456-33.67,31.527-39.18C524.683,191.598,519.174,181.191,513.664,183.028z"/>
		<path id="XMLID_43_" style="fill:#037F56;" d="M508.446,184.73l-18.875,24.06l20.043,12.799c0,0,12.974-16.614,14.697-23.641
			c1.301-5.303,0.244-12.243-5.542-15.433C515.285,180.594,510.902,181.599,508.446,184.73z"/>
		<path id="XMLID_147_" style="fill:#009768;" d="M558.2,268.81c0,0-1.148,75.653-1.148,78.742c0,3.089,1.739,47.311,1.739,47.311
			h-18.923l-4.625-52.362l-1.168-45.599h-5.02l-10.813,43.123l-6.565,55.224h-18.15l5.406-80.325l1.415-46.344L558.2,268.81z"/>
		<path id="XMLID_154_" style="fill:#FF906C;" d="M498.73,156.173c0,0,0.28,11.142,6.345,14.384
			c1.798,0.958,3.102,1.776,4.068,2.609c2.307,1.982,2.749,4.105,3.544,8.673h16.927l-1.267-13.824c0,0,4.79-10.154,4.93-19.602
			c0.147-9.447-11.702-17.067-22.844-11.842c0,0-6.065,2.535-7.052,10.434c-0.332,2.66-0.973,4.569-1.665,5.932
			C500.337,155.613,498.73,156.173,498.73,156.173z"/>
		<path id="XMLID_151_" style="fill:#FFF8BD;" d="M498.73,156.173c0,0,0.28,11.142,6.345,14.384
			c1.798,0.958,3.102,1.776,4.068,2.609c0.118-0.022,0.236-0.044,0.354-0.066c6.072-1.297,8.106-16.403,8.106-16.403l-15.888-3.758
			C500.337,155.613,498.73,156.173,498.73,156.173z"/>
		<path id="XMLID_155_" style="fill:#593F00;" d="M533.483,144.307c-0.306-7.729-10.407-19.666-16.912-20.279
			c-6.504-0.612-5.816,2.143-5.816,2.143s-6.734-2.143-8.494,1.454c-1.76,3.597,1.99,5.433,1.99,5.433s-4.591,0.077-3.52,2.755
			c1.071,2.678,8.264,4.898,13.009,7.04c4.744,2.143,3.674,4.55,3.674,4.55s-1.763,3.549,1.152,9.002c0,0,2.726-4.795,6.017-2.35
			c3.291,2.445-0.752,12.316-5.453,10.154c0,0,2.538,5.265,9.214,3.808c0,0,5.905-9.017,6.9-15.827
			C536.238,145.378,533.483,144.307,533.483,144.307z"/>
		<path id="XMLID_135_" style="fill:#00ECB5;" d="M528.662,177.671c0,0,6.734,2.449,16.223,25.1
			c9.489,22.651,15.078,67.96,15.078,67.96l-60.129-0.845c0,0,4.034-45.995,6.483-60.993c2.449-14.999,6.369-27.053,6.369-27.053
			L528.662,177.671z"/>
		<path id="XMLID_140_" style="fill:#FF906C;" d="M524.989,187.007c-9.972,3.324-34.894,43.848-34.894,43.848l-30.303,8.953
			c0,0-4.132-2.143-9.489-1.531c-5.357,0.612,1.684,3.52,1.684,3.52s-11.632,5.357-10.56,6.428c1.071,1.071,4.132,0.612,6.122-0.153
			c0,0-5.204,2.602-3.979,3.826c1.224,1.224,5.816-0.459,5.816-0.459s-5.203,3.214-2.449,3.52c2.755,0.306,5.051-0.459,5.051-0.459
			s-3.979,2.449-0.153,2.296c3.826-0.153,10.254-6.581,10.254-6.581s29.997-1.684,41.322-9.948
			c11.325-8.264,30.456-33.67,31.527-39.18C536.009,195.577,530.499,185.17,524.989,187.007z"/>
		<path id="XMLID_41_" style="fill:#009768;" d="M519.072,187.87l-18.875,24.06l20.043,12.799c0,0,12.974-16.614,14.698-23.641
			c1.301-5.303,0.244-12.243-5.542-15.433C525.911,183.734,521.528,184.739,519.072,187.87z"/>
	</g>
	<g id="XMLID_176_">
		<path id="XMLID_177_" style="fill:#593F00;" d="M664.428,392.507l1.227,4.955c0,0,14.614,3.915,14.165,5.782
			c-0.449,1.867-21.621,7.225-23.166,7.742c-1.544,0.516-4.066-14.093-4.066-14.093L664.428,392.507z"/>
		<path id="XMLID_178_" style="fill:#593F00;" d="M626.158,386.109l-3.24,4.332c0,0,6.597,14.612,4.765,15.497
			c-1.833,0.885-20.437-12.882-21.896-13.802c-1.46-0.92,8.829-12.793,8.829-12.793L626.158,386.109z"/>
		<path id="XMLID_168_" style="fill:#037C54;" d="M656.659,277.489c0,0,1.467,51.077,0.501,62.668
			c-0.966,11.591-28.978,49.262-28.978,49.262l-16.904-11.591l17.87-42.984l0.966-59.405L656.659,277.489z"/>
		<path id="XMLID_48_" style="fill:#009768;" d="M644.362,183.193c0,0,11.591,5.796,17.87,37.43l-13.765,0.966L644.362,183.193z"/>
		<path id="XMLID_47_" style="fill:#00ECB5;" d="M618.464,177.141c0,0-9.423,1.787-16.571,7.636
			c-7.148,5.849-11.211,78.542-8.124,92.514l62.891,0.198c0,0-5.052-79.877-7.002-86.863
			C647.708,183.64,639.422,175.517,618.464,177.141z"/>
		<rect id="XMLID_172_" x="630.157" y="220.621" style="fill:#5A5AAD;" width="36.223" height="46.635"/>
		<rect id="XMLID_169_" x="655.535" y="220.621" style="fill:#A6A6E8;" width="49.888" height="46.635"/>
		<path id="XMLID_46_" style="fill:#FF906C;" d="M644.288,156.173c0,0-0.28,11.142-6.345,14.384
			c-1.798,0.958-3.102,1.776-4.068,2.609c-2.306,1.982-2.749,4.105-3.544,8.673h-16.927l1.268-13.824c0,0-4.79-10.154-4.93-19.602
			c-0.147-9.447,11.702-17.067,22.844-11.842c0,0,6.065,2.535,7.052,10.434c0.332,2.66,0.973,4.569,1.665,5.932
			C642.682,155.613,644.288,156.173,644.288,156.173z"/>
		<path id="XMLID_45_" style="fill:#FFF8BD;" d="M644.288,156.173c0,0-0.28,11.142-6.345,14.384
			c-1.798,0.958-3.102,1.776-4.068,2.609c-0.118-0.022-0.236-0.044-0.354-0.066c-6.072-1.297-8.106-16.403-8.106-16.403
			l15.888-3.758C642.682,155.613,644.288,156.173,644.288,156.173z"/>
		<path id="XMLID_42_" style="fill:#593F00;" d="M636.876,139.887c0,0-0.644-8.532-7.566-12.074
			c-6.922-3.542-22.216-0.966-26.724,6.44c-4.508,7.405,0,6.6,0,6.6s-4.186,8.21,0.805,14.811
			c4.991,6.601,11.43,11.269,11.43,11.269l2.737-5.313c0,0-6.44-5.152-4.347-9.659c2.093-4.508,6.6,2.254,6.6,2.254
			s1.932-4.669,0.161-7.566C618.201,143.751,629.792,136.507,636.876,139.887z"/>
		<path id="XMLID_44_" style="fill:#009768;" d="M600.654,185.85c0,0,6.279,7.727,7.486,39.845l-24.631-1.207
			C583.508,224.487,584.233,196.716,600.654,185.85z"/>
		<path id="XMLID_132_" style="fill:#FF906C;" d="M586.648,224.245c0,0,0.322,28.334,7.083,35.096
			c6.762,6.761,50.872,1.932,50.872,1.932s9.82-0.322,14.489-2.093s-1.61-3.381-3.864-2.576c-2.254,0.805,5.313-1.771,5.152-3.22
			c-0.161-1.449-5.635-0.483-5.635-0.483s5.957-2.093,5.152-3.381c-0.805-1.288-6.762-0.483-6.762-0.483s4.991-1.771,4.83-2.576
			c-0.161-0.805-6.44-0.644-10.786,1.61c0,0,1.61-3.864-0.483-4.669c-2.093-0.805-5.635,7.566-5.635,7.566
			s-25.919,0.644-32.198-3.864c-6.279-4.508-4.83-22.377-4.83-22.377L586.648,224.245z"/>
		<path id="XMLID_175_" style="fill:#009768;" d="M593.768,277.291l57.114,120.822l15.938-5.796l-32.359-115.429
			C634.461,276.889,602.462,274.393,593.768,277.291z"/>
	</g>
</g>
</svg>
